<svg height="512" viewBox="0 0 512 512" width="512" xmlns="http://www.w3.org/2000/svg"><g id="flat"><path d="m184 96 6-21.955-6-34.045-32 40z" fill="#a3dcc0"/><path d="m328 40-6 32 6 24 32-16z" fill="#a3dcc0"/><path d="m448 408a59.659 59.659 0 0 1 -28.67 22.75l-3.33 1.25 8 16-9.37 3.75a102.009 102.009 0 0 1 -59.94 4.88l5.31 23.37-18.33 3.06a363.58 363.58 0 0 1 -59.75 4.94h-51.84a363.58 363.58 0 0 1 -59.75-4.94l-18.33-3.06 5.31-23.37a102.009 102.009 0 0 1 -59.94-4.88l-9.37-3.75 8-16-3.33-1.25a59.659 59.659 0 0 1 -28.67-22.75l152-224v-24a80.021 80.021 0 0 0 -32-64v-56l32-16a77.762 77.762 0 0 0 40 11.08 77.762 77.762 0 0 0 40-11.08l32 16v56a80.021 80.021 0 0 0 -32 64v24l17.81 20.78a600.288 600.288 0 0 1 54.61 74.66z" fill="#aae5c8"/><path d="m216 160h3.414a36.613 36.613 0 0 1 35.519 27.732l1.067 4.268-2.534.845a36.612 36.612 0 0 1 -37.466-8.845z" fill="#99d8aa"/><path d="m280 200 144 248" fill="#99d8aa"/><path d="m424 448-9.37 3.75a102.009 102.009 0 0 1 -59.94 4.88l-24.13-106.17a663.237 663.237 0 0 0 -27.66-90.93l-22.9-59.53" fill="#9bd1b7"/><path d="m88 448 9.37 3.75a102.009 102.009 0 0 0 59.94 4.88l24.13-106.17a663.237 663.237 0 0 1 27.66-90.93l22.9-59.53" fill="#9bd1b7"/><path d="m296 160h-3.414a36.613 36.613 0 0 0 -35.519 27.732l-1.067 4.268 2.534.845a36.612 36.612 0 0 0 37.466-8.845z" fill="#99d8aa"/><path d="m296 24v8a40 40 0 0 1 -80 0v-8a77.762 77.762 0 0 0 40 11.08 77.762 77.762 0 0 0 40-11.08z" fill="#81b690"/></g></svg>