<svg xmlns="http://www.w3.org/2000/svg" height="512" viewBox="0 0 128 128" width="512" class="hovered-paths"><g><g><path d="m101.04 61.359a1.744 1.744 0 0 1 -1.238-.513l-2.988-2.987a5.122 5.122 0 0 1 0-7.233l9.554-9.552a1.614 1.614 0 1 0 -2.284-2.282l-9.695 9.7a1.75 1.75 0 0 1 -2.474-2.475l9.695-9.7a5.114 5.114 0 1 1 7.232 7.233l-9.553 9.55a1.617 1.617 0 0 0 0 2.283l2.988 2.988a1.75 1.75 0 0 1 -1.237 2.987z" fill="#7075e0" data-original="#7075E0" class="" style="fill:#D7BF3F" data-old_color="#7075e0"></path><path d="m12.212 48.294h118.575v12.309h-118.575z" fill="#7075e0" transform="matrix(.707 -.707 .707 .707 -17.56 66.505)" data-original="#7075E0" class="" style="fill:#D7BF3F" data-old_color="#7075e0"></path><path d="m118.5 16.157-8.7-8.7a3.252 3.252 0 0 0 -4.6 4.6l8.7 8.705a3.252 3.252 0 1 0 4.6-4.6z" fill="#de6246" data-original="#DE6246" class="" data-old_color="#de6246" style="fill:#95072F"></path><path d="m6.542 66.75h95.407v18.113h-95.407z" fill="#de6246" transform="matrix(.707 -.707 .707 .707 -37.715 60.561)" data-original="#DE6246" class="" data-old_color="#de6246" style="fill:#95072F"></path><g fill="#7075e0"><path d="m15.509 96.271h11.926v24.618h-11.926z" transform="matrix(.707 -.707 .707 .707 -70.488 46.985)" data-original="#7075E0" class="" style="fill:#D7BF3F" data-old_color="#7075E0"></path><path d="m48.978 105.147a1.743 1.743 0 0 1 -1.238-.512l-8.861-8.862a1.75 1.75 0 0 1 2.475-2.473l7.624 7.624 31-31-7.625-7.624a1.75 1.75 0 0 1 2.474-2.475l8.861 8.862a1.748 1.748 0 0 1 0 2.474l-33.473 33.474a1.742 1.742 0 0 1 -1.237.512z" data-original="#7075E0" class="" style="fill:#D7BF3F" data-old_color="#7075E0"></path><path d="m71.294 82.832a1.741 1.741 0 0 1 -1.237-.513l-8.863-8.862a1.75 1.75 0 0 1 2.475-2.475l8.862 8.863a1.75 1.75 0 0 1 -1.237 2.987z" data-original="#7075E0" class="" style="fill:#D7BF3F" data-old_color="#7075E0"></path><path d="m60.136 93.99a1.747 1.747 0 0 1 -1.238-.512l-8.862-8.863a1.75 1.75 0 1 1 2.475-2.474l8.862 8.859a1.75 1.75 0 0 1 -1.237 2.987z" data-original="#7075E0" class="" style="fill:#D7BF3F" data-old_color="#7075E0"></path></g><circle cx="37.816" cy="92.236" fill="#6367c5" r="3" data-original="#6367C5" class="hovered-path active-path" style="fill:#BDA838" data-old_color="#6367c5"></circle><circle cx="48.974" cy="81.078" fill="#6367c5" r="3" data-original="#6367C5" class="hovered-path active-path" style="fill:#BDA838" data-old_color="#6367c5"></circle><circle cx="60.132" cy="69.92" fill="#6367c5" r="3" data-original="#6367C5" class="hovered-path active-path" style="fill:#BDA838" data-old_color="#6367c5"></circle><circle cx="71.29" cy="58.762" fill="#6367c5" r="3" data-original="#6367C5" class="hovered-path active-path" style="fill:#BDA838" data-old_color="#6367c5"></circle></g></g> </svg>