<?xml version="1.0" encoding="iso-8859-1"?>
<!-- Generator: Adobe Illustrator 19.0.0, SVG Export Plug-In . SVG Version: 6.00 Build 0)  -->
<svg version="1.1" id="Capa_1" xmlns="http://www.w3.org/2000/svg" xmlns:xlink="http://www.w3.org/1999/xlink" x="0px" y="0px"
	 viewBox="0 0 512 512" style="enable-background:new 0 0 512 512;" xml:space="preserve">
<path style="fill:#EFEDEE;" d="M171.039,395.064l-15.924-38.18l-38.18-15.924c-9.325,7.587-18.555,14.741-27.679,21.371
	l0.684,37.198l26.553,30.576l33.175-7.363C156.298,413.619,163.45,404.389,171.039,395.064z"/>
<path style="fill:#596674;" d="M104.633,506.158c-13.639,13.639-46.821,2.583-74.098-24.693
	C3.258,454.187-7.797,421.005,5.842,407.367c26.311-7.965,54.328-23.881,83.415-45.034c6.164,11.956,15.014,23.897,25.764,34.647
	c10.75,10.75,22.691,19.6,34.647,25.764C128.514,451.83,112.599,479.847,104.633,506.158z"/>
<path style="fill:#EFEDEE;" d="M424.657,102.279l-16.916-25.12l-23.173,2.752c-7.604,7.669-15.609,15.803-24.026,24.348v14.7
	l33.209,31.139l13.99,1.36c8.545-8.417,16.68-16.422,24.348-24.026L424.657,102.279z"/>
<path style="fill:#596674;" d="M171.039,395.064c-10.444-4.265-21.861-12.206-31.879-22.224
	c-10.026-10.026-17.951-21.443-22.224-31.879c64.708-52.67,133.527-126.157,199.739-192.369
	c15.755-15.755,30.342-30.584,43.868-44.335c7.612,6.47,15.827,14.008,24.509,22.691c8.682,8.681,16.221,16.897,22.691,24.509
	c-13.751,13.525-28.58,28.114-44.335,43.868C297.195,261.537,223.709,330.357,171.039,395.064z"/>
<path style="fill:#EFEDEE;" d="M434.841,31.521c-7.756,6.823-16.109,14.661-25.12,23.415l16.997,31.549l30.347,15.795
	c8.754-9.012,16.591-17.364,23.414-25.12V41.157L434.841,31.521z"/>
<g>
	<path style="fill:#596674;" d="M432.09,127.432c-7.025-8.167-14.733-16.454-22.9-24.621c-8.167-8.167-16.454-15.875-24.621-22.9
		c8.915-8.979,17.275-17.324,25.153-24.976c7.619,6.493,15.875,14.057,24.581,22.763s16.27,16.962,22.763,24.581
		C449.422,110.148,441.069,118.516,432.09,127.432z"/>
	<path style="fill:#596674;" d="M480.479,77.159c-6.799-7.829-14.209-15.771-22.039-23.599
		c-7.829-7.828-15.771-15.239-23.599-22.039C467.863,2.41,489.926-8.308,505.117,6.883S509.59,44.137,480.479,77.159z"/>
</g>
<path style="fill:#D2D2D2;" d="M367.367,144.635l-26.842-26.841c-13.723-13.723-36.052-13.723-49.775,0l-83.158,83.159
	c-0.002,0.002-0.004,0.004-0.006,0.006s-0.004,0.004-0.006,0.006l-48.961,48.962c-6.648,6.648-10.309,15.487-10.309,24.887
	c0,9.401,3.661,18.24,10.309,24.887l26.841,26.841c1.508,1.508,3.486,2.263,5.463,2.263c1.977,0,3.955-0.754,5.463-2.263
	c3.017-3.017,3.017-7.91,0-10.926l-26.841-26.841c-3.729-3.729-5.782-8.688-5.782-13.961c0-5.273,2.054-10.232,5.782-13.961
	l9.309-9.309l40.802,40.802c1.509,1.508,3.487,2.263,5.464,2.263c1.977,0,3.955-0.754,5.464-2.263c3.017-3.017,3.017-7.91,0-10.926
	l-40.802-40.802l23.27-23.27l40.802,40.802c1.509,1.509,3.486,2.263,5.464,2.263c1.977,0,3.955-0.754,5.464-2.263
	c3.017-3.017,3.017-7.91,0-10.926l-40.802-40.802l23.266-23.272l40.802,40.802c1.509,1.508,3.487,2.263,5.464,2.263
	s3.955-0.754,5.464-2.263c3.017-3.017,3.017-7.91,0-10.926l-40.803-40.803l23.27-23.27l40.802,40.802
	c1.509,1.509,3.486,2.263,5.464,2.263c1.977,0,3.955-0.754,5.464-2.263c3.017-3.017,3.017-7.91,0-10.926l-40.802-40.803l9.308-9.308
	c7.7-7.699,20.224-7.698,27.922,0l26.842,26.841c3.018,3.017,7.91,3.017,10.927,0C370.383,152.543,370.383,147.651,367.367,144.635z
	"/>
<g>
	<circle style="fill:#A1A1A1;" cx="361.902" cy="150.098" r="15.646"/>
	<circle style="fill:#A1A1A1;" cx="327.711" cy="184.3" r="15.646"/>
	<circle style="fill:#A1A1A1;" cx="293.509" cy="218.491" r="15.646"/>
	<circle style="fill:#A1A1A1;" cx="259.317" cy="252.683" r="15.646"/>
	<circle style="fill:#A1A1A1;" cx="225.115" cy="286.885" r="15.646"/>
	<circle style="fill:#A1A1A1;" cx="190.923" cy="321.077" r="15.646"/>
</g>
<g>
</g>
<g>
</g>
<g>
</g>
<g>
</g>
<g>
</g>
<g>
</g>
<g>
</g>
<g>
</g>
<g>
</g>
<g>
</g>
<g>
</g>
<g>
</g>
<g>
</g>
<g>
</g>
<g>
</g>
</svg>
