<svg height="512" viewBox="0 0 59 52" width="512" xmlns="http://www.w3.org/2000/svg"><g id="027---Cannon" fill="none"><path id="Shape" d="m42 52h-13c-.5522847 0-1-.4477153-1-1s.4477153-1 1-1h13c.5522847 0 1 .4477153 1 1s-.4477153 1-1 1z" fill="#393f4a"/><path id="Shape" d="m25 52h-2c-.5522847 0-1-.4477153-1-1s.4477153-1 1-1h2c.5522847 0 1 .4477153 1 1s-.4477153 1-1 1z" fill="#393f4a"/><path id="Shape" d="m51.09 18c-.0585241-.5461142.3343589-1.037218.88-1.1 1.15-.13 4-.64 5.2-2.49.2000687-.2965305.543137-.4638005.8999742-.4388011.3568373.0249994.6732315.2384702.8300001.56.1567685.3215298.1300944.7022707-.0699743.9988011-1.64 2.47-4.83 3.18-6.64 3.38-.2670744.027815-.5341138-.052947-.7410111-.2241075-.2068973-.1711604-.3362667-.4183367-.3589889-.6858925z" fill="#603e26"/><path id="Shape" d="m54.62 26.16-1.71 3.6c-2.2164512 4.6702129-7.627113 6.8813006-12.48 5.1-16.88-6.2-8.86-3-34.61-13.91l6.11-16.95c15.9 4.78 7.7 2.15 35 10.52 5.0105914 1.5504378 8.229558 6.4228398 7.69 11.64z" fill="#3f5c6c"/><path id="Shape" d="m2 22.76c-1.55695962-.56386-2.36261422-2.2825898-1.8-3.84l6.08-16.92c.60434589-1.48442632 2.26876197-2.23165052 3.7796301-1.69682995 1.5108681.53482057 2.3345132 2.16277439 1.8703699 3.69682995l-6.11 17c-.58004125 1.530483-2.2797544 2.3135969-3.82 1.76z" fill="#547580"/><path id="Shape" d="m24.39 7.76c0 .09-6.56 18.23-6.58 18.26l-1.81-.77 6.51-18.06z" fill="#35495e"/><path id="Shape" d="m28.23 8.91c0 .09-6.71 18.65-6.73 18.68l-1.84-.78 6.66-18.47z" fill="#35495e"/><path id="Shape" d="m42 20c-8.836556 0-16 7.163444-16 16s7.163444 16 16 16 16-7.163444 16-16c0-4.2434638-1.6857094-8.3131264-4.6862915-11.3137085s-7.0702447-4.6862915-11.3137085-4.6862915zm0 28c-6.627417 0-12-5.372583-12-12s5.372583-12 12-12 12 5.372583 12 12c0 3.1825979-1.2642821 6.2348448-3.5147186 8.4852814-2.2504366 2.2504365-5.3026835 3.5147186-8.4852814 3.5147186z" fill="#cf976a"/><g fill="#603e26"><path id="Shape" d="m42 33c-.5522847 0-1-.4477153-1-1v-8c0-.5522847.4477153-1 1-1s1 .4477153 1 1v8c0 .5522847-.4477153 1-1 1z"/><path id="Shape" d="m39.17 34.17c-.265803.0015368-.5212812-.1028135-.71-.29l-5.65-5.66c-.3397768-.3967603-.3169323-.9881942.0524368-1.3575632.369369-.3693691.9608029-.3922136 1.3575632-.0524368l5.66 5.65c.2884599.2860905.3751619.7182668.219371 1.0934815-.155791.3752147-.5231059.6188811-.929371.6165185z"/><path id="Shape" d="m38 37h-8c-.5522847 0-1-.4477153-1-1s.4477153-1 1-1h8c.5522847 0 1 .4477153 1 1s-.4477153 1-1 1z"/><path id="Shape" d="m33.51 45.49c-.4044441-.0016958-.7680455-.2468472-.9212679-.6211476s-.0658935-.8040433.2212679-1.0888524l5.65-5.66c.3921222-.3921221 1.0278778-.3921221 1.42 0 .3921221.3921222.3921221 1.0278778 0 1.42l-5.66 5.65c-.1870714.1908556-.4427541.2988906-.71.3z"/><path id="Shape" d="m42 49c-.5522847 0-1-.4477153-1-1v-8c0-.5522847.4477153-1 1-1s1 .4477153 1 1v8c0 .5522847-.4477153 1-1 1z"/><path id="Shape" d="m50.49 45.49c-.2672459-.0011094-.5229286-.1091444-.71-.3l-5.66-5.65c-.3921222-.3921222-.3921222-1.0278778 0-1.42s1.0278778-.3921222 1.42 0l5.65 5.66c.2871614.2848091.3744903.714552.2212679 1.0888524s-.5168238.6194518-.9212679.6211476z"/><path id="Shape" d="m54 37h-8c-.5522847 0-1-.4477153-1-1s.4477153-1 1-1h8c.5522847 0 1 .4477153 1 1s-.4477153 1-1 1z"/><path id="Shape" d="m44.83 34.17c-.4062651.0023626-.77358-.2413038-.929371-.6165185-.1557909-.3752147-.0690889-.807391.219371-1.0934815l5.66-5.65c.3967603-.3397768.9881942-.3169323 1.3575632.0524368.3693691.369369.3922136.9608029.0524368 1.3575632l-5.65 5.66c-.1887188.1871865-.444197.2915368-.71.29z"/><circle id="Oval" cx="42" cy="36" r="4"/></g><path id="Shape" d="m42 41c-2.7614237 0-5-2.2385763-5-5s2.2385763-5 5-5 5 2.2385763 5 5c0 1.3260824-.5267842 2.597852-1.4644661 3.5355339s-2.2094515 1.4644661-3.5355339 1.4644661zm0-8c-1.6568542 0-3 1.3431458-3 3s1.3431458 3 3 3 3-1.3431458 3-3-1.3431458-3-3-3z" fill="#a56a43"/><path id="Shape" d="m42 49c-7.1797017 0-13-5.8202983-13-13s5.8202983-13 13-13 13 5.8202983 13 13c0 3.4478144-1.3696389 6.7544152-3.8076118 9.1923882-2.437973 2.4379729-5.7445738 3.8076118-9.1923882 3.8076118zm0-24c-6.0751322 0-11 4.9248678-11 11s4.9248678 11 11 11 11-4.9248678 11-11c0-2.9173814-1.1589252-5.7152744-3.2218254-7.7781746s-4.8607932-3.2218254-7.7781746-3.2218254z" fill="#a56a43"/></g></svg>