<svg height="496pt" viewBox="0 -16 496.032 496" width="496pt" xmlns="http://www.w3.org/2000/svg"><path d="m480 272.015625h-468.007812v-32h472zm0 0" fill="#844747"/><path d="m11.992188 224.015625h472v24h-472zm0 0" fill="#e6e9ed"/><path d="m36 16.015625h16v176h-16zm0 0" fill="#545c66"/><path d="m443.984375 16.015625h16v176h-16zm0 0" fill="#545c66"/><path d="m52 128.015625h391.984375v64h-391.984375zm0 0" fill="#7f4545"/><path d="m52 16.015625h391.984375v112h-391.984375zm0 0" fill="#965353"/><path d="m460 196.015625c0 2.199219-1.800781 4-4 4h-416.015625c-2.199219 0-4-1.800781-4-4v-64c0-2.199219 1.800781-4 4-4h416.015625c2.199219 0 4 1.800781 4 4zm0 0" fill="#656d78"/><path d="m459.984375 16.015625h-423.984375l-16-16h455.984375zm0 0" fill="#656d78"/><path d="m299.992188 160.015625h-104c-4.425782 0-8 3.578125-8 8v24h120v-24c0-4.421875-3.578126-8-8-8zm0 0" fill="#545c66"/><path d="m259.992188 84.015625c0 6.628906-5.371094 12-12 12-6.628907 0-12-5.371094-12-12s5.371093-12 12-12c6.628906 0 12 5.371094 12 12zm0 0" fill="#844747"/><path d="m427.984375 148.015625h-359.984375c-2.207031 0-4-1.792969-4-4s1.792969-4 4-4h359.984375c2.207031 0 4 1.792969 4 4s-1.792969 4-4 4zm0 0" fill="#545c66"/><path d="m267.992188 180.015625h-40c-2.207032 0-4-1.792969-4-4s1.792968-4 4-4h40c2.207031 0 4 1.792969 4 4s-1.792969 4-4 4zm0 0" fill="#656d78"/><path d="m227.992188 76.015625c-1.800782 0-3.433594-1.207031-3.878907-3.03125-5.730469-22.914063-24.960937-28.96875-34.335937-28.96875-7.601563 0-13.785156 6.175781-13.785156 13.785156 0 5.632813 4.582031 10.214844 10.214843 10.214844 4.074219 0 7.378907-3.3125 7.378907-7.375 0-2.824219-2.28125-5.113281-5.097657-5.113281-2.207031 0-4-1.792969-4-4 0-2.207032 1.792969-4 4-4 7.214844 0 13.097657 5.871094 13.097657 13.113281 0 8.480469-6.898438 15.375-15.378907 15.375-10.046875 0-18.214843-8.167969-18.214843-18.214844 0-12.015625 9.777343-21.785156 21.785156-21.785156 16.054687 0 36.085937 10.960937 42.101562 35.03125.527344 2.144531-.765625 4.3125-2.910156 4.839844-.328125.089843-.65625.128906-.976562.128906zm0 0" fill="#844747"/><path d="m267.992188 76.015625c-.320313 0-.640626-.039063-.96875-.128906-2.152344-.527344-3.449219-2.703125-2.910157-4.839844 6.015625-24.070313 26.046875-35.03125 42.09375-35.03125 12.007813 0 21.785157 9.769531 21.785157 21.785156 0 10.046875-8.167969 18.214844-18.214844 18.214844-8.480469 0-15.378906-6.894531-15.378906-15.375 0-7.234375 5.875-13.113281 13.097656-13.113281 2.207031 0 4 1.792968 4 4 0 2.207031-1.792969 4-4 4-2.816406 0-5.097656 2.289062-5.097656 5.113281 0 4.0625 3.304687 7.375 7.378906 7.375 5.628906 0 10.214844-4.582031 10.214844-10.214844 0-7.601562-6.175782-13.785156-13.785157-13.785156-9.375 0-28.605469 6.054687-34.335937 28.96875-.445313 1.824219-2.078125 3.03125-3.878906 3.03125zm0 0" fill="#844747"/><path d="m219.992188 108.015625c-2.207032 0-4-1.792969-4-4s1.792968-4 4-4c2.199218 0 4-1.800781 4-4 0-2.207031 1.792968-4 4-4 2.207031 0 4 1.792969 4 4 0 6.617187-5.382813 12-12 12zm0 0" fill="#844747"/><path d="m275.992188 108.015625c-6.617188 0-12-5.382813-12-12 0-2.207031 1.792968-4 4-4 2.207031 0 4 1.792969 4 4 0 2.199219 1.800781 4 4 4 2.207031 0 4 1.792969 4 4s-1.792969 4-4 4zm0 0" fill="#844747"/><path d="m292.230469 92.015625c-2.207031 0-4.039063-1.792969-4.039063-4s1.753906-4 3.953125-4h.085938c2.203125 0 4 1.792969 4 4s-1.789063 4-4 4zm0 0" fill="#844747"/><path d="m316.230469 108.015625c-2.207031 0-4.039063-1.792969-4.039063-4s1.753906-4 3.953125-4h.085938c2.203125 0 4 1.792969 4 4s-1.789063 4-4 4zm0 0" fill="#844747"/><path d="m180.230469 108.015625c-2.207031 0-4.039063-1.792969-4.039063-4s1.753906-4 3.953125-4h.085938c2.203125 0 4 1.792969 4 4s-1.789063 4-4 4zm0 0" fill="#844747"/><path d="m204.230469 92.015625c-2.207031 0-4.039063-1.792969-4.039063-4s1.753906-4 3.953125-4h.085938c2.203125 0 4 1.792969 4 4s-1.789063 4-4 4zm0 0" fill="#844747"/><path d="m137.304688 79.566406c-4.128907 0-9.167969-1.007812-15.105469-3.972656-12.941407-6.488281-19.183594-.945312-19.4375-.707031-1.59375 1.480469-4.128907 1.441406-5.625-.132813-1.511719-1.570312-1.511719-4.035156.023437-5.570312.398438-.414063 10.230469-9.953125 28.617188-.75 12.933594 6.460937 19.167968.925781 19.4375.695312 1.585937-1.480468 4.113281-1.449218 5.625.136719 1.511718 1.566406 1.511718 4.039063-.023438 5.574219-.273437.28125-4.871094 4.726562-13.511718 4.726562zm0 0" fill="#844747"/><path d="m358.679688 79.566406c-8.640626 0-13.238282-4.453125-13.511719-4.726562-1.558594-1.558594-1.558594-4.097656 0-5.65625 1.558593-1.558594 4.097656-1.558594 5.65625 0 .207031.183594 6.421875 5.726562 19.382812-.75 18.378907-9.175782 28.207031.335937 28.617188.75 1.558593 1.558594 1.558593 4.097656 0 5.65625-1.535157 1.542968-4.039063 1.558594-5.609375.046875-.335938-.3125-6.566406-5.726563-19.429688.707031-5.9375 2.957031-10.976562 3.972656-15.105468 3.972656zm0 0" fill="#844747"/><path d="m472 192.015625h-448.007812l-19.992188 16h7.992188v16h472l-3.992188-16h16zm0 0" fill="#773e3e"/><path d="m43.992188 272.015625h408v176h-408zm0 0" fill="#545c66"/><path d="m16 272.007812h-12l-4-3.992187v-60h16zm0 0" fill="#965353"/><path d="m27.992188 272.015625h16v183.992187h-16zm0 0" fill="#656d78"/><path d="m451.992188 272.015625h16v183.992187h-16zm0 0" fill="#656d78"/><path d="m219.992188 440.015625v8c0 4.425781 3.574218 8 8 8 4.421874 0 8-3.574219 8-8v-8zm0 0" fill="#ffce54"/><path d="m259.992188 440.015625v8c0 4.425781 3.574218 8 8 8 4.421874 0 8-3.574219 8-8v-8zm0 0" fill="#ffce54"/><g fill="#ccd1d9"><path d="m31.992188 232.015625c2.207031 0 4-1.792969 4-4v-4h-8v4c0 2.207031 1.792968 4 4 4zm0 0"/><path d="m55.992188 232.015625c2.207031 0 4-1.792969 4-4v-4h-8v4c0 2.207031 1.792968 4 4 4zm0 0"/><path d="m79.992188 232.015625c2.207031 0 4-1.792969 4-4v-4h-8v4c0 2.207031 1.792968 4 4 4zm0 0"/><path d="m103.992188 232.015625c2.207031 0 4-1.792969 4-4v-4h-8v4c0 2.207031 1.792968 4 4 4zm0 0"/><path d="m127.992188 232.015625c2.207031 0 4-1.792969 4-4v-4h-8v4c0 2.207031 1.792968 4 4 4zm0 0"/><path d="m151.992188 232.015625c2.207031 0 4-1.792969 4-4v-4h-8v4c0 2.207031 1.792968 4 4 4zm0 0"/><path d="m175.992188 232.015625c2.207031 0 4-1.792969 4-4v-4h-8v4c0 2.207031 1.792968 4 4 4zm0 0"/><path d="m199.992188 232.015625c2.207031 0 4-1.792969 4-4v-4h-8v4c0 2.207031 1.792968 4 4 4zm0 0"/><path d="m223.992188 232.015625c2.207031 0 4-1.792969 4-4v-4h-8v4c0 2.207031 1.792968 4 4 4zm0 0"/><path d="m247.992188 232.015625c2.207031 0 4-1.792969 4-4v-4h-8v4c0 2.207031 1.792968 4 4 4zm0 0"/><path d="m271.992188 232.015625c2.207031 0 4-1.792969 4-4v-4h-8v4c0 2.207031 1.792968 4 4 4zm0 0"/><path d="m295.992188 232.015625c2.207031 0 4-1.792969 4-4v-4h-8v4c0 2.207031 1.792968 4 4 4zm0 0"/><path d="m319.992188 232.015625c2.207031 0 4-1.792969 4-4v-4h-8v4c0 2.207031 1.792968 4 4 4zm0 0"/><path d="m343.992188 232.015625c2.207031 0 4-1.792969 4-4v-4h-8v4c0 2.207031 1.792968 4 4 4zm0 0"/><path d="m367.992188 232.015625c2.207031 0 4-1.792969 4-4v-4h-8v4c0 2.207031 1.792968 4 4 4zm0 0"/><path d="m391.992188 232.015625c2.207031 0 4-1.792969 4-4v-4h-8v4c0 2.207031 1.792968 4 4 4zm0 0"/><path d="m415.992188 232.015625c2.207031 0 4-1.792969 4-4v-4h-8v4c0 2.207031 1.792968 4 4 4zm0 0"/><path d="m439.992188 232.015625c2.207031 0 4-1.792969 4-4v-4h-8v4c0 2.207031 1.792968 4 4 4zm0 0"/><path d="m463.992188 232.015625c2.207031 0 4-1.792969 4-4v-4h-8v4c0 2.207031 1.792968 4 4 4zm0 0"/></g><path d="m415.992188 412.015625c-2.207032 0-4-1.792969-4-4v-96c0-2.207031 1.792968-4 4-4 2.207031 0 4 1.792969 4 4v96c0 2.207031-1.792969 4-4 4zm0 0" fill="#434a54"/><path d="m391.992188 412.015625c-2.207032 0-4-1.792969-4-4v-96c0-2.207031 1.792968-4 4-4 2.207031 0 4 1.792969 4 4v96c0 2.207031-1.792969 4-4 4zm0 0" fill="#434a54"/><path d="m367.992188 412.015625c-2.207032 0-4-1.792969-4-4v-96c0-2.207031 1.792968-4 4-4 2.207031 0 4 1.792969 4 4v96c0 2.207031-1.792969 4-4 4zm0 0" fill="#434a54"/><path d="m343.992188 412.015625c-2.207032 0-4-1.792969-4-4v-96c0-2.207031 1.792968-4 4-4 2.207031 0 4 1.792969 4 4v96c0 2.207031-1.792969 4-4 4zm0 0" fill="#434a54"/><path d="m319.992188 412.015625c-2.207032 0-4-1.792969-4-4v-96c0-2.207031 1.792968-4 4-4 2.207031 0 4 1.792969 4 4v96c0 2.207031-1.792969 4-4 4zm0 0" fill="#434a54"/><path d="m295.992188 412.015625c-2.207032 0-4-1.792969-4-4v-96c0-2.207031 1.792968-4 4-4 2.207031 0 4 1.792969 4 4v96c0 2.207031-1.792969 4-4 4zm0 0" fill="#434a54"/><path d="m271.992188 412.015625c-2.207032 0-4-1.792969-4-4v-96c0-2.207031 1.792968-4 4-4 2.207031 0 4 1.792969 4 4v96c0 2.207031-1.792969 4-4 4zm0 0" fill="#434a54"/><path d="m247.992188 412.015625c-2.207032 0-4-1.792969-4-4v-96c0-2.207031 1.792968-4 4-4 2.207031 0 4 1.792969 4 4v96c0 2.207031-1.792969 4-4 4zm0 0" fill="#434a54"/><path d="m223.992188 412.015625c-2.207032 0-4-1.792969-4-4v-96c0-2.207031 1.792968-4 4-4 2.207031 0 4 1.792969 4 4v96c0 2.207031-1.792969 4-4 4zm0 0" fill="#434a54"/><path d="m199.992188 412.015625c-2.207032 0-4-1.792969-4-4v-96c0-2.207031 1.792968-4 4-4 2.207031 0 4 1.792969 4 4v96c0 2.207031-1.792969 4-4 4zm0 0" fill="#434a54"/><path d="m175.992188 412.015625c-2.207032 0-4-1.792969-4-4v-96c0-2.207031 1.792968-4 4-4 2.207031 0 4 1.792969 4 4v96c0 2.207031-1.792969 4-4 4zm0 0" fill="#434a54"/><path d="m151.992188 412.015625c-2.207032 0-4-1.792969-4-4v-96c0-2.207031 1.792968-4 4-4 2.207031 0 4 1.792969 4 4v96c0 2.207031-1.792969 4-4 4zm0 0" fill="#434a54"/><path d="m127.992188 412.015625c-2.207032 0-4-1.792969-4-4v-96c0-2.207031 1.792968-4 4-4 2.207031 0 4 1.792969 4 4v96c0 2.207031-1.792969 4-4 4zm0 0" fill="#434a54"/><path d="m103.992188 412.015625c-2.207032 0-4-1.792969-4-4v-96c0-2.207031 1.792968-4 4-4 2.207031 0 4 1.792969 4 4v96c0 2.207031-1.792969 4-4 4zm0 0" fill="#434a54"/><path d="m79.992188 412.015625c-2.207032 0-4-1.792969-4-4v-96c0-2.207031 1.792968-4 4-4 2.207031 0 4 1.792969 4 4v96c0 2.207031-1.792969 4-4 4zm0 0" fill="#434a54"/><path d="m36.03125 192.015625h-16.015625l-20.015625 16h16.015625zm0 0" fill="#844747"/><path d="m480.03125 272.007812h12.007812l3.992188-3.992187v-60h-16zm0 0" fill="#965353"/><path d="m460 192.015625h16.015625l20.015625 16h-16.015625zm0 0" fill="#844747"/><path d="m8 268.015625c0 2.210937-1.789062 4-4 4s-4-1.789063-4-4c0-2.207031 1.789062-4 4-4s4 1.792969 4 4zm0 0" fill="#965353"/><path d="m496.03125 268.015625c0 2.210937-1.789062 4-4 4-2.207031 0-4-1.789063-4-4 0-2.207031 1.792969-4 4-4 2.210938 0 4 1.792969 4 4zm0 0" fill="#965353"/><path d="m43.992188 456.015625c0 4.417969-3.582032 8-8 8-4.417969 0-8-3.582031-8-8s3.582031-8 8-8c4.417968 0 8 3.582031 8 8zm0 0" fill="#656d78"/><path d="m467.992188 456.015625c0 4.417969-3.582032 8-8 8-4.417969 0-8-3.582031-8-8s3.582031-8 8-8c4.417968 0 8 3.582031 8 8zm0 0" fill="#656d78"/></svg>