<svg id="Capa_1" enable-background="new 0 0 512.005 512.005" height="512" viewBox="0 0 512.005 512.005" width="512" xmlns="http://www.w3.org/2000/svg"><g fill="#563e2f"><path d="m476.085 98.012c-1.919 0-3.839-.732-5.303-2.197l-53.452-53.451c-2.929-2.929-2.929-7.678 0-10.606 2.929-2.929 7.678-2.929 10.607 0l53.451 53.451c2.929 2.929 2.929 7.678 0 10.606-1.464 1.464-3.384 2.197-5.303 2.197z"/><path d="m459.84 114.256c-1.919 0-3.839-.732-5.303-2.197l-53.451-53.451c-2.929-2.929-2.929-7.678 0-10.607s7.678-2.929 10.606 0l53.451 53.451c2.929 2.929 2.929 7.678 0 10.606-1.464 1.466-3.383 2.198-5.303 2.198z"/><path d="m473.85 295.834c-.642 0-1.293-.083-1.942-.256-4.001-1.07-6.378-5.182-5.308-9.183 5.421-20.273-.43-42.085-15.268-56.924l-163.147-163.147c-14.838-14.838-36.651-20.688-56.924-15.268-4.001 1.067-8.113-1.307-9.183-5.308-1.07-4.002 1.307-8.113 5.308-9.183 25.432-6.801 52.791.539 71.405 19.153l163.146 163.146c18.614 18.614 25.953 45.975 19.153 71.405-.896 3.352-3.927 5.565-7.24 5.565z"/></g><path d="m495.675 317.662c-1.919 0-3.839-.732-5.303-2.197l-293.829-293.83c-2.929-2.929-2.929-7.678 0-10.606 2.929-2.929 7.678-2.929 10.606 0l293.829 293.83c2.929 2.929 2.929 7.678 0 10.606-1.464 1.464-3.384 2.197-5.303 2.197z" fill="#e0e0e0"/><path d="m51.161 460.851c115.008 115.008 192.302 2.73 203.633-15.437.89-1.427 1-3.197.293-4.724-3.949-8.534-15.711-38.934 3.281-64.444 24.282-32.614 53.772-30.844 62.739-29.401 1.741.28 3.51-.385 4.62-1.755 39.467-48.724 39.681-111.137-3.997-154.815-43.677-43.677-106.091-43.463-154.815-3.997-1.37 1.11-2.036 2.878-1.755 4.619 1.443 8.968 3.213 38.457-29.401 62.739-25.51 18.993-55.91 7.231-64.444 3.282-1.527-.707-3.296-.597-4.724.293-18.167 11.331-130.444 88.625-15.437 203.633z" fill="#e8834d"/><path d="m254.794 445.415c.89-1.428 1-3.197.293-4.724-3.95-8.534-15.711-38.934 3.282-64.444 24.282-32.614 53.772-30.844 62.739-29.401 1.741.28 3.51-.385 4.62-1.755 39.467-48.724 39.681-111.137-3.997-154.815-2.223-2.223-4.498-4.328-6.814-6.325 37.845 43.905 35.049 103.717-4.233 150.306 0 0-36.443-10.113-65.454 28.851-22.339 30.004-8.177 76.068-8.177 76.068s-78.734 121.875-191.7 15.694c1.867 1.98 3.799 3.972 5.802 5.975l.005.005c115.009 115.009 192.303 2.731 203.634-15.435z" fill="#d66e41"/><path d="m246.59 304.146 227.321-242.962-23.088-23.088-242.962 227.321c-2.064 1.931-2.118 5.188-.12 7.187l31.661 31.661c2 1.999 5.257 1.945 7.188-.119z" fill="#725539"/><path d="m473.911 61.184-13.138-13.139-230.853 246.737 9.483 9.483c1.999 1.999 5.256 1.945 7.187-.119z" fill="#6b4c32"/><path d="m439.956 97.476 33.955-36.292-23.088-23.087-36.291 33.955z" fill="#e8834d"/><path d="m473.911 61.184-13.139-13.138-33.955 36.291 13.139 13.139z" fill="#d66e41"/><path d="m472.676 59.949 3.029 3.029c3.937 3.937 10.943 2.774 14.381-2.387l20.194-30.315c2.512-3.771 2.253-8.494-.623-11.371l-8.28-8.28-8.28-8.28c-2.876-2.876-7.6-3.135-11.37-.623l-30.315 20.194c-5.161 3.438-6.324 10.444-2.387 14.381l3.029 3.028z" fill="#725539"/><path d="m459.538 46.811-10.514-10.513h.001l3.028 3.028 9.167 9.167z" fill="#6b4c32"/><path d="m490.086 60.591 20.194-30.315c2.512-3.771 2.253-8.495-.623-11.371l-8.28-8.28-4.858-4.859c2.876 2.876 3.135 7.6.623 11.371l-20.195 30.315c-3.438 5.16-10.444 6.323-14.381 2.387l10.11 10.11 3.029 3.029c3.936 3.936 10.943 2.773 14.381-2.387z" fill="#6b4c32"/><path d="m132.566 407.966-109.69 100.45c-5.542 5.096-13.92 4.54-18.87-.41-5.14-5.14-5.35-13.38-.52-18.77.03-.04.07-.07.1-.11l100.42-109.64c1.92-2.1 5.21-2.18 7.22-.16l21.46 21.46c2 2 1.94 5.26-.12 7.18z" fill="#725539"/><path d="m123.211 391.308-113.5 103.942c-2.739 2.509-6.235 3.688-9.69 3.569.115 3.342 1.443 6.644 3.984 9.185 5.167 5.167 13.486 5.35 18.875.415l109.647-100.414c2.1-1.923 2.172-5.209.159-7.223z" fill="#6b4c32"/><path d="m158.786 277.025c-18.814-4.465-41.399 10.654-62.999 27.658-6.426 5.058-12.719 6.559-19.235 4.594-5.135-1.55-8.567-4.767-8.72-4.912-3.033-2.99-7.915-2.977-10.93.04-3.03 3.029-3.03 7.941-.001 10.97 4.664 4.664 13.879 10.257 25.06 10.257 7.221 0 15.263-2.334 23.423-8.758 9.764-7.687 35.699-28.105 49.821-24.753 4.168.989 8.349-1.588 9.339-5.757.989-4.169-1.589-8.35-5.758-9.339z" fill="#563e2f"/><path d="m196.63 455.101c3.155 3.154 8.482 2.943 11.383-.446 2.599-3.036 2.412-7.701-.413-10.526-.509-.508-12.314-12.626-.278-27.914 17.004-21.599 32.124-44.18 27.659-62.998-.989-4.169-5.168-6.745-9.339-5.757-4.169.989-6.746 5.17-5.757 9.339 3.35 14.122-17.068 40.056-24.754 49.82-16.37 20.796-6.177 40.806 1.499 48.482z" fill="#563e2f"/><path d="m148.193 324.762c-3.029-3.029-7.941-3.029-10.971 0s-3.03 7.941 0 10.97l39.05 39.049c3.155 3.155 8.482 2.943 11.383-.445 2.6-3.036 2.412-7.701-.412-10.525z" fill="#563e2f"/></svg>