<svg height="512" viewBox="0 0 512 512" width="512" xmlns="http://www.w3.org/2000/svg"><path d="m24 464 16-24 24-24 24 8 8 24-24 24-24 16z" fill="#9e6e4d"/><path d="m300 243.029h16v33.941h-16z" fill="#f2b016" transform="matrix(.707 -.707 .707 .707 -93.637 293.941)"/><path d="m156 275.029h16v33.941h-16z" fill="#f2b016" transform="matrix(.707 -.707 .707 .707 -158.441 201.49)"/><path d="m146.343 333.657-24-24a8 8 0 0 1 0-11.314l48-48a8 8 0 0 1 11.314 0l24 24-11.314 11.314-18.343-18.344-36.687 36.687 18.344 18.343z" fill="#fccd31"/><path d="m296 304a7.974 7.974 0 0 1 -5.657-2.343l-24-24 11.314-11.314 18.343 18.344 36.687-36.687-18.344-18.343 11.314-11.314 24 24a8 8 0 0 1 0 11.314l-48 48a7.974 7.974 0 0 1 -5.657 2.343z" fill="#fccd31"/><path d="m488 112h-.8a115.882 115.882 0 0 0 -80.971 32.983l-310.229 303.017-32-32 303.017-310.232a115.882 115.882 0 0 0 32.983-80.968v-.8z" fill="#4a4d4f"/><path d="m400 24v.8c0 .384-.01.767-.014 1.151l72.014 72.011h-.887a129 129 0 0 0 -90.138 36.717l-302.667 295.629 17.692 17.692 310.232-303.017a115.882 115.882 0 0 1 80.968-32.983h.8z" fill="#37383a"/><path d="m487.2 112h.8l-88-88v.8a115.883 115.883 0 0 1 -32.983 80.972l-6.546 6.7 39.058 39.058 6.7-6.546a115.876 115.876 0 0 1 80.971-32.984z" fill="#9e6e4d"/><path d="m473.962 97.962c-33.285 0-68.109 12.872-92.115 35.885l17.682 17.682 6.7-6.546a115.876 115.876 0 0 1 80.971-32.983h.8z" fill="#7e5138"/><path d="m248.112 299.426 11.447-11.181-35.804-35.804-11.181 11.447z" fill="#d3cbc2"/><path d="m230.419 281.733 17.693 17.693 11.447-11.181-17.693-17.693z" fill="#baafa6"/><path d="m155.029 390.343 11.448-11.181-33.64-33.639-11.18 11.448z" fill="#d3cbc2"/><path d="m137.337 372.651 17.692 17.692 11.448-11.181-17.693-17.692z" fill="#baafa6"/><path d="m114.559 429.873 11.447-11.181-32.698-32.698-11.181 11.447z" fill="#d3cbc2"/><path d="m96.866 412.18 17.693 17.693 11.447-11.181-17.693-17.692z" fill="#baafa6"/><path d="m341.194 208.508 11.447-11.181-37.968-37.968-11.181 11.447z" fill="#cd201c"/><path d="m323.502 190.816 17.692 17.692 11.447-11.181-17.692-17.692z" fill="#a31111"/><path d="m78.308 430.308a80.268 80.268 0 0 1 -35.037 52.963l4.729 4.729 24-16 24-24z" fill="#7e5138"/><g fill="#fccd31"><circle cx="168" cy="344" r="8"/><circle cx="192" cy="320" r="8"/><circle cx="216" cy="296" r="8"/><circle cx="256" cy="256" r="8"/><circle cx="280" cy="232" r="8"/><circle cx="304" cy="208" r="8"/></g></svg>