<?xml version="1.0"?>
<svg xmlns="http://www.w3.org/2000/svg" height="512px" viewBox="0 0 128 128" width="512px" class=""><g><g><path d="m6.5 49.1v9a110.281 110.281 0 0 1 18.124-1.5h51.543v-6h-51.543a110.172 110.172 0 0 1 -18.124-1.5z" fill="#dbca70" data-original="#DBCA70" class=""/><path d="m111.5 35.667c-9.47 12.25-25.33 14.94-35.78 14.94h-32.2a22.78 22.78 0 0 0 0 45.56h32.2a22.764 22.764 0 0 0 17.93-36.81 36.7 36.7 0 0 1 17.85 12.17h6v-35.86zm-35.78 54.5h-32.2a16.78 16.78 0 0 1 0-33.56h32.2a16.78 16.78 0 0 1 0 33.56z" fill="#f6e27d" data-original="#F6E27D" class=""/><path d="m114.5 31.833a3 3 0 0 0 -3 3v37.524a3 3 0 0 0 6 0v-37.524a3 3 0 0 0 -3-3z" fill="#de6246" data-original="#DE6246" class="active-path" data-old_color="#de6246" style="fill:#E0CA34"/><path d="m6.5 61.345a1.749 1.749 0 0 1 -1.75-1.745v-12a1.75 1.75 0 0 1 3.5 0v12a1.749 1.749 0 0 1 -1.75 1.745z" fill="#dbca70" data-original="#DBCA70" class=""/><g fill="#de6246"><path d="m49.857 73.775a1.75 1.75 0 0 1 -1.75-1.75v-30.555a1.75 1.75 0 0 1 3.5 0v30.555a1.749 1.749 0 0 1 -1.75 1.75z" data-original="#DE6246" class="active-path" data-old_color="#DE6246" style="fill:#E0CA34"/><path d="m59.565 73.775a1.75 1.75 0 0 1 -1.75-1.75v-30.555a1.75 1.75 0 0 1 3.5 0v30.555a1.749 1.749 0 0 1 -1.75 1.75z" data-original="#DE6246" class="active-path" data-old_color="#DE6246" style="fill:#E0CA34"/><path d="m69.274 73.775a1.75 1.75 0 0 1 -1.75-1.75v-30.555a1.75 1.75 0 0 1 3.5 0v30.555a1.749 1.749 0 0 1 -1.75 1.75z" data-original="#DE6246" class="active-path" data-old_color="#DE6246" style="fill:#E0CA34"/></g><g fill="#c3563e"><path d="m51.357 42.345h-3a1.75 1.75 0 0 1 0-3.5h3a1.75 1.75 0 0 1 0 3.5z" data-original="#C3563E" class="" style="fill:#E0DA98" data-old_color="#C3563E"/><path d="m61.065 42.345h-3a1.75 1.75 0 0 1 0-3.5h3a1.75 1.75 0 0 1 0 3.5z" data-original="#C3563E" class="" style="fill:#E0DA98" data-old_color="#C3563E"/><path d="m70.774 42.345h-3a1.75 1.75 0 0 1 0-3.5h3a1.75 1.75 0 0 1 0 3.5z" data-original="#C3563E" class="" style="fill:#E0DA98" data-old_color="#C3563E"/></g></g></g> </svg>
