<svg id="Capa_1" enable-background="new 0 0 493.945 493.945" height="512" viewBox="0 0 493.945 493.945" width="512" xmlns="http://www.w3.org/2000/svg"><path d="m70.686 477.913 87.059-116.079c8.514-11.356 17.826-22.097 27.86-32.131l-21.213-21.213-42.426 42.426-110.868 131.416c16.794 17.19 45.17 14.807 59.588-4.419z" fill="#803831"/><path d="m49.691 456.918 86.84-116.297c8.514-11.356 17.826-22.097 27.86-32.131-10.034 10.034-20.768 19.353-32.124 27.867l-116.651 87.49c-18.88 14.156-20.952 41.656-4.518 58.485 3.861 4.258 24.351-6.34 38.593-25.414z" fill="#aa4a41"/><path d="m491.749 23.56-306.144 306.143-21.213-21.213 306.246-306.246c2.949-2.949 7.737-2.926 10.658.052l10.504 10.709c2.88 2.937 2.857 7.646-.051 10.555z" fill="#ffe2df"/></svg>