<svg xmlns="http://www.w3.org/2000/svg" height="512" viewBox="0 -9 512.00015 512" width="512" class=""><g><path d="m476.574219 51.082031c-1.3125-3.257812-3.449219-6.351562-6.34375-9.191406-4.324219-4.238281-9.96875-7.503906-15.898438-9.191406l-3.375-.964844 25.734375-24.382813c.332032-.3125.710938-.664062 1.042969-.898437l.714844-.507813.855469.183594c.167968.035156.46875.105469.949218.25 10.199219 3.109375 19.0625 10.28125 24.328125 19.675782l.855469 1.523437-1.390625 1.050781c-8.84375 6.683594-16.945313 14.417969-24.082031 22.984375l-2.140625 2.570313zm0 0" fill="#939baa" data-original="#939BAA" class="" style="fill:#939BAA"></path><path d="m159.722656 373.808594c-4.351562-3.164063-9.398437-4.90625-14.207031-4.90625-2.480469 0-4.851563.464844-7.046875 1.378906l-1.269531.527344-17.855469-18.78125-1.902344-1.523438 1.609375-1.578125c101.15625-99.242187 185.894531-179.347656 266.679688-252.109375l1.953125-1.757812 1.175781 2.351562c1.988281 3.988282 4.925781 7.644532 7.261719 10.386719 2.925781 3.421875 6.238281 7.304687 10.695312 9.632813 2.957032 1.546874 6.480469 2.363281 10.195313 2.363281.183593 0 .371093-.007813.558593-.015625l5.386719-.160156-3.550781 3.558593c-34.988281 35.078125-70.605469 70.359375-105.855469 104.855469l-.136719.132812-.152343.101563c-.089844.0625-.179688.113281-.269531.164063 0 0 .035156-.027344.070312-.054688-.242188.183594-.40625.367188-.554688.601562l-.125.195313-.164062.160156c-49.277344 48.226563-99.726562 96.78125-149.945312 144.316407l-1.207032 1.140624zm1.386719-45.707032c-4.933594 0-10.367187 2.808594-13.835937 7.148438-3.632813 4.535156-4.601563 9.949219-2.664063 14.847656 1.832031 4.640625 6.410156 7.925782 11.140625 7.996094h.160156c3.125 0 6.449219-1.332031 9.613282-3.847656 2.878906-2.296875 4.957031-4.929688 6.183593-7.824219 1.441407-3.414063 1.582031-7.1875.382813-10.351563-1.671875-4.390624-4.890625-7.167968-9.0625-7.820312-.613282-.097656-1.261719-.148438-1.917969-.148438zm34.683594-33.898437c-4.921875 0-10.351563 2.804687-13.832031 7.152344-3.628907 4.53125-4.597657 9.941406-2.660157 14.84375 1.828125 4.628906 6.410157 7.917969 11.140625 7.996093h.160156c3.128907 0 6.453126-1.332031 9.609376-3.855468 2.875-2.285156 4.957031-4.917969 6.1875-7.816406 1.441406-3.421876 1.582031-7.191407.382812-10.347657-1.675781-4.394531-4.894531-7.171875-9.0625-7.828125-.621094-.097656-1.269531-.144531-1.925781-.144531zm31.535156-29.171875c-5 0-10.304687 2.742188-13.835937 7.152344-3.625 4.527344-4.59375 9.9375-2.660157 14.835937.902344 2.277344 2.46875 4.257813 4.515625 5.714844 2.039063 1.460937 4.328125 2.246094 6.621094 2.28125h.125l.050781.007813c3.15625-.011719 6.460938-1.34375 9.605469-3.851563 2.875-2.289063 4.957031-4.917969 6.1875-7.820313 1.441406-3.417968 1.582031-7.191406.382812-10.347656-1.675781-4.390625-4.894531-7.167968-9.0625-7.824218-.621093-.097657-1.273437-.148438-1.929687-.148438zm29.171875-27.988281c-4.929688 0-10.355469 2.804687-13.828125 7.148437-3.632813 4.53125-4.601563 9.941406-2.664063 14.847656 1.835938 4.632813 6.414063 7.917969 11.140626 7.984376l.15625.003906.042968.003906c3.136719-.015625 6.4375-1.347656 9.574219-3.851562 2.871094-2.289063 4.953125-4.917969 6.1875-7.820313 1.441406-3.417969 1.578125-7.191406.378906-10.347656-1.671875-4.390625-4.890625-7.171875-9.058593-7.824219-.625-.097656-1.273438-.144531-1.929688-.144531zm31.539062-29.960938c-5 0-10.304687 2.742188-13.839843 7.152344-3.621094 4.527344-4.589844 9.9375-2.660157 14.835937 1.832032 4.636719 6.410157 7.925782 11.140626 7.992188l.125.003906.054687.007813c3.152344-.011719 6.460937-1.34375 9.605469-3.855469 2.875-2.289062 4.953125-4.917969 6.171875-7.8125 1.453125-3.421875 1.59375-7.191406.394531-10.351562-1.675781-4.390626-4.890625-7.171876-9.0625-7.824219-.625-.101563-1.273438-.148438-1.929688-.148438zm29.113282-29.859375c-5.011719 0-10.320313 2.742188-13.851563 7.152344-3.628906 4.53125-4.601562 9.941406-2.664062 14.84375 1.832031 4.636719 6.414062 7.925781 11.140625 7.992188h.171875c3.125 0 6.453125-1.328126 9.613281-3.84375 2.882812-2.300782 4.960938-4.933594 6.171875-7.820313 1.449219-3.417969 1.59375-7.191406.394531-10.355469-1.671875-4.390625-4.890625-7.167968-9.058594-7.820312-.621093-.097656-1.265624-.148438-1.917968-.148438zm0 0" fill="#939baa" data-original="#939BAA" class="" style="fill:#939BAA"></path><path d="m115.78125 406.710938c-2.3125-.761719-4.644531-1.148438-6.921875-1.148438-2.160156 0-4.242187.351562-6.1875 1.046875l-1.195313.421875-.894531-.894531c-6.128906-6.140625-12.007812-12.628907-17.46875-19.285157l-1.15625-1.410156 1.296875-1.28125c5.058594-5 10.121094-9.992187 15.210938-15.003906l1.460937-1.433594 19.628907 20.878906c.039062.039063.089843.074219.132812.109376l1.203125.957031-.476563 1.34375c-1.113281 3.140625-1.789062 6.308593-2.011718 9.414062-.105469 1.460938-.105469 2.839844 0 4.234375l.234375 2.992188zm0 0" fill="#939baa" data-original="#939BAA" class="" style="fill:#939BAA"></path><path d="m31.871094 489.023438c-3.046875 0-5.894532-2.238282-8.519532-4.660157-5.070312-4.664062-9.824218-9.714843-14.125-15.019531-1.800781-2.210938-3.429687-4.578125-3.128906-6.851562.25-1.878907 1.769532-3.523438 3.582032-5.320313 18.3125-18.25 36.460937-36.28125 53.933593-53.589844l1.589844-1.578125 1.386719 1.757813c5.328125 6.757812 11 13.050781 16.859375 18.710937.101562.105469.222656.1875.421875.304688l1.523437.894531-.699219 1.621094c-1.679687 3.90625-2.671874 7.875-2.949218 11.800781-.304688 4.1875.21875 7.632812 1.601562 10.539062l.625 1.316407-1.0625 1c-13.636718 12.84375-28.265625 24.84375-43.480468 35.664062-2.5 1.78125-4.957032 3.382813-7.5 3.410157zm0 0" fill="#939baa" data-original="#939BAA" class="" style="fill:#939BAA"></path><g fill="#d8deec"><path d="m417.007812 115.746094c-3.035156 0-5.910156-.664063-8.3125-1.921875-3.726562-1.953125-6.621093-5.328125-9.417968-8.59375l-.066406-.078125c-5.175782-6.058594-10.191407-13.144532-8.128907-19.800782.847657-2.738281 2.8125-5.074218 5.097657-7.632812 7.648437-8.542969 15.78125-16.875 24.171874-24.773438 1.351563-1.28125 2.78125-2.734374 4.125-4.117187 5.066407-5.160156 11.292969-11.5 17.445313-12.886719 1.285156-.285156 2.667969-.433594 4.109375-.433594 7.222656 0 15.605469 3.648438 21.351562 9.289063 3.039063 2.96875 7.902344 9.101563 6.328126 16.75-.835938 4.089844-3.371094 7.71875-6.117188 11.386719-7.246094 9.679687-15.226562 18.972656-23.714844 27.613281-4.507812 4.585937-9.851562 9.734375-16.25 12.71875-3.472656 1.621094-7.144531 2.480469-10.621094 2.480469zm28.886719-61.941406c-2.117187 0-4.414062.511718-6.820312 1.523437-5.636719 2.355469-12.042969 7.625-17.582031 14.457031-5.105469 6.292969-8.511719 12.738282-8.890626 16.824219-.117187 1.234375-.171874 3.0625.664063 4.722656 1.203125 2.386719 3.738281 3.703125 7.144531 3.703125 1.132813 0 2.339844-.152344 3.59375-.457031 3.707032-.886719 11.15625-5.417969 17.710938-10.773437 5.847656-4.773438 13.132812-11.847657 14.636718-18.453126.824219-3.589843-.175781-6.648437-2.890624-8.855468-2.1875-1.785156-4.730469-2.691406-7.566407-2.691406zm0 0" data-original="#D8DEEC" class="" style="fill:#D8DEEC"></path><path d="m311.851562 203.152344c-3.136718-.054688-6.183593-2.28125-7.429687-5.421875-.464844-1.160157-.703125-2.375-.703125-3.605469 0-3.101562 1.492188-5.632812 2.746094-7.207031 2.75-3.425781 6.929687-5.632813 10.644531-5.632813.519531 0 .957031.035156 1.378906.109375 2.695313.414063 4.675781 2.183594 5.839844 5.25.832031 2.1875.714844 4.855469-.324219 7.316407-.957031 2.246093-2.675781 4.398437-4.980468 6.226562-2.46875 1.96875-4.859376 2.964844-7.105469 2.964844zm0 0" data-original="#D8DEEC" class="" style="fill:#D8DEEC"></path><path d="m290.621094 264.714844c-1.71875-.019532-2.777344-.070313-3.460938-.285156l-.8125-.253907-.378906-.765625c-.101562-.199218-.191406-.4375-.277344-.699218-.046875-.113282-.097656-.257813-.132812-.433594l-.207032-1.0625.777344-.757813c8.738282-8.488281 17.457032-16.996093 26.175782-25.515625l1.851562-1.808594 1.28125 2.25c1.203125 2.101563 1.710938 3.949219 1.554688 5.644532-.164063 1.835937-1.113282 3.609375-2.113282 5.25-3.816406 6.195312-9.09375 11.488281-15.273437 15.316406-3.457031 2.128906-6.28125 3.121094-8.890625 3.121094zm0 0" data-original="#D8DEEC" class="" style="fill:#D8DEEC"></path><path d="m282.742188 233.003906c-3.121094-.039062-6.175782-2.269531-7.421876-5.425781-.457031-1.160156-.691406-2.367187-.691406-3.582031 0-3.132813 1.496094-5.65625 2.75-7.222656 2.738282-3.425782 6.914063-5.640626 10.628906-5.640626.433594 0 .863282.035157 1.320313.105469 2.765625.4375 4.746094 2.210938 5.902344 5.269531.828125 2.179688.707031 4.84375-.328125 7.3125-.953125 2.234376-2.671875 4.386719-4.972656 6.226563-1.683594 1.351563-4.277344 2.957031-7.058594 2.957031zm0 0" data-original="#D8DEEC" class="" style="fill:#D8DEEC"></path><path d="m247.113281 310.441406c-1.566406-.082031-3.070312-1.238281-4.664062-2.460937-.375-.300781-.757813-.589844-1.152344-.871094l-1.957031-1.398437 1.730468-1.667969c8.339844-8.027344 16.667969-16.058594 24.988282-24.105469l1.765625-1.710938 1.316406 2.078126c1.089844 1.726562 1.621094 3.949218 1.484375 6.253906-.144531 2.703125-1.167969 5.660156-3.039062 8.78125-3.910157 6.542968-10.265626 11.8125-17.433594 14.460937-.914063.335938-1.878906.648438-2.785156.648438-.085938 0-.171876-.003907-.253907-.007813zm0 0" data-original="#D8DEEC" class="" style="fill:#D8DEEC"></path><path d="m251.238281 262.964844c-3.164062-.042969-6.21875-2.273438-7.449219-5.433594-1.390624-3.503906-.644531-7.445312 2.050782-10.800781 2.734375-3.421875 6.914062-5.632813 10.640625-5.632813.449219 0 .894531.035156 1.316406.101563 2.757813.433593 4.738281 2.207031 5.894531 5.265625.832032 2.160156.714844 4.832031-.328125 7.3125-.9375 2.222656-2.65625 4.375-4.972656 6.226562-1.707031 1.355469-4.3125 2.960938-7.070313 2.960938zm0 0" data-original="#D8DEEC" class="" style="fill:#D8DEEC"></path><path d="m218.757812 244.183594c-3-2.4375-3.386718-7.183594-2.21875-10.605469 1.445313-4.277344 4.886719-7.796875 8-10.761719 2.15625-2.0625 4.699219-4.394531 7.609376-5.964844 2.246093-1.21875 4.582031-1.867187 6.75-1.867187.601562 0 1.195312.050781 1.757812.148437 1.96875.359376 3.832031 1.363282 5.25 2.832032l1.402344 1.453125-1.464844 1.386719c-8.140625 7.714843-16.363281 15.542968-24.441406 23.273437l-1.277344 1.222656zm0 0" data-original="#D8DEEC" class="" style="fill:#D8DEEC"></path><path d="m222.058594 290.953125c-3.152344-.042969-6.203125-2.273437-7.449219-5.425781-1.382813-3.515625-.632813-7.453125 2.0625-10.808594 2.734375-3.417969 6.910156-5.632812 10.636719-5.632812.453125 0 .894531.035156 1.320312.101562 2.753906.4375 4.734375 2.210938 5.890625 5.269531.828125 2.179688.710938 4.84375-.324219 7.3125-.957031 2.234375-2.675781 4.386719-4.976562 6.226563-2.476562 1.964844-4.855469 2.957031-7.078125 2.957031zm0 0" data-original="#D8DEEC" class="" style="fill:#D8DEEC"></path><path d="m167.476562 382.984375c-.058593-.117187-.109374-.234375-.160156-.355469-.042968-.09375-.082031-.1875-.128906-.28125-.570312-1.109375-1.273438-2.222656-2.101562-3.316406l-1.082032-1.429688 1.300782-1.230468c13.433593-12.71875 23.710937-22.484375 33.324218-31.65625l1.859375-1.773438 1.261719 2.238282c1.097656 1.945312 2.054688 3.898437 2.855469 5.800781.308593.734375.453125 1.171875.511719 1.554687l.09375.625-.28125.566406c-.273438.546876-.777344 1.097657-1.929688 2.109376-10.308594 9.023437-21.21875 18.378906-32.433594 27.816406l-1.976562 1.667968zm0 0" data-original="#D8DEEC" class="" style="fill:#D8DEEC"></path><path d="m190.519531 320.125c-3.15625-.042969-6.207031-2.277344-7.441406-5.433594-1.898437-4.785156.46875-8.816406 2.050781-10.796875 2.746094-3.425781 6.925782-5.636719 10.640625-5.636719.449219 0 .894531.035157 1.316407.101563 2.746093.433594 4.726562 2.199219 5.902343 5.257813.832031 2.195312.710938 4.863281-.335937 7.328124-.941406 2.222657-2.65625 4.378907-4.964844 6.21875-2.464844 1.964844-4.863281 2.957032-7.132812 2.957032h-.035157zm0 0" data-original="#D8DEEC" class="" style="fill:#D8DEEC"></path><path d="m171.839844 289.34375c-.128906-.101562-.257813-.183594-.40625-.25-2.976563-1.300781-3.796875-5.730469-2.65625-8.890625 1.359375-3.761719 4.71875-6.714844 7.683594-9.320313l7.746093-6.820312c2.855469-2.5 5.90625-4.933594 9.09375-4.933594.113281 0 .226563 0 .335938.007813 2.171875.128906 4.195312 1.425781 5.890625 2.679687l1.90625 1.40625-1.710938 1.644532c-8.445312 8.117187-16.855468 16.234374-25.242187 24.351562l-1.265625 1.226562zm0 0" data-original="#D8DEEC" class="" style="fill:#D8DEEC"></path><path d="m155.804688 354.035156c-3.132813-.054687-6.183594-2.289062-7.417969-5.429687-.460938-1.15625-.695313-2.371094-.695313-3.601563 0-3.101562 1.492188-5.628906 2.742188-7.203125 2.742187-3.425781 6.914062-5.636719 10.636718-5.636719.511719 0 .960938.039063 1.378907.113282 2.695312.414062 4.675781 2.183594 5.839843 5.246094.832032 2.1875.714844 4.855468-.324218 7.316406-.9375 2.230468-2.660156 4.382812-4.980469 6.230468-2.453125 1.964844-4.828125 2.964844-7.050781 2.964844zm0 0" data-original="#D8DEEC" class="" style="fill:#D8DEEC"></path><path d="m137.601562 416.828125c-.8125 0-1.625-.046875-2.40625-.136719-5.117187-.597656-9.632812-3.511718-11.5-7.425781-1.078124-2.238281-1.484374-5.039063-1.238281-8.550781.375-5.347656 2.171875-10.707032 5.203125-15.5 3-4.734375 7.074219-8.566406 11.480469-10.789063 1.941406-.964843 4.078125-1.453125 6.359375-1.453125 7.039062 0 14.804688 4.816406 18.0625 11.203125 4.003906 7.863281 2.125 18.296875-4.367188 24.269531-2.277343 2.089844-5.179687 3.832032-9.136718 5.484376-4.648438 1.949218-8.722656 2.898437-12.457032 2.898437zm0 0" data-original="#D8DEEC" class="" style="fill:#D8DEEC"></path><path d="m102.824219 364.867188 1.394531-1.371094c3.027344-2.980469 6.078125-5.980469 9.128906-8.96875l1.671875-1.640625 1.394531 1.957031 17.210938 18.105469-1.667969 1.363281c-3.023437 2.46875-5.796875 5.691406-8.023437 9.324219l-1.367188 2.234375zm0 0" data-original="#D8DEEC" class="" style="fill:#D8DEEC"></path><path d="m100.925781 453.496094c-.8125 0-1.613281-.042969-2.390625-.136719-5.132812-.609375-9.644531-3.523437-11.503906-7.425781-1.074219-2.25-1.480469-5.050782-1.238281-8.558594.769531-10.917969 7.628906-21.722656 16.6875-26.277344 1.933593-.972656 4.066406-1.464844 6.351562-1.464844 7.039063 0 14.804688 4.816407 18.058594 11.203126 4.015625 7.863281 2.136719 18.296874-4.367187 24.273437-2.242188 2.070313-5.140626 3.816406-9.117188 5.488281-4.675781 1.953125-8.757812 2.898438-12.480469 2.898438zm0 0" data-original="#D8DEEC" class="" style="fill:#D8DEEC"></path><path d="m52.0625 406.285156c-1.695312-1.976562-3.949219-3.578125-6.519531-4.632812l-2.851563-1.167969 2.226563-2.125c22.722656-21.714844 45.53125-43.0625 67.792969-63.449219 1.601562-1.460937 3.507812-3.203125 5.566406-3.582031.3125-.058594.636718-.089844.964844-.089844 1.851562 0 3.777343.890625 6.0625 2.800781l1.695312 1.417969-1.582031 1.546875c-22.152344 21.675782-45.1875 44.375-70.429688 69.398438l-1.527343 1.515625zm0 0" data-original="#D8DEEC" class="" style="fill:#D8DEEC"></path><path d="m85.449219 418.722656c-5.78125-5.664062-11.25-11.789062-16.25-18.199218l-1.09375-1.40625 1.269531-1.25c1.847656-1.816407 3.683594-3.636719 5.527344-5.460938l4.148437-4.101562 1.390625 1.6875c4.921875 5.960937 10.226563 11.839843 15.753906 17.46875l1.582032 1.609374-1.789063 1.378907c-2.804687 2.160156-5.324219 4.84375-7.492187 7.980469l-1.351563 1.953124zm0 0" data-original="#D8DEEC" class="" style="fill:#D8DEEC"></path><path d="m21.066406 436.285156c-3.726562-8.296875-2.179687-18.730468 3.761719-25.367187 3.46875-3.867188 8.078125-6.265625 12.644531-6.578125.324219-.023438.648438-.035156.976563-.035156 4.363281 0 8.566406 1.988281 10.96875 5.1875l1.046875 1.394531-1.238282 1.226562c-6.125 6.078125-12.222656 12.136719-18.296874 18.175781l-8.679688 8.632813zm0 0" data-original="#D8DEEC" class="" style="fill:#D8DEEC"></path></g><path d="m420.441406 90.953125c-1.074218 0-2.515625-.179687-3.273437-1.039063l-.269531-.308593-.128907-.390625c-.105469-.289063-.253906-.890625-.128906-2.226563.558594-5.964843 12.273437-23.003906 23.996094-27.917969 1.886719-.792968 3.648437-1.191406 5.234375-1.191406 2.855468 0 4.425781 1.277344 5.015625 1.757813 1.503906 1.210937 1.980469 2.742187 1.503906 4.8125-1.304687 5.742187-8.871094 12.617187-13.261719 16.207031-6.148437 5.019531-12.902344 9.214844-16.0625 9.972656-.910156.214844-1.792968.324219-2.625.324219zm0 0" fill="#5b5d6d" data-original="#5B5D6D" class="" style="fill:#5B5D6D"></path><path d="m454.722656 54.941406c-3.082031-2.515625-8.4375-4.8125-16.425781-1.464844-5.925781 2.484376-12.617187 7.96875-18.355469 15.042969-5.421875 6.6875-8.910156 13.378907-9.335937 17.902344-.136719 1.480469-.199219 3.691406.871093 5.808594 1.566407 3.105469 4.832032 4.800781 8.933594 4.800781 1.28125 0 2.644532-.167969 4.0625-.507812 4.011719-.957032 11.621094-5.554688 18.511719-11.175782 6.085937-4.964844 13.683594-12.386718 15.320313-19.554687.984374-4.3125-.289063-8.167969-3.582032-10.851563zm-4.28125 9.058594c-1.984375 8.707031-22.277344 23.351562-27.84375 24.683594-2.230468.53125-3.707031.160156-3.925781-.085938-.015625-.03125-.140625-.328125-.039063-1.421875.511719-5.433593 11.855469-21.683593 22.78125-26.257812 5.203126-2.183594 7.46875-.335938 8.214844.273437.777344.632813 1.160156 1.296875.8125 2.808594zm0 0" data-original="#000000" class="active-path" style="fill:#939BAA" data-old_color="#000000"></path><path d="m511.640625 26.59375c-5.589844-12.332031-16.65625-22.054688-29.605469-26.011719-1.46875-.449219-3.078125-.808593-4.882812-.410156-2.195313.480469-3.660156 1.863281-4.625 2.78125l-28.027344 26.546875c-1.34375.074219-2.652344.246094-3.910156.53125-7.921875 1.785156-14.859375 8.863281-20.4375 14.554688-1.402344 1.4375-2.734375 2.789062-3.960938 3.945312-8.503906 8.003906-16.753906 16.464844-24.527344 25.144531-2.671874 2.984375-5.171874 5.988281-6.375 9.882813-.667968 2.160156-.851562 4.277344-.695312 6.355468-.332031.160157-.65625.351563-.945312.613282-45.066407 40.550781-89.5625 81.828125-133.335938 123.28125-2.285156-2.394532-5.320312-4.058594-8.582031-4.644532-5.046875-.90625-9.574219.785157-12.476563 2.359376-3.535156 1.917968-6.445312 4.570312-8.894531 6.902343-3.636719 3.464844-7.671875 7.628907-9.5625 13.199219-2.089844 6.148438-.6875 12.695312 3.367187 16.59375-3.324218 3.179688-6.625 6.359375-9.9375 9.542969-2.558593-2-5.949218-4.429688-10.230468-4.679688-6.058594-.363281-10.898438 3.890625-13.785156 6.425781l-7.707032 6.773438c-3.355468 2.945312-7.527344 6.613281-9.425781 11.855469-1.863281 5.144531-.726563 12.011719 4.035156 15.421875-12.511719 12.136718-24.9375 24.25-37.300781 36.34375-3.042969-2.6875-7.429688-5.507813-12.640625-4.539063-3.789063.707031-6.546875 3.230469-8.558594 5.074219-24.292969 22.253906-48.65625 45.085938-72.425781 67.863281-.023438.023438-.042969.050781-.066406.078125-5.816406.660156-11.53125 3.71875-15.808594 8.496094-8.328125 9.308594-9.742188 23.796875-3.417969 34.554688-3.835937 3.816406-7.683593 7.648437-11.5 11.449218-1.894531 1.886719-4.753906 4.738282-5.300781 8.789063-.703125 5.183593 2.765625 9.449219 4.429688 11.5 4.507812 5.550781 9.460937 10.816406 14.726562 15.660156 3.367188 3.097656 7.496094 6.253906 12.613281 6.253906h.144531c4.28125-.050781 7.75-2.265625 10.9375-4.53125 15.296876-10.878906 29.980469-22.914062 43.664063-35.765625 3.0625 2.445313 6.960937 4.089844 11.210937 4.589844 1.023438.121094 2.058594.179688 3.113282.179688 4.53125 0 9.40625-1.113282 14.800781-3.367188 4.628906-1.9375 8.089844-4.039062 10.894531-6.617188 7.222656-6.640624 10.027344-17.523437 7.417969-26.921874.144531.019531.289063.046874.4375.0625 1.019531.121093 2.058594.183593 3.113281.183593 4.53125-.003906 9.40625-1.113281 14.800782-3.367187 4.628906-1.9375 8.089843-4.039063 10.894531-6.617188 6.023437-5.542968 8.96875-14.039062 8.265625-22.164062 11.871094-9.960938 23.78125-20.160156 35.429687-30.34375 1.355469-1.183594 3.875-3.386719 4.195313-6.800782.199218-2.125-.574219-3.96875-.988282-4.960937-1.183593-2.832031-2.59375-5.585937-4.1875-8.214844 10.171876-9.714843 20.339844-19.453125 30.5-29.222656.710938.410156 1.46875.980469 2.257813 1.585937 2.039063 1.5625 4.574219 3.507813 8.03125 3.703126.183594.011718.371094.015624.550781.015624 1.84375 0 3.5-.511718 4.898438-1.027343 8.558594-3.152344 15.851562-9.199219 20.535156-17.023438 2.414062-4.035156 3.691406-7.816406 3.898438-11.566406.234374-4.175781-1.023438-8.214844-3.402344-11.183594 2.757812-2.671875 5.515625-5.339843 8.269531-8.015625 2.390625 2.96875 6.089844 3.039063 8.964844 3.082032.085937.003906.164062.003906.25.003906 4.925781 0 9.210937-2.296875 12.023437-4.035156 6.980469-4.316407 12.941406-10.292969 17.246094-17.285157 1.328125-2.160156 2.726562-4.789062 3-7.910156.378906-4.296875-1.457031-8.019531-3.425781-10.96875 37.496093-36.714844 74.726562-73.625 111.503906-110.554687.648437-.652344 1.015625-1.472657 1.125-2.320313 6.371094-3.445313 11.5625-8.425781 15.96875-12.917969 8.664063-8.824218 16.820313-18.320312 24.238281-28.21875 3.042969-4.0625 6.109375-8.472656 7.203125-13.8125.132813-.636718.222657-1.277344.292969-1.917968.457031-.257813.878906-.589844 1.214844-1.03125 8.300781-10.804688 18.113281-20.320313 29.167968-28.28125 1.5625-1.113282 2.113282-3.179688 1.320313-4.929688zm-293.210937 207.628906c1.304687-3.84375 4.550781-7.152344 7.492187-9.957031 2.070313-1.976563 4.507813-4.207031 7.171875-5.652344 2.507812-1.359375 5.070312-1.894531 7.214844-1.511719 1.554687.277344 3.046875 1.101563 4.15625 2.25-8.175782 7.757813-16.324219 15.515626-24.445313 23.277344-2.261719-1.835937-2.53125-5.644531-1.589843-8.40625zm-46.167969 53.054688c-1.90625-.835938-2.425781-4.121094-1.601563-6.394532 1.195313-3.296874 4.367188-6.085937 7.164063-8.542968l7.710937-6.773438c2.644532-2.328125 5.433594-4.574218 7.992188-4.4375 1.511718.089844 3.097656 1.027344 4.8125 2.289063-8.449219 8.125-16.863282 16.246093-25.246094 24.359375-.253906-.191406-.527344-.367188-.832031-.5zm-58.203125 49.105468c1.367187-1.25 3.066406-2.808593 4.585937-3.089843 1.671875-.3125 3.542969.746093 5.371094 2.277343-23.78125 23.285157-47.273437 46.457032-70.433594 69.414063-1.933593-2.253906-4.453125-4.027344-7.277343-5.1875 22.289062-21.296875 45.046874-42.609375 67.753906-63.414063zm.835937 19.769532 15.800781 16.609375c-3.285156 2.683593-6.15625 6.058593-8.464843 9.832031l-16.613281-17.667969c3.035156-2.984375 6.082031-5.976562 9.128906-8.96875.050781.0625.09375.132813.148437.195313zm-28.046875 61.144531c-5.738281-5.617187-11.128906-11.664063-16.0625-18 2.707032-2.679687 5.398438-5.347656 8.113282-8.03125 5.023437 6.074219 10.339843 11.972656 15.867187 17.597656-2.992187 2.3125-5.675781 5.1875-7.917969 8.433594zm15.148438-12.574219c-6.066406-6.074218-11.882813-12.503906-17.335938-19.140625 5.058594-4.996093 10.117188-9.992187 15.207032-15l18.234374 19.390625c.132813.140625.28125.253906.429688.371094-1.144531 3.222656-1.886719 6.578125-2.125 9.941406-.113281 1.605469-.105469 3.109375.007812 4.53125-4.675781-1.539062-9.71875-1.769531-14.417968-.09375zm-75.671875 7.53125c3.113281-3.480468 7.226562-5.640625 11.28125-5.921875 3.996093-.285156 8.039062 1.472657 10.210937 4.367188-8.355468 8.289062-16.660156 16.542969-24.929687 24.769531-3.355469-7.488281-2.042969-17.089844 3.4375-23.214844zm11.945312 71.726563c-2.234375 1.589843-4.402343 3.019531-6.355469 3.042969-.015624 0-.035156 0-.050781 0-2.34375 0-4.824219-1.984376-7.15625-4.128907-4.976562-4.578125-9.660156-9.558593-13.925781-14.808593-1.449219-1.785157-2.902344-3.8125-2.699219-5.335938.183594-1.347656 1.8125-2.972656 3.003907-4.160156 17.761718-17.699219 35.765624-35.589844 53.9375-53.585938 5.242187 6.664063 10.953124 13.027344 17.039062 18.914063.242188.234375.511719.417969.792969.582031-1.710938 3.96875-2.808594 8.203125-3.109375 12.449219-.320313 4.550781.265625 8.328125 1.792968 11.546875-13.546874 12.761718-28.101562 24.699218-43.269531 35.484375zm82.902344-40.34375c-2.09375 1.925781-4.808594 3.550781-8.546875 5.113281-5.335938 2.234375-9.871094 3.089844-13.859375 2.621094-4.453125-.527344-8.351563-3-9.929687-6.300782-.929688-1.9375-1.269532-4.40625-1.046876-7.550781.722657-10.253906 7.136719-20.386719 15.59375-24.640625 1.707032-.855468 3.558594-1.242187 5.449219-1.242187 6.515625 0 13.460938 4.574219 16.28125 10.105469 3.613281 7.09375 1.921875 16.507812-3.941406 21.894531zm36.664063-36.660157c-2.09375 1.925782-4.808594 3.550782-8.546876 5.113282-5.339843 2.230468-9.871093 3.085937-13.859374 2.617187-4.453126-.523437-8.351563-2.996093-9.929688-6.296875-.929688-1.9375-1.269531-4.410156-1.050781-7.554687.726562-10.253907 7.140625-20.382813 15.597656-24.636719 1.707031-.855469 3.558594-1.242188 5.449219-1.242188 6.515625 0 13.460937 4.574219 16.277344 10.105469 3.617187 7.09375 1.921874 16.503907-3.9375 21.894531zm44.921874-55.222656c.21875.523438.347657.882813.386719 1.074219-.148437.28125-.640625.789063-1.464843 1.507813-10.65625 9.316406-21.535157 18.640624-32.398438 27.792968-.109375-.234375-.207031-.476562-.320312-.707031-.636719-1.25-1.40625-2.453125-2.277344-3.597656 11.109375-10.519531 22.222656-21.074219 33.328125-31.664063 1.019531 1.8125 1.945312 3.679688 2.746093 5.59375zm65.875-65.304687c-.132812 2.375-1.066406 5.023437-2.769531 7.871093-3.6875 6.160157-9.664062 11.117188-16.402343 13.597657-.761719.28125-1.625.570312-2.207032.53125-.976562-.058594-2.238281-1.027344-3.578125-2.054688-.390625-.296875-.792969-.605469-1.214843-.914062 8.335937-8.023438 16.667968-16.058594 24.984374-24.109375.859376 1.367187 1.292969 3.167968 1.1875 5.078125zm46.371094-45.605469c-.128906 1.449219-1 3.035156-1.839844 4.394531-3.644531 5.925781-8.699218 10.992188-14.617187 14.652344-3.175781 1.964844-5.695313 2.84375-7.90625 2.828125-.957031-.015625-2.367187-.039062-2.882813-.195312-.042968-.082032-.109374-.238282-.1875-.496094-.011718-.046875-.039062-.085938-.054687-.132813 8.738281-8.496093 17.464844-17.003906 26.179687-25.523437.878907 1.546875 1.433594 3.046875 1.308594 4.472656zm-2.859375-14.234375c-.117187.070313-.238281.128906-.347656.210937-.402344.304688-.722656.679688-.972656 1.082032-49.671875 48.601562-99.792969 96.84375-149.925781 144.292968-6.636719-4.832031-15.460938-6.980468-23.195313-3.765624l-16.964844-17.835938c-.089843-.09375-.191406-.160156-.285156-.246094 85.539063-83.914062 174.921875-169.46875 266.617187-252.042968 1.921876 3.847656 4.695313 7.464843 7.53125 10.785156 3.039063 3.5625 6.488282 7.601562 11.289063 10.109375 3.3125 1.730469 7.125 2.59375 11.117187 2.59375.328126 0 .652344-.015625.980469-.03125-34.941406 35.027343-70.273437 70.03125-105.84375 104.847656zm159.605469-165.46875c-.761719 3.707031-3.160156 7.128906-5.757812 10.597656-7.203126 9.613281-15.125 18.832031-23.539063 27.40625-4.382813 4.460938-9.566406 9.460938-15.675781 12.3125-6.050782 2.824219-12.464844 3.046875-17.152344.597657-3.417969-1.789063-6.199219-5.046876-8.890625-8.199219-4.824219-5.644531-9.515625-12.191407-7.742187-17.910157.726562-2.347656 2.550781-4.511718 4.679687-6.890624 7.617187-8.507813 15.710937-16.804688 24.046875-24.652344 1.34375-1.265625 2.726562-2.679688 4.195312-4.171875 4.832032-4.933594 10.84375-11.070313 16.445313-12.332031 7.132813-1.605469 17.070313 1.894531 23.621094 8.324218 2.746093 2.691406 7.148437 8.210938 5.769531 14.917969zm6.679688-10.804687c-1.402344-3.46875-3.675782-6.808594-6.800782-9.871094-4.691406-4.601563-10.679687-7.964844-16.75-9.691406l23.195313-21.96875c.199219-.1875.578125-.546876.816406-.71875.140625.023437.382813.085937.789063.207031 9.734374 2.976562 18.191406 9.871093 23.15625 18.742187-9.007813 6.808594-17.183594 14.628906-24.40625 23.300782zm0 0" data-original="#000000" class="active-path" style="fill:#939BAA" data-old_color="#000000"></path><path d="m319.378906 175.394531c-6.078125-.949219-13.167968 2.152344-17.640625 7.730469-4.085937 5.105469-5.164062 11.238281-2.957031 16.828125 2.121094 5.367187 7.453125 9.175781 12.96875 9.257813.066406 0 .128906.003906.195312.003906 3.589844 0 7.34375-1.480469 10.859376-4.285156 3.140624-2.503907 5.421874-5.398438 6.777343-8.605469 1.644531-3.890625 1.796875-8.207031.410157-11.835938-1.933594-5.09375-5.703126-8.324219-10.613282-9.09375zm2.777344 17.789063c-.8125 1.929687-2.328125 3.808594-4.375 5.441406-1.46875 1.171875-3.667969 2.550781-5.910156 2.527344-2.300782-.035156-4.652344-1.785156-5.589844-4.160156-1.527344-3.867188.441406-7.191407 1.753906-8.824219 2.363282-2.953125 6.027344-4.882813 9.074219-4.882813.347656 0 .691406.023438 1.019531.074219 2.011719.316406 3.429688 1.625 4.332032 3.996094.648437 1.710937.539062 3.835937-.304688 5.828125zm0 0" data-original="#000000" class="active-path" style="fill:#939BAA" data-old_color="#000000"></path><path d="m290.28125 205.25c-6.085938-.953125-13.171875 2.152344-17.636719 7.734375-4.089843 5.101563-5.167969 11.234375-2.960937 16.824219 2.121094 5.367187 7.453125 9.175781 12.96875 9.261718h.195312c3.589844 0 7.34375-1.480468 10.863282-4.285156 3.140624-2.503906 5.417968-5.402344 6.773437-8.605468 1.644531-3.890626 1.796875-8.203126.414063-11.839844-1.9375-5.089844-5.707032-8.320313-10.617188-9.089844zm2.777344 17.789062c-.816406 1.925782-2.328125 3.808594-4.375 5.441407-1.46875 1.171875-3.707032 2.5625-5.910156 2.527343-2.300782-.035156-4.652344-1.785156-5.589844-4.160156 0-.003906 0-.003906 0-.003906-1.527344-3.863281.441406-7.1875 1.753906-8.820312 2.363281-2.953126 6.023438-4.886719 9.074219-4.886719.347656 0 .6875.027343 1.015625.078125 2.015625.316406 3.433594 1.625 4.332031 3.996094.652344 1.710937.542969 3.835937-.300781 5.828124zm0 0" data-original="#000000" class="active-path" style="fill:#939BAA" data-old_color="#000000"></path><path d="m258.742188 235.210938c-6.078126-.957032-13.167969 2.152343-17.636719 7.730468-4.089844 5.105469-5.167969 11.238282-2.960938 16.828125 2.121094 5.367188 7.457031 9.175781 12.972657 9.257813h.195312c3.589844 0 7.339844-1.476563 10.859375-4.28125 3.140625-2.503906 5.421875-5.402344 6.773437-8.605469 1.648438-3.890625 1.796876-8.207031.414063-11.839844-1.9375-5.089843-5.707031-8.320312-10.617187-9.089843zm2.777343 17.789062c-.8125 1.925781-2.324219 3.808594-4.375 5.441406-1.449219 1.15625-3.628906 2.523438-5.828125 2.523438-.023437 0-.050781 0-.078125 0-2.300781-.03125-4.652343-1.78125-5.589843-4.160156-1.527344-3.863282.441406-7.1875 1.753906-8.820313 2.632812-3.292969 6.878906-5.3125 10.089844-4.808594 2.015624.316407 3.433593 1.621094 4.332031 3.996094.652343 1.707031.539062 3.832031-.304688 5.828125zm0 0" data-original="#000000" class="active-path" style="fill:#939BAA" data-old_color="#000000"></path><path d="m229.570312 263.199219c-6.078124-.953125-13.167968 2.152343-17.636718 7.730469-4.085938 5.105468-5.167969 11.238281-2.960938 16.828124 2.125 5.371094 7.457032 9.175782 12.972656 9.257813.0625.003906.128907.003906.191407.003906 3.589843 0 7.34375-1.480469 10.863281-4.285156 3.140625-2.503906 5.417969-5.398437 6.773438-8.605469 1.644531-3.890625 1.796874-8.203125.414062-11.835937-1.9375-5.09375-5.707031-8.324219-10.617188-9.09375zm2.777344 17.792969c-.8125 1.925781-2.328125 3.804687-4.375 5.4375-1.449218 1.15625-3.632812 2.527343-5.832031 2.527343-.023437 0-.050781 0-.078125 0-2.300781-.035156-4.652344-1.785156-5.589844-4.160156-1.527344-3.867187.445313-7.1875 1.753906-8.824219 2.632813-3.289062 6.882813-5.3125 10.09375-4.808594 2.011719.316407 3.429688 1.625 4.332032 3.996094.652344 1.710938.539062 3.835938-.304688 5.832032zm0 0" data-original="#000000" class="active-path" style="fill:#939BAA" data-old_color="#000000"></path><path d="m198.035156 292.371094c-6.078125-.957032-13.171875 2.152344-17.640625 7.730468-4.085937 5.105469-5.164062 11.238282-2.957031 16.828126 2.121094 5.367187 7.453125 9.175781 12.96875 9.261718h.195312c3.589844 0 7.339844-1.480468 10.859376-4.285156 3.144531-2.503906 5.421874-5.402344 6.777343-8.605469 1.644531-3.886719 1.792969-8.203125.410157-11.835937-1.933594-5.09375-5.707032-8.324219-10.613282-9.09375zm2.777344 17.792968c-.816406 1.925782-2.328125 3.804688-4.378906 5.4375-1.464844 1.171876-3.640625 2.535157-5.90625 2.527344-2.300782-.035156-4.652344-1.785156-5.59375-4.160156-1.527344-3.867188.445312-7.1875 1.753906-8.824219 2.636719-3.289062 6.882812-5.3125 10.09375-4.808593 2.011719.316406 3.429688 1.625 4.332031 3.996093.652344 1.710938.542969 3.835938-.300781 5.832031zm0 0" data-original="#000000" class="active-path" style="fill:#939BAA" data-old_color="#000000"></path><path d="m163.34375 326.273438c-6.085938-.953126-13.171875 2.152343-17.636719 7.734374-4.089843 5.105469-5.167969 11.238282-2.960937 16.824219 2.121094 5.371094 7.453125 9.175781 12.96875 9.261719h.195312c3.589844 0 7.34375-1.480469 10.859375-4.285156 3.140625-2.503906 5.421875-5.398438 6.777344-8.605469 1.644531-3.886719 1.792969-8.203125.410156-11.835937-1.933593-5.09375-5.703125-8.320313-10.613281-9.09375zm2.777344 17.792968c-.816406 1.925782-2.328125 3.804688-4.378906 5.441406-1.464844 1.167969-3.667969 2.566407-5.90625 2.523438-2.300782-.035156-4.652344-1.785156-5.59375-4.160156-1.523438-3.863282.445312-7.1875 1.757812-8.824219 2.363281-2.953125 6.023438-4.882813 9.074219-4.882813.347656 0 .6875.027344 1.015625.078126 2.015625.316406 3.429687 1.621093 4.332031 3.996093.652344 1.707031.542969 3.832031-.300781 5.828125zm0 0" data-original="#000000" class="active-path" style="fill:#939BAA" data-old_color="#000000"></path></g> </svg>