<svg id="Capa_1" enable-background="new 0 0 512 512" height="512" viewBox="0 0 512 512" width="512" xmlns="http://www.w3.org/2000/svg"><path d="m504.267 92.249c-1.978 0-3.958-.755-5.468-2.265l-76.784-76.783c-3.02-3.02-3.02-7.916 0-10.936 3.021-3.02 7.916-3.02 10.937 0l76.784 76.783c3.02 3.019 3.02 7.916 0 10.935-1.511 1.511-3.491 2.266-5.469 2.266z" fill="#563e2f"/><path d="m483.276 105.901c-1.979 0-3.958-.755-5.468-2.265l-69.445-69.445c-3.02-3.02-3.02-7.916 0-10.935 3.021-3.02 7.916-3.02 10.936 0l69.445 69.445c3.02 3.02 3.02 7.916 0 10.936-1.51 1.509-3.49 2.264-5.468 2.264z" fill="#563e2f"/><path d="m461.368 118.502c-1.979 0-3.958-.755-5.468-2.265l-60.138-60.138c-3.02-3.02-3.02-7.916 0-10.936 3.022-3.021 7.917-3.02 10.937 0l60.138 60.138c3.02 3.02 3.02 7.916 0 10.936-1.511 1.51-3.491 2.265-5.469 2.265z" fill="#563e2f"/><path d="m439.816 108.304 60.54-38.652c10.029-6.403 13.847-19.239 8.833-30.03-.073-.156-.146-.312-.221-.47-7.509-15.729 8.688-21.779-2.827-33.294-11.385-11.385-17.565 4.682-33.294-2.827-.157-.075-.314-.149-.47-.221-10.791-5.014-23.627-1.196-30.03 8.833l-38.652 60.541z" fill="#99573d"/><path d="m509.19 39.621c-.073-.156-.146-.312-.221-.47-7.509-15.729 8.688-21.778-2.827-33.294-3.64-3.64-6.747-4.468-9.805-4.164-1.122 8.754-11.741 18.099-6.165 29.781.075.157 0 0 .072.156 5.014 10.791 1.196 23.627-8.833 30.03l-54.718 33.52 13.123 13.123 60.54-38.652c10.03-6.402 13.848-19.239 8.834-30.03z" fill="#894c37"/><path d="m57.719 454.28c41.546 41.546 112.796 86.871 179.9 33.301 44.947-35.882 33.94-72.835 46.172-102.405 12.232-29.569 32.635-27.065 62.496-55.681 37.366-35.808 37.851-94.732-15.6-148.183s-112.376-52.966-148.183-15.6c-28.616 29.861-26.112 50.263-55.681 62.496-29.569 12.232-66.523 1.225-102.404 46.172-53.571 67.104-8.246 138.354 33.3 179.9z" fill="#fcc472"/><path d="m283.792 385.176c12.232-29.569 32.635-27.065 62.496-55.681 37.366-35.808 37.851-94.732-15.6-148.183-2.231-2.231-4.472-4.359-6.72-6.403 46.934 51.61 45.003 107.151 9.197 141.464-29.861 28.616-50.263 26.112-62.496 55.681-12.232 29.569-1.225 66.523-46.172 102.405-63.64 50.805-131.004 12.662-173.228-26.85 2.151 2.299 4.306 4.527 6.451 6.672 41.546 41.546 112.796 86.871 179.9 33.301 44.947-35.883 33.94-72.837 46.172-102.406z" fill="#f4b158"/><ellipse cx="213.62" cy="298.38" fill="#563e2f" rx="53.042" ry="53.042" transform="matrix(.707 -.707 .707 .707 -148.418 238.445)"/><path d="m251.126 260.873c-2.24-2.24-4.637-4.222-7.145-5.977 14.48 20.688 12.497 49.393-5.978 67.868s-47.179 20.457-67.868 5.977c1.755 2.508 3.738 4.906 5.977 7.145 20.714 20.714 54.299 20.714 75.013 0 20.716-20.714 20.716-54.299.001-75.013z" fill="#4c362a"/><path d="m170.492 419.71-78.202-78.202c-4.117-4.117-4.117-10.791 0-14.908l8.77-8.77c4.117-4.117 10.791-4.117 14.908 0l78.202 78.202c4.117 4.117 4.117 10.791 0 14.907l-8.77 8.77c-4.117 4.117-10.791 4.117-14.908.001z" fill="#563e2f"/><path d="m194.17 396.032-13.123-13.123c4.117 4.117 4.117 10.791 0 14.907l-8.77 8.77c-4.117 4.117-10.791 4.117-14.908 0l13.123 13.123c4.117 4.117 10.791 4.117 14.907 0l8.77-8.77c4.117-4.116 4.117-10.79.001-14.907z" fill="#4c362a"/><path d="m439.815 108.301-25.002 25.013-10.939 10.939-25.219 25.219-10.939 10.929-36.158 36.158-25.219 25.219-10.929 10.939-30.859 30.848c-2.402-8.31-6.877-16.146-13.424-22.693s-14.383-11.022-22.693-13.424l30.859-30.848 10.929-10.939 25.219-25.219 36.158-36.158 10.939-10.929 36.158-36.158 25.002-25.013z" fill="#725539"/><path d="m264.555 283.565 175.262-175.261-13.123-13.123-170.956 170.955c4.085 5.325 7.025 11.245 8.817 17.429z" fill="#6b4c32"/><g fill="#563e2f"><path d="m383.549 95.187h15.471v51.077h-15.471z" transform="matrix(.707 -.707 .707 .707 29.239 312.04)"/><path d="m347.395 131.34h15.463v51.077h-15.463z" transform="matrix(.707 -.707 .707 .707 -6.982 296.889)"/><path d="m311.233 167.493h15.47v51.077h-15.47z" transform="matrix(.707 -.707 .707 .707 -43.07 282.081)"/><path d="m275.084 203.651h15.463v51.077h-15.463z" transform="matrix(.707 -.707 .707 .707 -79.209 267.28)"/></g></svg>