<svg height="512" viewBox="0 0 512 512" width="512" xmlns="http://www.w3.org/2000/svg"><path d="m176 88h-32v8a48 48 0 0 0 48 48h160v-32h-160a16 16 0 0 1 -16-16z" fill="#fccd31"/><path d="m224 208h128v-32h-128a48 48 0 0 0 -48 48 48 48 0 0 0 48 48h128v-32h-128a16 16 0 0 1 -16-16 16 16 0 0 1 16-16z" fill="#fccd31"/><path d="m176 360h-32v-8a48 48 0 0 1 48-48h160v32h-160a16 16 0 0 0 -16 16z" fill="#fccd31"/><path d="m183.19 143.179a48.247 48.247 0 0 0 8.81.821h16v-32a32.005 32.005 0 0 1 -24.81 31.179z" fill="#f2b016"/><path d="m224 208v-32a47.76 47.76 0 0 0 -23.5 6.153 120.419 120.419 0 0 1 0 83.694 47.76 47.76 0 0 0 23.5 6.153v-32a16 16 0 0 1 -16-16 16 16 0 0 1 16-16z" fill="#f2b016"/><path d="m208 304a32 32 0 0 1 -55.884 21.289 47.776 47.776 0 0 0 -8.116 26.711v8h32v-8a16 16 0 0 1 16-16h32v-32z" fill="#f2b016"/><path d="m288 56v-32a80 80 0 0 0 -80 80v240a80 80 0 0 0 80 80v-32a48 48 0 0 1 -48-48v-240a48 48 0 0 1 48-48z" fill="#fccd31"/><path d="m273.291 389.7a111.977 111.977 0 0 1 -65.078-40.144 79.99 79.99 0 0 0 79.787 74.444v-32a47.959 47.959 0 0 1 -14.709-2.3z" fill="#f2b016"/><path d="m360 176h40v16h-40z" fill="#4a4d4f"/><path d="m360 256h40v16h-40z" fill="#4a4d4f"/><g fill="#f2b016"><path d="m336 240a32 32 0 0 1 -32 32h32z"/><path d="m336 304a32 32 0 0 1 -32 32h32z"/><path d="m336 176a32 32 0 0 1 -32 32h32z"/><path d="m336 112a32 32 0 0 1 -32 32h32z"/></g><path d="m288 56v-32a80 80 0 0 1 80 80v240a80 80 0 0 1 -80 80v-32a48 48 0 0 0 48-48v-240a48 48 0 0 0 -48-48z" fill="#fccd31"/><path d="m318.566 381.01a47.8 47.8 0 0 1 -30.566 10.99v32a80 80 0 0 0 80-80v-15.941a104.385 104.385 0 0 1 -49.434 52.951z" fill="#f2b016"/><path d="m456 64h32v160h-32z" fill="#fccd31"/><path d="m456 96v128h32v-112a39.937 39.937 0 0 1 -32-16z" fill="#f2b016"/><path d="m288 24c-110.457 0-200 89.543-200 200s89.543 200 200 200 200-89.543 200-200-89.543-200-200-200zm0 368a168 168 0 1 1 168-168 168 168 0 0 1 -168 168z" fill="#fccd31"/><path d="m288 392a167.276 167.276 0 0 1 -76.583-18.433 167.862 167.862 0 0 1 -102.558-60.567 199.99 199.99 0 0 0 179.141 111z" fill="#f2b016"/><path d="" fill="#f2b016"/><path d="m288 424c110.457 0 200-89.543 200-200 0-1.364-.025-2.722-.052-4.079-2.176 104.227-90.856 188.079-199.948 188.079z" fill="#f2b016"/><path d="m408 144h64a16 16 0 0 1 16 16 16 16 0 0 1 -16 16h-64z" fill="#d3cbc2"/><path d="m408 208h64a16 16 0 0 1 16 16 16 16 0 0 1 -16 16h-64z" fill="#d3cbc2"/><path d="m408 272h64a16 16 0 0 1 16 16 16 16 0 0 1 -16 16h-64z" fill="#d3cbc2"/><path d="m392 128h32v192h-32z" fill="#6d7072"/><path d="m24 296v192a292.063 292.063 0 0 1 182.45-64h81.55v-32l-123.948-19.069a233.219 233.219 0 0 1 -140.052-76.931z" fill="#fccd31"/><path d="m217.507 408c-70.338 0-138.582 30.571-193.507 72v8a292.063 292.063 0 0 1 182.45-64h81.55v-16z" fill="#f2b016"/><path d="m146.075 134.077a168.031 168.031 0 0 1 283.851 0 160.043 160.043 0 0 0 -283.851 0z" fill="#f2b016"/><path d="m424 144a32 32 0 0 0 32 32h-32z" fill="#baafa6"/><path d="m424 208a32 32 0 0 0 32 32h-32z" fill="#baafa6"/><path d="m424 272a32 32 0 0 0 32 32h-32z" fill="#baafa6"/><path d="m240 112a32 32 0 0 0 32 32h-32z" fill="#f2b016"/><path d="m240 176a32 32 0 0 0 32 32h-32z" fill="#f2b016"/><path d="m240 240a32 32 0 0 0 32 32h-32z" fill="#f2b016"/><path d="m240 304a32 32 0 0 0 32 32h-32z" fill="#f2b016"/><circle cx="352" cy="152" fill="#888c8e" r="24"/><path d="m364.494 131.506a24 24 0 0 1 -32.988 32.988 24 24 0 1 0 32.988-32.988z" fill="#6d7072"/><circle cx="352" cy="224" fill="#888c8e" r="24"/><path d="m364.494 203.506a24 24 0 0 1 -32.988 32.988 24 24 0 1 0 32.988-32.988z" fill="#6d7072"/><circle cx="352" cy="296" fill="#888c8e" r="24"/><path d="m364.494 275.506a24 24 0 0 1 -32.988 32.988 24 24 0 1 0 32.988-32.988z" fill="#6d7072"/><path d="m456 24h32v48h-32z" fill="#d3cbc2"/><path d="m456 24a32 32 0 0 1 32 32v-32z" fill="#baafa6"/></svg>