<?xml version="1.0" encoding="iso-8859-1"?>
<!-- Generator: Adobe Illustrator 19.0.0, SVG Export Plug-In . SVG Version: 6.00 Build 0)  -->
<svg version="1.1" id="Capa_1" xmlns="http://www.w3.org/2000/svg" xmlns:xlink="http://www.w3.org/1999/xlink" x="0px" y="0px"
	 viewBox="0 0 512 512" style="enable-background:new 0 0 512 512;" xml:space="preserve">
<path style="fill:#FFBF7B;" d="M455.255,84.333l-28.622-28.622L493.36,0.904c1.59-1.301,3.908-1.186,5.361,0.268l12.108,12.108
	c1.471,1.471,1.569,3.824,0.225,5.412L455.255,84.333z"/>
<path style="fill:#735458;" d="M111.095,444.491c0,0-27.001,26.033-42.619,63.778c-0.093,0.206-0.361,0.515-0.762,0.876
	c-1.998,1.854-4.389,2.812-6.562,2.854c-1.71,0.031-3.276-0.515-4.399-1.638L1.639,455.247c-2.555-2.555-2.102-7.386,1.216-10.961
	c0.361-0.402,0.67-0.669,0.876-0.763c37.746-15.617,63.778-42.618,63.778-42.618l21.345,21.345L111.095,444.491z"/>
<path style="fill:#5C4346;" d="M111.095,444.491c0,0-27.001,26.033-42.619,63.778c-0.093,0.206-0.361,0.515-0.762,0.876
	c-1.998,1.854-4.389,2.812-6.562,2.854c-1.71,0.031-3.276-0.515-4.399-1.638L34.522,488.13c2.545,2.544,7.386,2.102,10.961-1.216
	c0.391-0.371,0.67-0.67,0.752-0.886c15.628-37.735,42.619-63.778,42.619-63.778L111.095,444.491z"/>
<rect x="233.508" y="33.991" transform="matrix(-0.7071 -0.7071 0.7071 -0.7071 250.5666 620.2766)" style="fill:#735458;" width="40.477" height="448.506"/>
<rect x="248.253" y="40.106" transform="matrix(-0.7071 -0.7071 0.7071 -0.7071 256.675 635.0363)" style="fill:#5C4346;" width="23.21" height="448.506"/>
<g>
	<path style="fill:#FFBF7B;" d="M386.407,178.352c-1.919,0-3.839-0.732-5.304-2.196l-36.94-36.94c-2.929-2.93-2.929-7.678,0-10.607
		c2.93-2.928,7.678-2.928,10.607,0l36.94,36.94c2.929,2.93,2.929,7.678,0,10.607C390.245,177.62,388.326,178.352,386.407,178.352z"
		/>
	<path style="fill:#FFBF7B;" d="M303.168,244.954c-1.919,0-3.839-0.732-5.304-2.196l-36.705-36.705
		c-2.929-2.93-2.929-7.678,0-10.607c2.93-2.928,7.678-2.928,10.607,0l36.705,36.705c2.929,2.93,2.929,7.678,0,10.607
		C307.007,244.222,305.087,244.954,303.168,244.954z"/>
	<path style="fill:#FFBF7B;" d="M249.541,298.581c-1.919,0-3.839-0.732-5.303-2.196l-36.705-36.705
		c-2.929-2.93-2.929-7.678,0-10.607c2.929-2.928,7.678-2.928,10.606,0l36.705,36.705c2.929,2.93,2.929,7.678,0,10.607
		C253.38,297.848,251.461,298.581,249.541,298.581z"/>
	<path style="fill:#FFBF7B;" d="M199.6,348.522c-1.919,0-3.839-0.732-5.303-2.196l-36.705-36.705c-2.929-2.93-2.929-7.678,0-10.607
		c2.929-2.928,7.678-2.928,10.606,0l36.705,36.705c2.929,2.93,2.929,7.678,0,10.607C203.439,347.79,201.519,348.522,199.6,348.522z"
		/>
</g>
<path style="fill:#FFDEA9;" d="M430.483,117.84l-36.322-36.322c-1.562-1.562-1.562-4.095,0-5.657l28.689-28.689
	c1.562-1.562,4.095-1.562,5.657,0l36.322,36.322c1.562,1.562,1.562,4.095,0,5.657L436.14,117.84
	C434.577,119.402,432.045,119.402,430.483,117.84z"/>
<path style="fill:#FFBF7B;" d="M430.483,117.84l-19.164-19.164l34.346-34.346l19.164,19.164c1.562,1.562,1.562,4.095,0,5.657
	L436.14,117.84C434.577,119.402,432.045,119.402,430.483,117.84z"/>
<path style="fill:#FFDEA9;" d="M104.589,447.548L64.451,407.41c-1.562-1.562-1.562-4.095,0-5.657l22.965-22.965
	c1.562-1.562,4.095-1.562,5.657,0l40.138,40.138c1.562,1.562,1.562,4.095,0,5.657l-22.965,22.965
	C108.684,449.11,106.152,449.11,104.589,447.548z"/>
<path style="fill:#FFBF7B;" d="M104.589,447.548l-18.453-18.453l28.622-28.622l18.453,18.453c1.562,1.562,1.562,4.095,0,5.657
	l-22.965,22.965C108.684,449.11,106.152,449.11,104.589,447.548z"/>
<g>
	<circle style="fill:#FFDEA9;" cx="349.47" cy="133.91" r="17.5"/>
	<circle style="fill:#FFDEA9;" cx="303.17" cy="237.45" r="17.5"/>
	<circle style="fill:#FFDEA9;" cx="249.54" cy="291.08" r="17.5"/>
	<circle style="fill:#FFDEA9;" cx="199.6" cy="341.02" r="17.5"/>
</g>
<g>
</g>
<g>
</g>
<g>
</g>
<g>
</g>
<g>
</g>
<g>
</g>
<g>
</g>
<g>
</g>
<g>
</g>
<g>
</g>
<g>
</g>
<g>
</g>
<g>
</g>
<g>
</g>
<g>
</g>
</svg>
