<svg id="Layer_1" enable-background="new 0 0 505.068 505.068" height="512" viewBox="0 0 505.068 505.068" width="512" xmlns="http://www.w3.org/2000/svg"><path d="m477.681 414.545c-30.955-70.572-88.703-168.258-154.884-210.259 1.555-4.106 2.28-4.377 6.82-19.003 5.085-16.387 3.122-7.943 7.829-22.841 1.276-4.042 1.784-5.622 3.072-8.868 3.117-7.847 4.998-15.521 7.825-21.523 7.297-15.495-14.612-20.478-12.708-115.303.176-8.77-6.742-16.046-15.509-16.314-5.629-.172-11.14-.277-16.761-.427-6.671-.181-12.761 3.808-15.263 10-3.98 9.85-5.588 12.681-35.83 74.25-28.014-58.602-30.48-63.235-34.66-73.946-2.324-5.953-7.967-9.952-14.354-10.173-6.42-.22-11.797.296-16.874.186-8.997-.189-16.281 7.039-16.338 15.894-.242 37.714-.559 68.726-13.667 103.81-1.353 3.617-1.35 7.601.005 11.216 8.961 23.91 16.794 48.84 25.296 73.416-66.077 42.603-122.65 138.175-154.279 209.852-3.11 7.048-.756 15.313 5.602 19.664 6.772 4.635 14.375 9.319 24.01 14.791 60.673 33.972 129.608 56.104 197.433 56.102 77.579 0 158.304-29.888 217.683-70.935 6.301-4.358 8.63-12.572 5.552-19.589z" fill="#e88793"/><path d="m252.534 377.972c75.972-35.508 134.313-50.573 175.98-56.27-26.749-42.862-63.255-90.468-105.717-117.416 1.555-4.106 2.28-4.377 6.82-19.003 5.085-16.387 3.122-7.943 7.829-22.841 1.276-4.042 1.784-5.622 3.072-8.868 3.117-7.847 4.998-15.521 7.825-21.523 7.297-15.495-14.612-20.478-12.708-115.303.176-8.77-6.742-16.046-15.509-16.314-5.629-.172-11.14-.277-16.761-.427-6.671-.181-12.761 3.808-15.263 10-4.013 9.932-5.761 13.035-35.83 74.25-27.834-58.226-30.419-63.079-34.66-73.946-2.324-5.953-7.967-9.952-14.354-10.173-6.42-.22-11.797.296-16.874.186-8.997-.189-16.281 7.039-16.338 15.894-.242 37.714-.559 68.726-13.667 103.81-1.353 3.617-1.35 7.601.005 11.216 8.961 23.91 16.794 48.84 25.296 73.416-52.035 33.55-95.243 96.996-125.24 151.309 44.965 36.425 110.761 61.886 196.094 22.003z" fill="#fc93a0"/><path d="m348.344 132.05c7.363-15.635-14.62-20.084-12.708-115.303.176-8.77-6.742-16.046-15.509-16.314-5.629-.172-11.14-.277-16.761-.427-6.671-.181-12.761 3.808-15.263 10-3.928 9.72-5.506 12.515-35.83 74.25-28.179-58.948-30.509-63.311-34.66-73.946-2.324-5.953-7.967-9.952-14.354-10.173-3.456-.118-6.71-.017-9.854.081-7.55.236-12.935-.793-18.515 4.633-3.07 2.987-4.815 7.082-4.843 11.366-.143 22.24-.29 45.237-3.856 67.195-6.709 36.573-13.614 37.665-9.806 47.831 5.392 14.387 10.43 29.303 15.301 43.848 17.311 5.666 36.119 16.31 55.555 34.611 34.938 32.897 84.698 32.135 129.259 21.103-11.264-10.583-22.387-19.335-33.705-26.518 6.999-18.478 22.302-65.343 25.549-72.237z" fill="#fda5b7"/><path d="m342.943 146.904c1.869-5.509 3.399-10.604 5.401-14.854 7.297-15.495-14.612-20.478-12.708-115.303.176-8.77-6.742-16.046-15.509-16.314-5.629-.172-11.14-.277-16.761-.427-6.671-.181-12.761 3.808-15.263 10-4.013 9.932-5.761 13.035-35.83 74.25-27.834-58.226-30.419-63.079-34.66-73.946-2.324-5.953-7.967-9.952-14.354-10.173-6.42-.22-11.797.296-16.874.186-8.997-.189-16.281 7.039-16.338 15.894-.242 37.714-.559 68.726-13.667 103.81-1.148 3.069-1.309 6.4-.507 9.548 54.291 23.747 136.799 49.744 187.07 17.329z" fill="#f7bfcc"/></svg>