<?xml version="1.0" encoding="iso-8859-1"?>
<!-- Generator: Adobe Illustrator 19.0.0, SVG Export Plug-In . SVG Version: 6.00 Build 0)  -->
<svg version="1.1" id="Capa_1" xmlns="http://www.w3.org/2000/svg" xmlns:xlink="http://www.w3.org/1999/xlink" x="0px" y="0px"
	 viewBox="0 0 512 512" style="enable-background:new 0 0 512 512;" xml:space="preserve">
<circle style="fill:#E9CA59;" cx="385.07" cy="126.93" r="56.39"/>
<circle style="opacity:0.1;enable-background:new    ;" cx="385.07" cy="126.93" r="27.23"/>
<path style="opacity:0.1;enable-background:new    ;" d="M376.952,71.133c-27.295,3.937-48.27,27.413-48.27,55.798
	c0,31.142,25.246,56.388,56.388,56.388c12.353,0,23.77-3.983,33.06-10.72C360.707,150.957,364.269,92.219,376.952,71.133z"/>
<circle style="fill:#E9CA59;" cx="234.78" cy="56.39" r="56.39"/>
<circle style="opacity:0.1;enable-background:new    ;" cx="234.78" cy="56.39" r="27.23"/>
<path style="opacity:0.1;enable-background:new    ;" d="M226.665,0.59c-27.294,3.937-48.27,27.413-48.27,55.798
	c0,31.142,25.246,56.388,56.388,56.388c12.353,0,23.77-3.983,33.06-10.72C210.419,80.415,213.981,21.676,226.665,0.59z"/>
<circle style="fill:#E9CA59;" cx="73.05" cy="98.56" r="56.39"/>
<circle style="opacity:0.1;enable-background:new    ;" cx="73.05" cy="98.56" r="27.23"/>
<path style="opacity:0.1;enable-background:new    ;" d="M64.93,42.763C37.636,46.7,16.66,70.176,16.66,98.561
	c0,31.142,25.246,56.388,56.388,56.388c12.353,0,23.77-3.983,33.06-10.72C48.684,122.588,52.246,63.849,64.93,42.763z"/>
<circle style="fill:#E9CA59;" cx="455.61" cy="277.22" r="56.39"/>
<circle style="opacity:0.1;enable-background:new    ;" cx="455.61" cy="277.22" r="27.23"/>
<path style="opacity:0.1;enable-background:new    ;" d="M447.495,221.42c-27.294,3.937-48.27,27.413-48.27,55.798
	c0,31.142,25.246,56.388,56.388,56.388c12.353,0,23.77-3.983,33.06-10.72C431.249,301.245,434.811,242.506,447.495,221.42z"/>
<circle style="fill:#E9CA59;" cx="413.44" cy="438.95" r="56.39"/>
<circle style="opacity:0.1;enable-background:new    ;" cx="413.44" cy="438.95" r="27.23"/>
<path style="opacity:0.1;enable-background:new    ;" d="M405.322,383.155c-27.294,3.937-48.27,27.413-48.27,55.798
	c0,31.142,25.246,56.388,56.388,56.388c12.353,0,23.77-3.983,33.06-10.72C389.076,462.98,392.638,404.241,405.322,383.155z"/>
<path style="fill:#C2854A;" d="M285.464,486.76c-29.366-29.366-33.751-62.986-37.991-95.498
	c-4.178-32.029-8.123-62.282-36.288-90.447s-58.417-32.11-90.446-36.288c-32.512-4.24-66.132-8.625-95.498-37.991
	c-10.3-10.3-22.996-27.348-24.988-50.076c-1.348-15.376,2.063-38.722,25.968-62.626c102.546-102.546,269.401-102.546,371.946,0
	s102.546,269.4,0,371.946c-23.904,23.904-47.25,27.315-62.626,25.967C312.812,509.755,295.764,497.06,285.464,486.76z
	 M237.378,274.622c37.074,37.074,42.255,76.799,46.826,111.848c3.753,28.782,6.996,53.639,27.453,74.096
	c13.534,13.534,34.985,24.351,60.316-0.98c88.103-88.103,88.103-231.457,0-319.559s-231.456-88.103-319.559,0
	c-25.33,25.331-14.514,46.782-0.98,60.316c20.457,20.457,45.314,23.699,74.096,27.453
	C160.579,232.367,200.304,237.548,237.378,274.622z"/>
<path style="opacity:0.1;enable-background:new    ;" d="M284.204,386.47c-4.571-35.049-9.752-74.774-46.826-111.848
	s-76.799-42.255-111.848-46.826c-5.073-0.661-10.021-1.309-14.847-2.036c-0.031,0.205-0.068,0.408-0.095,0.615l-4.671,35.812
	c-0.014,0.105-0.02,0.208-0.033,0.313c4.964,0.737,9.922,1.385,14.854,2.028c32.029,4.178,62.282,8.123,90.446,36.288
	c28.165,28.165,32.11,58.417,36.288,90.447c0.643,4.931,1.291,9.888,2.027,14.852c0.105-0.012,0.21-0.017,0.314-0.031l35.811-4.672
	c0.206-0.027,0.41-0.064,0.615-0.096C285.513,396.489,284.866,391.542,284.204,386.47z"/>
<path style="fill:#4A4D58;" d="M125.462,228.315c0.924-7.088,7.463-12.043,14.539-11.026c32.641,4.69,70.821,13.315,106.109,48.602
	c35.287,35.287,43.912,73.468,48.601,106.107c1.017,7.075-3.938,13.614-11.026,14.539l-35.811,4.672
	c-6.94,0.905-13.335-3.929-14.332-10.856c-3.739-25.979-9.323-49.041-31.088-70.806s-44.827-27.349-70.806-31.089
	c-6.928-0.997-11.761-7.391-10.856-14.331L125.462,228.315z"/>
<path style="opacity:0.1;enable-background:new    ;" d="M162.284,256.213c-21.733-3.885-33.837-4.715-38.766-12.994l-2.727,20.908
	c-0.905,6.94,3.929,13.334,10.856,14.332c25.979,3.739,49.041,9.323,70.806,31.089c21.765,21.765,27.349,44.826,31.088,70.806
	c0.997,6.928,7.391,11.762,14.332,10.856l13.888-1.812C261.828,309.983,207.763,264.343,162.284,256.213z"/>
<g>
</g>
<g>
</g>
<g>
</g>
<g>
</g>
<g>
</g>
<g>
</g>
<g>
</g>
<g>
</g>
<g>
</g>
<g>
</g>
<g>
</g>
<g>
</g>
<g>
</g>
<g>
</g>
<g>
</g>
</svg>
