<?xml version="1.0" encoding="iso-8859-1"?>
<!-- Generator: Adobe Illustrator 19.0.0, SVG Export Plug-In . SVG Version: 6.00 Build 0)  -->
<svg version="1.1" id="Capa_1" xmlns="http://www.w3.org/2000/svg" xmlns:xlink="http://www.w3.org/1999/xlink" x="0px" y="0px"
	 viewBox="0 0 512.001 512.001" style="enable-background:new 0 0 512.001 512.001;" xml:space="preserve">
<g>
	
		<rect x="201.59" y="320.27" transform="matrix(-0.7071 0.7071 -0.7071 -0.7071 638.633 496.0075)" style="fill:#FE9923;" width="30" height="119.999"/>
	
		<rect x="244.003" y="277.842" transform="matrix(-0.7071 0.7071 -0.7071 -0.7071 681.0357 393.5889)" style="fill:#FE9923;" width="30" height="119.999"/>
</g>
<g>
	<path style="fill:#FEA832;" d="M216.587,295.414c-5.863,5.863-15.351,5.863-21.213,0l-42.426-42.426
		c-5.863-5.863-5.863-15.351,0-21.213s15.351-5.863,21.213,0l42.426,42.426C222.45,280.063,222.45,289.551,216.587,295.414z"/>
	<path style="fill:#FEA832;" d="M174.161,337.84c-5.863,5.863-15.351,5.863-21.213,0l-42.426-42.426
		c-5.863-5.863-5.863-15.351,0-21.213s15.351-5.863,21.213,0l42.426,42.426C180.023,322.49,180.023,331.978,174.161,337.84z"/>
	<path style="fill:#FEA832;" d="M259.014,252.987c-5.863,5.863-15.351,5.863-21.213,0l-42.426-42.426
		c-5.863-5.863-5.863-15.351,0-21.213s15.351-5.863,21.213,0l42.426,42.426C264.876,237.637,264.876,247.125,259.014,252.987z"/>
	<path style="fill:#FEA832;" d="M131.734,380.267c-5.863,5.863-15.351,5.863-21.213,0l-42.426-42.426
		c-5.863-5.863-5.863-15.351,0-21.213c5.863-5.863,15.351-5.863,21.213,0l42.426,42.426
		C137.597,364.916,137.597,374.404,131.734,380.267z"/>
	<path style="fill:#FEA832;" d="M509.17,172.571c-11.667,11.667-21.849,3.606-77.64,6.364c-21.213,0-74.512,37.567-95.301,49.445
		l-60.458,7.85l-48.578,6.151l30.335-30.335c25.456-25.456,77.695-97.599,77.693-133.662c1.062-68.518-1.06-67.67,2.546-72.125
		l85.277,82.732L509.17,172.571z"/>
</g>
<g>
	<path style="fill:#FE9923;" d="M509.17,172.571c-11.667,11.667-21.849,3.606-77.64,6.364c-21.213,0-74.512,37.567-95.301,49.445
		l-60.458,7.85L423.045,88.991L509.17,172.571z"/>
	<path style="fill:#FE9923;" d="M301.44,465.119L301.44,465.119c-5.858,5.858-15.355,5.858-21.213,0l-21.213-21.213
		c-5.858-5.858-5.858-15.355,0-21.213l0,0c5.858-5.858,15.355-5.858,21.213,0l21.213,21.213
		C307.298,449.764,307.298,459.261,301.44,465.119z"/>
	<path style="fill:#FE9923;" d="M343.867,422.693L343.867,422.693c-5.858,5.858-15.355,5.858-21.213,0l-21.213-21.213
		c-5.858-5.858-5.858-15.355,0-21.213l0,0c5.858-5.858,15.355-5.858,21.213,0l21.213,21.213
		C349.724,407.338,349.724,416.835,343.867,422.693z"/>
</g>
<g>
	<path style="fill:#FEDB41;" d="M237.8,189.348L68.095,359.053c-5.863,5.863-15.351,5.863-21.213,0s-5.863-15.351,0-21.213
		l169.706-169.706c5.863-5.863,15.351-5.863,21.213,0S243.663,183.485,237.8,189.348z"/>
	<path style="fill:#FEDB41;" d="M445.743,66.292c46.882,46.882,75.307,94.399,63.64,106.066l-0.212,0.212
		c-12.092,11.242-59.184-17.183-105.854-63.852c-43.063-43.063-70.64-86.763-65.549-102.46c0.212-1.484,0.849-2.545,1.91-3.606
		s2.122-1.697,3.606-1.91c2.334-1.06,5.517-0.848,9.122-0.211C372.345,4.35,409.257,29.806,445.743,66.292z"/>
</g>
<path style="fill:#FCBF29;" d="M445.743,66.292c46.882,46.882,75.307,94.399,63.64,106.066l-0.212,0.212
	c-12.092,11.242-59.184-17.183-105.854-63.852L445.743,66.292z"/>
<path style="fill:#FEDB41;" d="M336.23,228.379c-12.515-7.424-26.305-11.455-40.306-12.303c-24.819-1.485-49.85,7.424-68.731,26.304
	L25.668,443.906l42.426,42.426l35.638-35.638c4.243,8.909,9.971,17.607,17.395,25.031c35.213,35.213,92.066,35.213,127.279,0
	l106.066-106.066c35.213-35.213,35.213-92.066,0-127.279C348.957,236.865,342.805,231.986,336.23,228.379z M312.047,327.234
	L205.981,433.3c-11.667,11.667-30.759,11.667-42.426,0c-11.667-11.667-11.667-30.759,0-42.426L269.62,284.807
	c11.455-11.455,30.547-11.879,42.426,0C323.714,296.474,323.714,315.567,312.047,327.234z"/>
<path style="fill:#FCBF29;" d="M336.23,228.379c-12.515-7.424-26.305-11.455-40.306-12.303L46.882,465.119l21.213,21.213
	l35.638-35.638c4.243,8.909,9.971,17.607,17.395,25.031c35.213,35.213,92.066,35.213,127.279,0l106.066-106.066
	c35.213-35.213,35.213-92.066,0-127.279C348.957,236.865,342.805,231.986,336.23,228.379z M312.047,327.234L205.981,433.3
	c-11.667,11.667-30.759,11.667-42.426,0c-11.667-11.667-11.667-30.759,0-42.426L269.62,284.807
	c11.455-11.455,30.547-11.879,42.426,0C323.714,296.474,323.714,315.567,312.047,327.234z"/>
<path style="fill:#FEA832;" d="M25.668,422.693l63.64,63.64c5.94,5.94,5.94,15.273,0,21.213c-5.94,5.94-15.273,5.94-21.213,0
	l-63.64-63.64c-5.94-5.94-5.94-15.273,0-21.213C10.396,416.753,19.728,416.753,25.668,422.693z"/>
<path style="fill:#FE9923;" d="M57.488,454.513l31.82,31.82c5.94,5.94,5.94,15.273,0,21.213c-5.94,5.94-15.273,5.94-21.213,0
	l-31.82-31.82L57.488,454.513z"/>
<g>
</g>
<g>
</g>
<g>
</g>
<g>
</g>
<g>
</g>
<g>
</g>
<g>
</g>
<g>
</g>
<g>
</g>
<g>
</g>
<g>
</g>
<g>
</g>
<g>
</g>
<g>
</g>
<g>
</g>
</svg>
