<?xml version="1.0" encoding="iso-8859-1"?>
<!-- Generator: Adobe Illustrator 19.0.0, SVG Export Plug-In . SVG Version: 6.00 Build 0)  -->
<svg version="1.1" id="Capa_1" xmlns="http://www.w3.org/2000/svg" xmlns:xlink="http://www.w3.org/1999/xlink" x="0px" y="0px"
	 viewBox="0 0 464 464" style="enable-background:new 0 0 464 464;" xml:space="preserve">
<path style="fill:#394D5D;" d="M464,239.951l-80-168l-56-32l-24-32c-47.422-10.535-96.578-10.535-144,0l-24,32l-56,32l-80,168
	l109.456,109.456L104,463.951h73.376c30.168,0,54.624-24.456,54.624-54.624c0,30.168,24.456,54.624,54.624,54.624H360
	l-5.456-114.544L464,239.951z M104.752,158.287l5.472,103.888L74,225.951L104.752,158.287z M390,225.951l-36.224,36.224
	l5.472-103.888L390,225.951z"/>
<path style="fill:#7D8F9F;" d="M288,175.951h69.896v16H288V175.951z"/>
<path style="fill:#0F2537;" d="M120,103.951l112,199.12l112-199.12l-16,3.2v-67.2l-24-32c-47.422-10.535-96.578-10.535-144,0l-24,32
	v67.2L120,103.951z"/>
<g>
	<path style="fill:#7D8F9F;" d="M136,343.951h56v16h-56V343.951z"/>
	<path style="fill:#7D8F9F;" d="M272,343.951h56v16h-56V343.951z"/>
	<path style="fill:#7D8F9F;" d="M144,407.951h16v16h-16V407.951z"/>
	<path style="fill:#7D8F9F;" d="M128,423.951h16v16h-16V423.951z"/>
</g>
<path style="fill:#EFEFEF;" d="M278.4,86.351l25.6,25.6l40-8l-112,199.12l-112-199.12l40,8l25.6-25.6H278.4z"/>
<path style="fill:#DD1C4B;" d="M200,39.951l-24,8l56,224l56-224l-24-8H200z"/>
<g>
</g>
<g>
</g>
<g>
</g>
<g>
</g>
<g>
</g>
<g>
</g>
<g>
</g>
<g>
</g>
<g>
</g>
<g>
</g>
<g>
</g>
<g>
</g>
<g>
</g>
<g>
</g>
<g>
</g>
</svg>
