<svg id="Capa_1" enable-background="new 0 0 512.193 512.193" height="512" viewBox="0 0 512.193 512.193" width="512" xmlns="http://www.w3.org/2000/svg"><g><circle cx="255.678" cy="255.678" fill="#60b7ff" r="255.678"/><path d="m511.358 255.678c0 141.205-114.476 255.68-255.68 255.68-17.407 0-34.412-1.743-50.849-5.063 9.714 1.124 19.603 1.701 29.617 1.701 141.205 0 255.681-114.465 255.681-255.68 0-123.839-88.046-227.105-204.955-250.627 127.313 14.612 226.186 122.756 226.186 253.989z" fill="#26a6fe"/><g><g fill="#fe7701"><path d="m255.68 47.006v-47.003"/><path d="m255.68 511.353v-47.004"/><path d="m383.53 477.129-23.496-40.715"/><path d="m151.327 74.941-23.496-40.715"/><path d="m477.132 383.527-40.715-23.496"/><path d="m74.944 151.324-40.715-23.496"/><path d="m511.355 255.678h-47.003"/><path d="m47.009 255.678h-47.004"/><path d="m477.132 127.828-40.715 23.496"/><path d="m74.944 360.031-40.715 23.496"/><path d="m151.327 436.414-23.496 40.715"/><path d="m383.53 34.226-23.496 40.715"/></g><g><path d="m360.034 436.414c-30.691 17.768-66.335 27.935-104.354 27.935v47.004c46.574 0 90.237-12.458 127.85-34.224zm-285.09-76.383-40.715 23.496c22.446 38.806 54.796 71.156 93.602 93.602l23.496-40.715c-31.67-18.317-58.066-44.713-76.383-76.383zm52.887-325.805 23.496 40.715c30.691-17.768 66.335-27.935 104.354-27.935v-47.003c-46.575 0-90.238 12.458-127.85 34.223zm-127.826 221.452h47.004c0-38.018 10.167-73.662 27.935-104.354l-40.715-23.496c-21.766 37.613-34.224 81.275-34.224 127.85zm464.347 0c0 38.018-10.167 73.662-27.935 104.354l40.715 23.496c21.766-37.613 34.224-81.275 34.224-127.85zm-80.822-221.452-23.496 40.715c31.67 18.317 58.066 44.713 76.383 76.383l40.715-23.496c-22.446-38.806-54.796-71.156-93.602-93.602z" fill="#fe7701"/></g><path d="m477.135 127.827-14.767 8.518c-19.418-38.093-48.106-70.669-83.095-94.748l4.259-7.373c15.767 9.106 30.473 19.861 43.868 32.03 7.276 6.609 14.171 13.638 20.653 21.027 9.032 10.297 17.536 21.726 24.762 33.349 1.473 2.371 2.917 4.774 4.32 7.197z" fill="#f46700"/><path d="m383.531 477.132c-1.155.67-2.32 1.33-3.485 1.98-10.923 6.091-22.271 11.442-33.994 15.866-6.266 2.365-12.635 4.448-19.072 6.295-7.539 2.163-15.245 4.029-22.873 5.496-4.826.928-9.704 1.722-14.622 2.362-4.056.527-8.121.978-12.199 1.32-7.126.598-14.324.897-21.604.897v-4.228c44.476-3.651 85.715-18.686 120.818-42.177z" fill="#f46700"/><path d="m511.35 255.678c0 7.28-.299 14.478-.897 21.604-.124 1.423-.258 2.846-.392 4.269-.837 8.882-2.15 17.453-4.011 26.162-1.352 6.327-2.885 12.849-4.775 19.263-5.433 18.442-12.77 36.219-22.161 53.066-.65 1.165-1.31 2.331-1.98 3.485l-17.469-10.075c18.933-35.123 29.895-75.197 30.442-117.776h21.243z" fill="#f46700"/></g><g><circle cx="255.678" cy="255.678" fill="#f3eae6" r="210.196"/><path d="m465.873 255.678c0 116.093-94.102 210.195-210.195 210.195-21.295 0-41.852-3.168-61.225-9.058 12.922 2.483 26.26 3.781 39.899 3.781 116.093 0 210.195-94.102 210.195-210.195 0-94.788-62.752-174.929-148.98-201.137 97.01 18.635 170.306 103.96 170.306 206.414z" fill="#e1d3ce"/></g><circle cx="255.678" cy="255.678" fill="#5a5a5a" r="79.137"/><path d="m334.813 255.678c0 43.703-35.433 79.136-79.136 79.136-13.901 0-26.966-3.589-38.32-9.889 6.497 1.732 13.313 2.65 20.346 2.65 43.703 0 79.136-35.422 79.136-79.136 0-29.802-16.479-55.758-40.826-69.257 33.855 8.972 58.8 39.826 58.8 76.496z" fill="#444"/><path d="m507.827 507.169-.658.658c-5.821 5.821-15.259 5.821-21.08 0l-153.304-153.304 21.738-21.738 153.304 153.304c5.821 5.821 5.821 15.259 0 21.08z" fill="#5a5a5a"/><path d="m507.501 507.501c-2.392 2.392-5.362 3.826-8.466 4.31 2.052-5.465.877-11.859-3.527-16.252l-149.196-149.196 10.889-10.9 150.3 150.3c6.002 6.002 6.002 15.737 0 21.738z" fill="#444"/><path d="m365.692 327.174-38.517 38.517c-7.57 7.57-19.844 7.57-27.414 0l-47.582-47.582c-7.57-7.57-7.57-19.844 0-27.414l38.517-38.517c7.57-7.57 19.844-7.57 27.414 0l47.582 47.582c7.57 7.571 7.57 19.844 0 27.414z" fill="#acacac"/><path d="m365.265 327.605-14.437 14.437c7.806-7.806 7.806-20.47 0-28.276l-46.725-46.725c-7.806-7.806-20.47-7.806-28.276 0l14.437-14.437c7.806-7.806 20.47-7.806 28.276 0l46.725 46.725c7.807 7.807 7.807 20.47 0 28.276z" fill="#9c9c9c"/></g></svg>