<svg id="Layer_1" enable-background="new 0 0 512 512" height="512" viewBox="0 0 512 512" width="512" xmlns="http://www.w3.org/2000/svg"><g><g><path d="m75.25 150.5c-8.284 0-15-6.716-15-15v-60.25c0-8.284 6.716-15 15-15s15 6.716 15 15v60.25c0 8.284-6.716 15-15 15z" fill="#414952"/></g><g><path d="m105.375 512h-60.25c-8.284 0-15-6.716-15-15v-361.5c0-8.284 6.716-15 15-15h60.25c8.284 0 15 6.716 15 15v361.5c0 8.284-6.716 15-15 15z" fill="#fff200"/></g><g><path d="m195.75 150.5c-8.284 0-15-6.716-15-15v-60.25c0-8.284 6.716-15 15-15s15 6.716 15 15v60.25c0 8.284-6.716 15-15 15z" fill="#414952"/></g><g><path d="m225.875 451.75h-60.25c-8.284 0-15-6.716-15-15v-301.25c0-8.284 6.716-15 15-15h60.25c8.284 0 15 6.716 15 15v301.25c0 8.284-6.716 15-15 15z" fill="#fff200"/></g><g><path d="m316.25 150.5c-8.284 0-15-6.716-15-15v-60.25c0-8.284 6.716-15 15-15s15 6.716 15 15v60.25c0 8.284-6.716 15-15 15z" fill="#23272b"/></g><g><path d="m346.375 391.5h-60.25c-8.284 0-15-6.716-15-15v-241c0-8.284 6.716-15 15-15h60.25c8.284 0 15 6.716 15 15v241c0 8.284-6.716 15-15 15z" fill="#f2d813"/></g><g><path d="m436.75 150.5c-8.284 0-15-6.716-15-15v-60.25c0-8.284 6.716-15 15-15s15 6.716 15 15v60.25c0 8.284-6.716 15-15 15z" fill="#23272b"/></g><g><path d="m466.875 331.25h-60.25c-8.284 0-15-6.716-15-15v-180.75c0-8.284 6.716-15 15-15h60.25c8.284 0 15 6.716 15 15v180.75c0 8.284-6.716 15-15 15z" fill="#f2d813"/></g><g><path d="m497 90.25h-482c-8.284 0-15-6.716-15-15v-60.25c0-8.284 6.716-15 15-15h482c8.284 0 15 6.716 15 15v60.25c0 8.284-6.716 15-15 15z" fill="#ff432e"/></g><path d="m105.375 120.5h-30.125v391.5h30.125c8.284 0 15-6.716 15-15v-361.5c0-8.284-6.716-15-15-15z" fill="#f2d813"/><path d="m497 0h-241v90.25h241c8.284 0 15-6.716 15-15v-60.25c0-8.284-6.716-15-15-15z" fill="#e32945"/><path d="m225.875 120.5h-30.125v331.25h30.125c8.284 0 15-6.716 15-15v-301.25c0-8.284-6.716-15-15-15z" fill="#f2d813"/><g fill="#ffbc36"><path d="m346.375 120.5h-30.125v271h30.125c8.284 0 15-6.716 15-15v-241c0-8.284-6.716-15-15-15z"/><path d="m466.875 120.5h-30.125v210.75h30.125c8.284 0 15-6.716 15-15v-180.75c0-8.284-6.716-15-15-15z"/></g></g></svg>