<svg id="Capa_1" enable-background="new 0 0 512 512" height="512" viewBox="0 0 512 512" width="512" xmlns="http://www.w3.org/2000/svg"><g><g><path d="m356.864 320.779h-100.864-100.864l-32.335 183.899c-.672 3.82 2.267 7.321 6.146 7.321h127.053 127.052c3.879 0 6.818-3.501 6.146-7.321z" fill="#eaa598"/></g><g><path d="m256 320.779h-100.864l-32.335 183.899c-.672 3.82 2.267 7.321 6.146 7.321h4.216c34.972-25.433 65.572-54.804 91.232-87.68 11.538-14.783 22.086-30.276 31.604-46.388 9.518 16.112 20.066 31.605 31.604 46.388 25.66 32.876 56.26 62.247 91.232 87.68h4.216c3.879 0 6.818-3.501 6.146-7.321l-32.335-183.899z" fill="#e48e81"/></g><g><path d="m323.242 186.295h-100.864s0 191.949 187.24 316.443c4.9 3.258 11.183-1.41 9.442-7.03z" fill="#9dc6fb"/></g><g><path d="m287.957 311.663c26.574-69.48 26.88-123.119 26.88-125.368h-92.459s.004 77.277 47.832 165.567c6.563-13.065 12.497-26.473 17.747-40.199z" fill="#80b4fb"/></g><g><path d="m188.758 186.295h100.864s0 191.949-187.24 316.443c-4.9 3.258-11.183-1.41-9.442-7.03z" fill="#9dc6fb"/></g><g><path d="m323.242 152.674 10.536-31.608c4.126-12.379 11.078-23.628 20.305-32.855l13.48-13.481c3.542-3.542 4.056-9.105 1.223-13.237l-39.067-56.973c-3.537-5.157-10.798-6.05-15.481-1.906-34.683 30.693-51.104 65.155-56.318 77.812-.705 1.712-3.134 1.712-3.84 0-5.214-12.657-21.635-47.119-56.318-77.812-4.683-4.144-11.945-3.251-15.481 1.906l-39.068 56.974c-2.833 4.131-2.319 9.695 1.223 13.237l13.481 13.481c9.227 9.227 16.179 20.475 20.305 32.855l10.536 31.608h134.484z" fill="#9dc6fb"/></g><g><path d="m359.927 48.572-35.628 40.629c-6.228 7.102-10.78 15.513-13.321 24.611l-10.85 38.862h23.115l10.536-31.608c4.126-12.379 11.078-23.628 20.305-32.854l13.481-13.481c3.542-3.542 4.056-9.105 1.223-13.237z" fill="#80b4fb"/></g><g><path d="m228.522 163.645c-3.23 0-6.249-2.022-7.368-5.243-.057-.159-2.79-7.782-8.922-15.744-2.629-3.414-1.992-8.312 1.421-10.94 3.414-2.629 8.312-1.991 10.94 1.421 7.798 10.128 11.165 19.758 11.304 20.163 1.403 4.073-.762 8.513-4.835 9.915-.84.291-1.698.428-2.54.428z" fill="#80b4fb"/></g><g><path d="m285.654 163.633c-.848 0-1.71-.14-2.556-.434-4.061-1.412-6.218-5.831-4.819-9.896.14-.405 3.505-10.036 11.304-20.164 2.628-3.413 7.524-4.051 10.94-1.421 3.413 2.629 4.05 7.526 1.421 10.94-6.165 8.006-8.894 15.668-8.921 15.746-1.127 3.212-4.145 5.229-7.369 5.229z" fill="#80b4fb"/></g><g><path d="m257.089 163.643c-4.308 0-7.801-3.492-7.801-7.801v-21.012c0-4.309 3.493-7.801 7.801-7.801s7.8 3.492 7.8 7.801v21.013c.001 4.308-3.491 7.8-7.8 7.8z" fill="#80b4fb"/></g><g><path d="m239.181 259.259c-1.265 0-2.546-.308-3.734-.957-3.78-2.066-5.17-6.806-3.104-10.587 18.464-33.779 16.14-62.518 16.114-62.805-.384-4.291 2.783-8.081 7.074-8.465 4.279-.39 8.081 2.782 8.465 7.073.122 1.362 2.747 33.79-17.963 71.68-1.417 2.593-4.092 4.061-6.852 4.061z" fill="#80b4fb"/></g><g><path d="m208.788 231.245c-1.461 0-2.938-.41-4.253-1.268-3.609-2.352-4.627-7.186-2.274-10.795 10.296-15.79 10.415-34.778 10.415-34.968 0-4.309 3.493-7.801 7.801-7.801s7.801 3.492 7.801 7.801c0 .965-.147 23.858-12.947 43.49-1.497 2.294-3.995 3.541-6.543 3.541z" fill="#80b4fb"/></g><g><path d="m188.758 152.674h134.485v33.621h-134.485z" fill="#eaa598"/></g><g><path d="m300.128 152.674h23.115v33.621h-23.115z" fill="#e48e81"/></g></g></svg>