<svg height="512" viewBox="0 0 512 512" width="512" xmlns="http://www.w3.org/2000/svg"><g id="flat"><path d="m384 96-16 56v312a53.9 53.9 0 0 1 -44.84 24h-20.84a53.892 53.892 0 0 1 -38.1-15.78l-8.22-8.22-8 8-.21.21a53.906 53.906 0 0 1 -38.12 15.79h-20.83a53.9 53.9 0 0 1 -44.84-24v-312l-16-56 64-24 18.46-24.62 5.54-7.38.63-.25a106 106 0 0 1 78.74 0l.63.25 6.52 8.69 17.48 23.31z" fill="#428dc5"/><path d="m264 208v264l-8-8-8 8v-264z" fill="#418ac1"/><g fill="#3775a4"><path d="m280 248h16v16h-16z"/><path d="m280 312h16v16h-16z"/><path d="m280 376h16v16h-16z"/><path d="m304 208h56v16h-56z"/></g><path d="m128 96-12.457 58.134a519.971 519.971 0 0 0 -11.543 108.955v72.089a364.019 364.019 0 0 0 5.871 65.114l10.129 55.708 72-32-24-96-24-184z" fill="#4799cf"/><path d="m302.52 48.69-6.52 23.31h-80l-5.54-24.62 5.54-7.38.633-.253a105.994 105.994 0 0 1 78.734 0l.633.253z" fill="#3f85bb"/><path d="m216 40 40 200-72-104 24-24-32-24z" fill="#4799cf"/><path d="m296 40-40 200 72-104-24-24 32-24z" fill="#4799cf"/><path d="m256 240-33.83-169.14a204.33 204.33 0 0 1 67.66 0z" fill="#3775a4"/><path d="m384 96 12.457 58.134a519.971 519.971 0 0 1 11.543 108.955v72.089a364.019 364.019 0 0 1 -5.871 65.114l-10.129 55.708-72-32 24-96 24-184z" fill="#4799cf"/></g></svg>