<svg xmlns="http://www.w3.org/2000/svg" xmlns:xlink="http://www.w3.org/1999/xlink" version="1.1" id="Capa_1" x="0px" y="0px" viewBox="0 0 512 512" style="enable-background:new 0 0 512 512;" xml:space="preserve" width="512" height="512" class=""><g><polygon style="fill:#10097E" points="82.059,483.479 10.583,412.382 200.319,223.4 271.794,294.496 " data-original="#FF803C" class="" data-old_color="#FF803C"></polygon><polygon style="fill:#120368" points="82.059,483.479 60.616,462.15 250.352,273.167 271.794,294.496 " data-original="#F76328" class="" data-old_color="#F76328"></polygon><path style="fill:#B69B3D" d="M311.071,163.592c-1.057,0-2.13-0.223-3.152-0.694c-3.783-1.745-5.435-6.227-3.691-10.01  l14.565-31.604c0.018-0.036,0.034-0.073,0.052-0.109c6.031-12.559,5.471-27.194-1.501-39.149l-28.927-49.611  c-2.099-3.598-0.883-8.218,2.715-10.317c3.594-2.1,8.215-0.883,10.314,2.716l28.927,49.61c9.487,16.27,10.27,36.162,2.095,53.229  l-14.543,31.552C316.653,161.965,313.923,163.592,311.071,163.592z" data-original="#5C4346" class="active-path" data-old_color="#5C4346"></path><polygon style="fill:#10097E" points="278.099,288.309 242.366,252.755 420.395,75.47 456.128,111.023 " data-original="#FF803C" class="" data-old_color="#FF803C"></polygon><polygon style="fill:#120368" points="278.099,288.309 256.66,266.975 434.688,89.691 456.128,111.023 " data-original="#F76328" class="" data-old_color="#F76328"></polygon><path style="fill:#10097E" d="M242.422,252.699l-35.731-35.556l93.421-93.021c1.569-1.562,4.105-1.563,5.674-0.001l30.028,29.88  c1.58,1.573,1.581,4.131,0.001,5.704L242.422,252.699z" data-original="#FF803C" class="" data-old_color="#FF803C"></path><path style="fill:#120368" d="M242.422,252.699l-21.439-21.333l96.258-95.846l18.573,18.482c1.58,1.573,1.581,4.131,0.001,5.704  L242.422,252.699z" data-original="#F76328" class="" data-old_color="#F76328"></path><path style="fill:#F4D465" d="M510.811,64.931c1.391,1.381,1.585,3.562,0.459,5.166c-1.442,2.055-3.273,4.472-3.87,4.414  c-10.336-1.039-25.091,5.933-40.218,15.741l-14.534-14.423l-12.314-12.236c9.884-15.042,16.654-29.955,14.825-40.972  c-0.105-0.616,2.371-2.469,4.458-3.909c1.595-1.101,3.745-0.91,5.12,0.456l29.053,28.853L510.811,64.931z" data-original="#FFDEA9" class="" data-old_color="#FFDEA9"></path><path style="fill:#CCB33F" d="M510.811,64.931c1.391,1.381,1.585,3.562,0.459,5.166c-1.442,2.055-3.273,4.472-3.87,4.414  c-10.336-1.039-25.091,5.933-40.218,15.741l-14.534-14.423c6.86-5.793,23.464-19.098,41.142-27.807L510.811,64.931z" data-original="#FFBF7B" class="" data-old_color="#FFBF7B"></path><path style="fill:#CEB74E" d="M445.704,118.259l-32.828-32.604c-1.584-1.574-1.584-4.137,0-5.71L438.698,54.3  c1.568-1.558,4.1-1.558,5.668,0l32.828,32.604c1.584,1.574,1.584,4.137,0,5.71l-25.821,25.645  C449.804,119.816,447.273,119.816,445.704,118.259z" data-original="#735458" class="" data-old_color="#735458"></path><path style="fill:#B69B3D" d="M445.712,118.27L427.6,100.3l31.521-31.324l18.07,17.928c1.585,1.573,1.587,4.137,0.002,5.711  l-25.814,25.652C449.812,119.825,447.281,119.826,445.712,118.27z" data-original="#5C4346" class="active-path" data-old_color="#5C4346"></path><polygon style="fill:#F4D465" points="259.765,306.529 188.314,235.408 212.607,211.226 284.058,282.348 " data-original="#FFDEA9" class="" data-old_color="#FFDEA9"></polygon><polygon style="fill:#CCB33F" points="259.765,306.529 238.33,285.193 262.623,261.011 284.058,282.348 " data-original="#FFBF7B" class="" data-old_color="#FFBF7B"></polygon><path style="fill:#F4D465" d="M66.933,492.828L1.185,427.382c-1.58-1.573-1.58-4.131,0-5.704l21.428-21.33l71.45,71.123  l-21.456,21.357C71.038,494.391,68.502,494.391,66.933,492.828z" data-original="#FFDEA9" class="" data-old_color="#FFDEA9"></path><path style="fill:#CCB33F" d="M66.933,492.828l-18.598-18.513l24.293-24.182l21.435,21.337l-21.456,21.357  C71.038,494.391,68.502,494.391,66.933,492.828z" data-original="#FFBF7B" class="" data-old_color="#FFBF7B"></path></g> </svg>