<svg height="512" viewBox="0 0 58 49" width="512" xmlns="http://www.w3.org/2000/svg"><g id="Page-1" fill="none" fill-rule="evenodd"><g id="025---Cymbals" fill-rule="nonzero"><path id="Shape" d="m40.38 16.31c8.36-1.43 15.06-.02 17.04 4.24 2.99 6.44-5.93 16.97-19.94 23.5s-27.82 6.61-30.82.17c-.16730803-.3637641-.30119258-.7419879-.4-1.13v-.01z" fill="#b19046"/><path id="Shape" d="m35.786 41.423c-.4686987-.0001301-.8744217-.3257748-.9759697-.7833407-.1015479-.4575658.1283286-.9242696.5529697-1.1226593 12.726-5.933 18.664-14.407 17.525-16.859-.422-.908-2.66-1.886-6.576-1.886-.5522847 0-1-.4477153-1-1s.4477153-1 1-1c4.368 0 7.5 1.137 8.389 3.042 1.964 4.228-5.528 13.471-18.493 19.516-.1321447.0615712-.2762154.0933214-.422.093z" fill="#e4c05c"/><path id="Shape" d="m22.17 5.58c8.16-5.46 15.84-7.25 19.26-3.82 2.76 2.75 2.14 8.26-1.05 14.55-2.6938125 5.079526-6.1582222 9.7111078-10.27 13.73-8.39 8.39-17.81 13.33-23.85 13.04-1.64325175.0093666-3.22798242-.6095011-4.43-1.73-3.42-3.42-1.64-11.08 3.83-19.23z" fill="#e4c05c"/><path id="Shape" d="m37.915 13.072c-.3320758.0002548-.6426171-.1643542-.8288036-.4393251-.1861865-.2749708-.2237287-.6244312-.1001964-.9326749 1.564-3.908 1.278-6.036.907-6.407-.012-.012-.3-.288-1.376-.288-.5522847 0-1-.44771525-1-1s.4477153-1 1-1c1.0087388-.08834256 2.0115294.22543384 2.79.873 1.325 1.325 1.152 4.527-.463 8.565-.1518102.3799891-.5198081.6291502-.929.629z" fill="#fff"/><path id="Shape" d="m17.39 17.31-.01.01-.01.01c-4.68 4.68-9.74 7.2-11.3 5.64-.22362004-.232496-.36724819-.5302617-.41-.85v-.02c-.39-2.12 2.05-6.43 6.07-10.44s8.31-6.45 10.44-6.08c.3272569.04401298.6319872.19112415.87.42 1.57 1.56-.96 6.63-5.65 11.31z" fill="#f3d55b"/><path id="Shape" d="m7.729 18.883c-1.87836148.0121367-3.68097715-.7397353-4.994-2.083-.989-.989-1.925-2.727-.767-5.391 1.03056964-2.03603497 2.42134443-3.86860521 4.105-5.409 1.54233962-1.68189189 3.37619663-3.07092085 5.413-4.1 2.665-1.157 4.4-.222 5.391.767 2.0687954 1.844053 2.8451509 4.74045623 1.976 7.372-.1689991.5260512-.7324488.8154991-1.2585.6465s-.8154991-.73244878-.6465-1.2585c.6467006-1.91795397.0582527-4.03636637-1.485-5.346-.561-.561-1.429-1.108-3.179-.347-1.8063476.93320877-3.43179404 2.18107753-4.8 3.685-1.50227161 1.36601241-2.74968632 2.988261-3.684 4.791-.76 1.75-.214 2.619.347 3.18 1.36352633 1.355105 3.36449415 1.8453421 5.2 1.274.53461164-.1394519 1.0810481.1808884 1.2205.7155s-.1808884 1.0810481-.7155 1.2205c-.69282399.1838712-1.40620335.2789661-2.123.283z" fill="#805333"/></g></g></svg>