<?xml version="1.0" encoding="iso-8859-1"?>
<!-- Generator: Adobe Illustrator 19.0.0, SVG Export Plug-In . SVG Version: 6.00 Build 0)  -->
<svg version="1.1" id="Capa_1" xmlns="http://www.w3.org/2000/svg" xmlns:xlink="http://www.w3.org/1999/xlink" x="0px" y="0px"
	 viewBox="0 0 512 512" style="enable-background:new 0 0 512 512;" xml:space="preserve">
<polygon style="fill:#A66856;" points="145.946,147.037 164.689,127.902 135.752,98.966 116.814,117.905 "/>
<path style="fill:#75360D;" d="M401.112,409.701c-0.678,0-1.367-0.093-2.052-0.287c-3.985-1.131-6.298-5.278-5.167-9.263
	l1.438-5.066c3.429-12.083-2.836-28.771-15.591-41.526L104.671,78.492c-2.929-2.929-2.929-7.678,0-10.606
	c2.929-2.929,7.678-2.929,10.606,0l275.068,275.067c16.738,16.738,24.359,38.809,19.415,56.228l-1.438,5.066
	C407.386,407.547,404.38,409.701,401.112,409.701z"/>
<path style="fill:#FFDEA9;" d="M401.74,410.331c-1.919,0-3.839-0.732-5.303-2.197L101.918,113.614
	c-2.929-2.929-2.929-7.678,0-10.606c2.929-2.929,7.678-2.929,10.606,0l294.52,294.519c2.929,2.929,2.929,7.678,0,10.606
	C405.579,409.599,403.659,410.331,401.74,410.331z"/>
<g>
	<path style="fill:#5C4346;" d="M504.491,78.297c-1.919,0-3.839-0.732-5.303-2.197l-62.989-63.298
		c-2.929-2.929-2.929-7.678,0-10.606c2.929-2.929,7.678-2.929,10.606,0l62.989,63.298c2.929,2.929,2.929,7.678,0,10.606
		C508.33,77.565,506.41,78.297,504.491,78.297z"/>
	<path style="fill:#5C4346;" d="M485.012,106.929c-1.919,0-3.839-0.732-5.303-2.197l-72.435-72.435
		c-2.929-2.929-2.929-7.678,0-10.606c2.929-2.929,7.678-2.929,10.606,0l72.435,72.435c2.929,2.929,2.929,7.678,0,10.606
		C488.85,106.196,486.931,106.929,485.012,106.929z"/>
	<path style="fill:#5C4346;" d="M460.817,131.123c-1.919,0-3.839-0.732-5.303-2.197l-72.435-72.435
		c-2.929-2.929-2.929-7.678,0-10.606c2.929-2.929,7.678-2.93,10.606,0l72.435,72.435c2.929,2.929,2.929,7.678,0,10.606
		C464.655,130.391,462.736,131.123,460.817,131.123z"/>
</g>
<path style="fill:#A66856;" d="M59.308,275.54c3.674-1.51,7.808-1.505,11.46,0.057c24.097,10.311,49.455,8.38,65.277-7.45
	c11.247-11.252,12.226-42.816,12.307-49.292c0.01-0.774,0.24-1.523,0.67-2.168c2.469-3.7,11.311-16.822,17.615-24.569
	c41.36-50.817,150.359,2.891,150.359,2.891l-0.002,0.001c0,0,53.708,109,2.891,150.361c-7.747,6.305-20.869,15.146-24.569,17.616
	c-0.644,0.43-1.393,0.66-2.168,0.67c-6.476,0.082-38.04,1.06-49.291,12.307c-15.83,15.823-17.76,41.181-7.45,65.278
	c1.563,3.652,1.567,7.786,0.057,11.46c-18.737,45.58-119.913,96.642-196.856,19.698S13.729,294.277,59.308,275.54z"/>
<path style="fill:#8F5040;" d="M316.995,195.01l0.002-0.001c0,0-9.479-4.669-23.9-9.951c11.288,26.29,41.399,107.563-0.896,141.989
	c-7.725,6.287-20.794,15.096-24.537,17.594c-0.663,0.443-1.44,0.682-2.237,0.692c-6.56,0.085-38.023,1.081-49.253,12.307
	c-15.84,15.834-17.763,41.216-7.429,65.328c1.558,3.635,1.541,7.747,0.038,11.405c-15.82,38.499-90.457,80.907-159.633,46.797
	c75.533,63.995,169.352,15.245,187.319-28.476c1.517-3.693,1.477-7.852-0.09-11.524c-10.277-24.076-8.335-49.401,7.48-65.208
	c11.252-11.247,42.816-12.226,49.291-12.307c0.774-0.01,1.524-0.24,2.168-0.67c3.7-2.47,16.822-11.312,24.569-17.616
	C370.703,304.01,316.995,195.01,316.995,195.01z"/>
<g>
	<path style="fill:#5C4346;" d="M176.19,463.537c-1.287,0-2.59-0.331-3.78-1.027c-5.695-3.332-12.066-12.104-12.598-23.489
		c-0.441-9.463,3.049-23.627,22.185-37.364c19.631-14.092,16.25-23.084,16.2-23.164c-2.211-3.502-1.165-8.134,2.338-10.346
		c3.502-2.212,8.134-1.165,10.346,2.338c0.513,0.812,12.186,20.154-20.136,43.356c-10.819,7.766-16.332,16.23-15.948,24.479
		c0.297,6.36,3.959,10.523,5.188,11.242c3.575,2.092,4.778,6.686,2.687,10.261C181.274,462.207,178.766,463.537,176.19,463.537z"/>
	<path style="fill:#5C4346;" d="M47.483,334.412c-0.014,1.287,0.303,2.593,0.986,3.791c3.27,5.731,11.971,12.198,23.35,12.854
		c9.458,0.545,23.659-2.79,37.604-21.775c14.306-19.476,23.261-15.997,23.34-15.945c3.478,2.25,8.121,1.253,10.371-2.225
		c2.251-3.478,1.254-8.121-2.225-10.371c-0.806-0.522-20.02-12.406-43.574,19.661c-7.884,10.733-16.408,16.154-24.652,15.679
		c-6.357-0.366-10.48-4.074-11.185-5.311c-2.053-3.598-6.633-4.851-10.231-2.799C48.868,329.341,47.511,331.836,47.483,334.412z"/>
	<path style="fill:#5C4346;" d="M169.652,390.456c-1.919,0-3.838-0.732-5.303-2.196l-40.602-40.595
		c-2.929-2.929-2.93-7.677-0.001-10.606c2.929-2.93,7.678-2.93,10.606-0.001l40.602,40.595c2.929,2.929,2.93,7.677,0.001,10.606
		C173.491,389.724,171.571,390.456,169.652,390.456z"/>
</g>
<path style="fill:#735458;" d="M445.193,89.446l-46.218,46.208l-10.61,10.6l-20.819,20.809l-10.6,10.61l-20.819,20.809l-10.61,10.6
	l-20.809,20.819l-10.61,10.6l-70.359,70.34c-1.562,1.561-4.094,1.562-5.656,0l-16.951-16.943c-1.563-1.562-1.563-4.096,0-5.658
	l70.367-70.348l10.61-10.6l20.809-20.809l10.61-10.61l31.419-31.419l20.819-20.799l10.61-10.61l46.208-46.198L445.193,89.446z"/>
<path style="fill:#8F5040;" d="M426.161,123.692l-37.858-37.839c-1.741-1.74-0.86-5.347,1.901-7.788L469.02,8.384
	c2.425-2.144,5.449-2.615,6.978-1.087l28.461,28.445c1.522,1.521,1.062,4.527-1.063,6.948l-69.418,79.075
	C431.537,124.543,427.908,125.438,426.161,123.692z"/>
<path style="fill:#735458;" d="M9.935,502.061L9.935,502.061c-3.676-3.676-4.095-9.411-0.967-13.26l61.008-75.119
	c1.495-1.841,4.256-1.984,5.933-0.307l22.727,22.723c1.678,1.678,1.535,4.439-0.307,5.934l-75.131,60.997
	C19.347,506.155,13.611,505.737,9.935,502.061z"/>
<path style="fill:#A66856;" d="M509.162,46.104l-25.278,25.27c-1.562,1.561-4.094,1.561-5.656,0l-19.577-19.568v-0.01l-18.02-18.011
	c-1.563-1.562-1.563-4.095-0.001-5.658l25.278-25.278c1.562-1.562,4.095-1.562,5.657,0l37.599,37.599
	C510.725,42.009,510.724,44.542,509.162,46.104z"/>
<path style="fill:#8F5040;" d="M509.162,46.104l-25.278,25.27c-1.562,1.561-4.094,1.561-5.656,0l-19.577-19.568v-0.01l30.925-30.935
	l19.587,19.587C510.725,42.009,510.724,44.542,509.162,46.104z"/>
<g>
	<polygon style="fill:#5C4346;" points="398.975,135.654 388.365,146.254 365.766,123.655 376.376,113.045 	"/>
	<polygon style="fill:#5C4346;" points="367.546,167.063 356.947,177.673 334.347,155.074 334.337,155.064 344.947,144.454 
		344.957,144.464 	"/>
	<polygon style="fill:#5C4346;" points="336.127,198.482 325.518,209.082 302.919,186.482 313.528,175.873 313.538,175.883 	"/>
	<path style="fill:#5C4346;" d="M304.709,229.901l-10.61,10.6l-22.589-22.589c-0.01-0.01-0.01-0.01-0.01-0.02l10.61-10.6l0.01,0.01
		L304.709,229.901z"/>
</g>
<g>
</g>
<g>
</g>
<g>
</g>
<g>
</g>
<g>
</g>
<g>
</g>
<g>
</g>
<g>
</g>
<g>
</g>
<g>
</g>
<g>
</g>
<g>
</g>
<g>
</g>
<g>
</g>
<g>
</g>
</svg>
