<?xml version="1.0" encoding="iso-8859-1"?>
<!-- Generator: Adobe Illustrator 19.0.0, SVG Export Plug-In . SVG Version: 6.00 Build 0)  -->
<svg version="1.1" id="Layer_1" xmlns="http://www.w3.org/2000/svg" xmlns:xlink="http://www.w3.org/1999/xlink" x="0px" y="0px"
	 viewBox="0 0 512 512" style="enable-background:new 0 0 512 512;" xml:space="preserve">
<path style="fill:#A4A49E;" d="M256,512c-46.246,0-89.996-7.835-123.19-22.062c-37.936-16.257-58.828-39.701-58.828-66.012
	s20.892-49.754,58.828-66.012c33.194-14.227,76.944-22.062,123.19-22.062s89.996,7.835,123.19,22.062
	c37.936,16.257,58.828,39.701,58.828,66.012s-20.892,49.754-58.828,66.012C345.996,504.165,302.246,512,256,512z"/>
<polygon style="fill:#AB5034;" points="91.597,258.349 91.597,422.753 256,481.468 420.404,422.753 420.404,258.349 "/>
<path style="fill:#91928F;" d="M256,457.982c-90.798,0-164.404-31.546-164.404-70.459v35.229c0,38.913,73.606,70.459,164.404,70.459
	s164.404-31.546,164.404-70.459v-35.229C420.404,426.437,346.798,457.982,256,457.982z"/>
<path style="opacity:0.3;fill:#47423F;enable-background:new    ;" d="M91.597,258.349v84.55c0,38.913,73.606,70.459,164.404,70.459
	s164.404-31.546,164.404-70.459v-84.55H91.597z"/>
<path style="fill:#91928F;" d="M91.597,258.349v58.716c0,38.913,73.606,70.459,164.404,70.459s164.404-31.546,164.404-70.459
	v-58.716H91.597z"/>
<path style="fill:#C9AD80;" d="M256,483.23c-2.977,0-5.751-1.503-7.377-3.996L184.95,381.6l-51.142,66.486
	c-2.101,2.729-5.601,3.984-8.956,3.212c-3.356-0.772-5.955-3.43-6.651-6.804L94.713,330.586c-0.982-4.764,2.083-9.422,6.847-10.404
	c4.762-0.986,9.422,2.083,10.404,6.847l19.603,95.076l46.991-61.089c1.74-2.263,4.474-3.532,7.323-3.43
	c2.854,0.112,5.476,1.597,7.035,3.989L256,458.3l63.082-96.725c1.56-2.392,4.183-3.879,7.034-3.989
	c2.847-0.119,5.583,1.166,7.323,3.43l46.992,61.089l19.603-95.076c0.983-4.765,5.644-7.833,10.404-6.847
	c4.764,0.983,7.829,5.641,6.847,10.404L393.8,444.495c-0.696,3.374-3.295,6.032-6.651,6.804c-3.357,0.775-6.856-0.483-8.955-3.212
	l-51.144-66.486l-63.674,97.633C261.751,481.727,258.976,483.23,256,483.23z"/>
<path style="opacity:0.3;fill:#47423F;enable-background:new    ;" d="M91.597,258.349v35.229c0,36.474,64.669,66.475,147.55,70.094
	c9.422,0.411,16.854,8.16,16.854,17.591v111.948c90.798,0,164.404-31.546,164.404-70.459V293.578v-35.229H91.597z"/>
<path style="fill:#A4A49E;" d="M256,346.423c-46.246,0-89.996-7.835-123.19-22.062c-37.936-16.257-58.828-39.701-58.828-66.012
	s20.892-49.754,58.828-66.012c33.194-14.227,76.944-22.062,123.19-22.062s89.996,7.835,123.19,22.062
	c37.936,16.257,58.828,39.701,58.828,66.012s-20.892,49.754-58.828,66.012C345.996,338.588,302.246,346.423,256,346.423z"/>
<ellipse style="opacity:0.3;fill:#47423F;enable-background:new    ;" cx="256" cy="258.349" rx="164.404" ry="70.459"/>
<path style="fill:#C1BDAB;" d="M256,205.505c-83.838,0-153.014,26.895-163.127,61.651c10.113,34.756,79.29,61.651,163.127,61.651
	c7.975,0,15.816-0.243,23.486-0.714V206.22C271.816,205.749,263.975,205.505,256,205.505z"/>
<path style="fill:#E7E4CD;" d="M267.106,205.666c-66.65,1.906-122.427,20.832-143.87,46.728c-7.061,8.527-7.061,20.998,0,29.525
	c21.443,25.896,77.22,44.822,143.87,46.728c78.774-2.252,142.359-28.282,152.023-61.491
	C409.464,233.947,345.879,207.918,267.106,205.666z"/>
<path style="fill:#C9AD80;" d="M160.256,83.114c-2.751-9.337-12.567-14.68-21.923-11.935c-9.357,2.746-14.711,12.542-11.958,21.88
	l45.251,153.547l33.879-9.955L160.256,83.114z"/>
<path style="fill:#B69362;" d="M188.271,241.715L144.99,94.857c-2.399-8.142-10.171-13.243-18.324-12.596
	c-1.186,3.366-1.377,7.114-0.292,10.798l45.252,153.547L188.271,241.715z"/>
<path style="fill:#AB5034;" d="M205.575,235.854c-2.66-0.642-5.434-0.991-8.291-0.991c-10.038,0-19.087,4.205-25.505,10.941
	c-6.021,6.32-9.724,14.869-9.724,24.288c0,19.457,15.772,35.229,35.229,35.229s35.229-15.772,35.229-35.229
	C232.514,253.492,221.029,239.582,205.575,235.854z"/>
<path style="fill:#BD7155;" d="M220.697,260.66c0.222-3.47-0.06-6.84-0.779-10.045c-1.61-7.18-7.088-12.987-14.235-14.735
	c-0.036-0.009-0.072-0.018-0.108-0.026c-2.66-0.642-5.434-0.991-8.291-0.991c-10.038,0-19.087,4.205-25.505,10.941
	c-6.021,6.32-9.725,14.869-9.725,24.288c0,0.067,0,0.135,0,0.202c0.073,12.916,10.837,23.378,23.752,23.283
	c0.675-0.005,1.355-0.029,2.039-0.073C205.355,292.39,219.579,278.169,220.697,260.66z"/>
<path style="fill:#CE9276;" d="M195.558,247.102c-1.329-0.321-2.717-0.496-4.145-0.496c-5.019,0-9.544,2.102-12.752,5.47
	c-3.011,3.161-4.863,7.436-4.863,12.145c0,9.728,7.887,17.615,17.615,17.615s17.615-7.887,17.615-17.615
	C209.028,255.921,203.285,248.966,195.558,247.102z"/>
<path style="fill:#C9AD80;" d="M351.744,12.655c2.751-9.337,12.567-14.68,21.923-11.935c9.357,2.746,14.711,12.542,11.958,21.88
	l-45.251,153.547l-33.879-9.955L351.744,12.655z"/>
<path style="fill:#B69362;" d="M323.73,171.256l43.28-146.858c2.399-8.142,10.171-13.243,18.324-12.596
	c1.186,3.366,1.377,7.114,0.292,10.798l-45.252,153.547L323.73,171.256z"/>
<path style="fill:#AB5034;" d="M323.006,165.395c-2.66-0.642-5.434-0.991-8.291-0.991c-10.038,0-19.087,4.205-25.505,10.941
	c-6.021,6.32-9.724,14.869-9.724,24.288c0,19.457,15.772,35.229,35.229,35.229c19.457,0,35.229-15.772,35.229-35.229
	C349.945,183.033,338.46,169.124,323.006,165.395z"/>
<path style="fill:#BD7155;" d="M338.128,190.201c0.222-3.47-0.06-6.84-0.779-10.045c-1.61-7.18-7.088-12.987-14.235-14.735
	c-0.036-0.009-0.072-0.018-0.108-0.026c-2.66-0.642-5.434-0.991-8.291-0.991c-10.038,0-19.087,4.205-25.505,10.941
	c-6.021,6.32-9.724,14.869-9.724,24.288c0,0.067,0,0.135,0,0.202c0.073,12.916,10.837,23.378,23.752,23.283
	c0.675-0.005,1.355-0.029,2.039-0.073C322.786,221.931,337.01,207.71,338.128,190.201z"/>
<path style="fill:#CE9276;" d="M312.99,176.643c-1.329-0.321-2.717-0.496-4.145-0.496c-5.019,0-9.544,2.102-12.752,5.47
	c-3.011,3.161-4.863,7.436-4.863,12.145c0,9.728,7.887,17.615,17.615,17.615s17.615-7.887,17.615-17.615
	C326.459,185.462,320.717,178.508,312.99,176.643z"/>
<g>
</g>
<g>
</g>
<g>
</g>
<g>
</g>
<g>
</g>
<g>
</g>
<g>
</g>
<g>
</g>
<g>
</g>
<g>
</g>
<g>
</g>
<g>
</g>
<g>
</g>
<g>
</g>
<g>
</g>
</svg>
