<svg height="512pt" viewBox="0 -20 512.001 512" width="512pt" xmlns="http://www.w3.org/2000/svg"><path d="m343.039062 183.9375c-.714843 0-1.4375-.101562-2.15625-.316406-3.96875-1.191406-6.222656-5.371094-5.03125-9.339844l40.578126-135.269531c1.191406-3.96875 5.375-6.21875 9.339843-5.027344 3.964844 1.1875 6.21875 5.371094 5.027344 9.339844l-40.578125 135.269531c-.972656 3.246094-3.953125 5.34375-7.179688 5.34375zm0 0" fill="#4a4a68"/><path d="m168.960938 183.9375c-3.226563 0-6.207032-2.097656-7.179688-5.347656l-40.578125-135.269532c-1.191406-3.964843 1.058594-8.148437 5.027344-9.335937 3.964843-1.195313 8.148437 1.058594 9.339843 5.027344l40.578126 135.269531c1.1875 3.96875-1.0625 8.148438-5.03125 9.339844-.71875.214844-1.441407.316406-2.15625.316406zm0 0" fill="#4a4a68"/><path d="m424.730469 304.050781c0 93.1875-75.542969 168.730469-168.730469 168.730469s-168.730469-75.542969-168.730469-168.730469 75.542969-168.730469 168.730469-168.730469 168.730469 75.542969 168.730469 168.730469zm0 0" fill="#ffaf5c"/><path d="m393.160156 205.761719c8.175782 19.8125 12.683594 41.523437 12.683594 64.289062 0 93.191407-75.542969 168.734375-168.730469 168.734375-56.515625 0-106.539062-27.785156-137.160156-70.441406 25.28125 61.292969 85.625 104.4375 156.046875 104.4375 93.1875 0 168.730469-75.542969 168.730469-168.734375 0-36.671875-11.699219-70.609375-31.570313-98.285156zm0 0" fill="#d67f3e"/><path d="m394.289062 304.050781c0 76.375-61.914062 138.289063-138.289062 138.289063s-138.289062-61.914063-138.289062-138.289063 61.914062-138.292969 138.289062-138.292969 138.289062 61.917969 138.289062 138.292969zm0 0" fill="#efd76f"/><path d="m221.925781 438.109375c10.902344 2.761719 22.316407 4.230469 34.074219 4.230469 61.722656 0 114-40.4375 131.789062-96.265625-27.804687 55-84.835937 92.710937-150.675781 92.710937-5.117187 0-10.183593-.230468-15.1875-.675781zm0 0" fill="#ccae52"/><path d="m283.324219 304.050781c0 15.089844-12.234375 27.324219-27.324219 27.324219s-27.324219-12.234375-27.324219-27.324219c0-15.09375 12.234375-27.324219 27.324219-27.324219s27.324219 12.230469 27.324219 27.324219zm0 0" fill="#ffaf5c"/><path d="m202.882812 291.40625c10.339844 22.117188-12.375 48.59375-33.847656 66.484375-4.851562 4.046875-11.699218 4.664063-17.167968 1.503906l-24.84375-14.339843c-5.46875-3.160157-8.355469-9.398438-7.28125-15.621094 4.761718-27.539063 16.332031-60.453125 40.65625-62.558594 16.78125-1.449219 35.351562 9.273438 42.484374 24.53125zm0 0" fill="#7393d8"/><path d="m136.410156 350.472656c3.59375 2.074219 8.769532.492188 12.972656-3.925781 18.601563-19.546875 39.40625-47.132813 35.015626-65.8125-1.0625-4.53125-3.261719-8.335937-6.214844-11.203125 10.636718 3.996094 20.074218 11.980469 24.699218 21.875 10.339844 22.117188-12.375 48.59375-33.847656 66.484375-4.851562 4.046875-11.699218 4.664063-17.167968 1.503906l-24.84375-14.339843v-.003907zm0 0" fill="#3d6fb7"/><path d="m149.777344 358.1875-56.976563 98.683594c-3.292969 5.707031-10.589843 7.660156-16.292969 4.367187-5.707031-3.292969-7.660156-10.589843-4.367187-16.292969l56.976563-98.683593zm0 0" fill="#ba7b8f"/><path d="m428.769531 23.625-16.375-18.429688c-3.671875-4.136718-9.273437-6.003906-14.683593-4.867187-38.910157 8.160156-88.15625 13.035156-141.710938 13.035156s-102.800781-4.875-141.710938-13.035156c-5.414062-1.132813-11.011718.730469-14.683593 4.867187l-16.375 18.429688c-2.929688 3.300781-7.136719 5.191406-11.550781 5.191406h-52.3125c-10.695313 0-19.367188 8.671875-19.367188 19.367188 0 10.695312 8.671875 19.367187 19.367188 19.367187h473.265624c10.695313 0 19.367188-8.671875 19.367188-19.367187 0-10.695313-8.671875-19.367188-19.367188-19.367188h-52.3125c-4.414062 0-8.621093-1.890625-11.550781-5.191406zm0 0" fill="#ba7b8f"/><g fill="#9b6478"><path d="m387.125 5.195312 16.375 18.429688c2.933594 3.300781 7.136719 5.191406 11.550781 5.191406h25.269531c-4.414062 0-8.621093-1.890625-11.550781-5.191406l-16.375-18.429688c-3.671875-4.136718-9.273437-6.003906-14.683593-4.867187-4.261719.894531-8.644532 1.746094-13.148438 2.558594.929688.664062 1.789062 1.4375 2.5625 2.308593zm0 0"/><path d="m492.632812 28.816406h-25.269531c10.695313 0 19.367188 8.671875 19.367188 19.367188 0 10.699218-8.671875 19.367187-19.367188 19.367187h25.269531c10.695313 0 19.367188-8.667969 19.367188-19.367187 0-10.695313-8.671875-19.367188-19.367188-19.367188zm0 0"/></g></svg>