<svg id="Capa_1" enable-background="new 0 0 492.646 492.646" height="512" viewBox="0 0 492.646 492.646" width="512" xmlns="http://www.w3.org/2000/svg"><g><g><g><path d="m158.18 280.631c-4.142 0-7.5-3.897-7.5-8.704v-236.654c0-4.807 3.358-8.704 7.5-8.704s7.5 3.897 7.5 8.704v236.655c0 4.807-3.358 8.703-7.5 8.703z" fill="#f4e2c1"/></g><g><path d="m194.42 362.003c-4.142 0-7.5-3.897-7.5-8.704v-312.22c0-4.807 3.358-8.704 7.5-8.704s7.5 3.897 7.5 8.704v312.22c0 4.807-3.358 8.704-7.5 8.704z" fill="#f4e2c1"/></g><g><path d="m230.662 396.941c-4.142 0-7.5-3.897-7.5-8.704v-323.674c0-4.807 3.358-8.704 7.5-8.704s7.5 3.897 7.5 8.704v323.674c0 4.807-3.358 8.704-7.5 8.704z" fill="#f4e2c1"/></g><g><path d="m266.903 308.898c-4.142 0-7.5-3.897-7.5-8.704v-215.682c0-4.807 3.358-8.704 7.5-8.704s7.5 3.897 7.5 8.704v215.682c0 4.807-3.358 8.704-7.5 8.704z" fill="#f4e2c1"/></g><g><path d="m303.144 222.776c-4.142 0-7.5-3.897-7.5-8.704v-118.865c0-4.807 3.358-8.704 7.5-8.704s7.5 3.897 7.5 8.704v118.866c0 4.807-3.358 8.703-7.5 8.703z" fill="#f4e2c1"/></g></g><g><path d="m212.426 436.747-70.171-132.874c-40.824-77.304-70.735-158.975-51.632-244.632l36.034-22.099c-21.384 92.059 6.113 179.842 44.061 251.7l70.171 132.874z" fill="#cba863"/></g><g><path d="m92.153 17.693c-.568-10.02 7.728-18.289 17.744-17.659.85.054 1.7.108 2.55.163 41.421 2.182 81.142 4.908 117.745 26.372 14.131 8.36 25.867 20.148 40.329 28.035 15.871 8.656 34.069 9.404 51.133 4.017 14.313-4.518 27.211-14.222 42.607-14.908 14.347-.639 28.432 7.56 36.319 19.348 11.144 16.657 7.91 38.559 1.481 56.418l-.255.709-.463 1.027s-115.536 282.255-121.084 296.538c-5.087 13.015-10.057 26.085-14.902 39.212-.841 2.279-3.009 3.794-5.438 3.794h-73.977c-3.422 0-5.596-3.664-3.946-6.662 9.672-17.579 28.045-52.025 34.369-63.741 7.306-13.467 14.486-26.994 21.633-40.535 11.948-22.701 91.585-192.177 117.112-246.27 2.326-4.928-3.224-9.836-7.841-6.943-.003.002-.005.003-.005.003-37.984 23.802-87.036 8.187-121.09-14.588-21.448-14.343-41.59-23.827-67.995-25.45-5.532-.34-66.632-1.198-67.556 2.668 2.569-10.747 2.289-28.163 1.53-41.548z" fill="#edc472"/></g><g><path d="m400.58 63.061c-7.886-11.788-21.971-19.987-36.319-19.348-4.848.216-9.447 1.328-13.922 2.889 8.172 3.311 15.384 9.2 20.24 16.459 11.144 16.657 7.91 38.559 1.481 56.418l-.255.709-.463 1.027s-115.536 282.255-121.084 296.538c-5.087 13.015-10.057 26.085-14.902 39.212-.841 2.279-3.009 3.794-5.438 3.794h-43.978.001 73.977c2.429 0 4.597-1.515 5.438-3.794 4.845-13.128 9.814-26.197 14.902-39.212 5.548-14.282 121.084-296.538 121.084-296.538l.463-1.027.255-.709c6.43-17.859 9.664-39.761-1.48-56.418z" fill="#dbb56a"/></g><g><path d="m291.229 492.646h-126.113c-8.621 0-15.61-6.989-15.61-15.61v-16.896c0-12.975 10.519-23.494 23.494-23.494h110.345c12.975 0 23.494 10.519 23.494 23.494v16.896c0 8.621-6.989 15.61-15.61 15.61z" fill="#b36d3c"/></g><path d="m283.345 436.646h-30c12.975 0 23.494 10.519 23.494 23.494v16.896c0 8.621-6.989 15.61-15.61 15.61h30c8.621 0 15.61-6.989 15.61-15.61v-16.896c0-12.975-10.518-23.494-23.494-23.494z" fill="#995e34"/><g><circle cx="157.18" cy="31.743" fill="#bc9b5b" r="7.5"/></g><g><circle cx="189.921" cy="38.142" fill="#bc9b5b" r="7.5"/></g><g><circle cx="124.339" cy="30.743" fill="#bc9b5b" r="7.5"/></g></g></svg>