<?xml version="1.0" encoding="iso-8859-1"?>
<!-- Generator: Adobe Illustrator 19.0.0, SVG Export Plug-In . SVG Version: 6.00 Build 0)  -->
<svg version="1.1" id="Capa_1" xmlns="http://www.w3.org/2000/svg" xmlns:xlink="http://www.w3.org/1999/xlink" x="0px" y="0px"
	 viewBox="0 0 512 512" style="enable-background:new 0 0 512 512;" xml:space="preserve">
<path style="fill:#424242;" d="M393.832,236.564v-42.698C393.832,86.797,307.035,0,199.966,0l0,0C92.897,0,6.1,86.797,6.1,193.866
	v296.808c0,4.677,3.792,8.469,8.469,8.469H497.43c4.677,0,8.469-3.792,8.469-8.469V339.643c0-28.464-23.075-51.539-51.539-51.539
	h-8.987C416.907,288.104,393.832,265.029,393.832,236.564z"/>
<g>
	<path style="fill:#333333;" d="M454.359,288.104h-8.987c-28.464,0-51.539-23.075-51.539-51.539v-42.698
		C393.832,86.797,307.035,0,199.966,0l0,0c-9.165,0-18.177,0.651-27.003,1.881c94.285,13.142,166.863,94.081,166.863,191.985v92.999
		c0,23.457,19.015,42.472,42.472,42.472h27.122c23.457,0,42.472,19.015,42.472,42.472v118.865c0,4.677-3.792,8.469-8.469,8.469
		h54.006c4.677,0,8.469-3.792,8.469-8.469V339.643C505.898,311.178,482.823,288.104,454.359,288.104z"/>
	<path style="fill:#333333;" d="M505.898,404.439H6.1v86.043c0,4.794,3.887,8.681,8.681,8.681h482.437
		c4.794,0,8.681-3.887,8.681-8.681v-86.043H505.898z"/>
</g>
<path style="fill:#424242;" d="M55.109,404.439H6.1v98.88c0,4.794,3.887,8.681,8.681,8.681h40.328V404.439z"/>
<rect x="30.604" y="404.44" style="fill:#333333;" width="24.505" height="107.56"/>
<path style="fill:#424242;" d="M505.898,404.439h-49.009V512h40.328c4.794,0,8.681-3.887,8.681-8.681L505.898,404.439
	L505.898,404.439z"/>
<path style="fill:#333333;" d="M481.394,404.439v98.88c0,4.794-3.887,8.681-8.681,8.681h24.505c4.794,0,8.681-3.887,8.681-8.681
	v-98.88H481.394z"/>
<rect x="55.109" y="394.13" style="fill:#E2D9C5;" width="40.18" height="105.03"/>
<rect x="95.289" y="394.13" style="fill:#F2EBDA;" width="40.18" height="105.03"/>
<rect x="135.469" y="394.13" style="fill:#E2D9C5;" width="40.18" height="105.03"/>
<rect x="175.639" y="394.13" style="fill:#F2EBDA;" width="40.18" height="105.03"/>
<rect x="215.819" y="394.13" style="fill:#E2D9C5;" width="40.18" height="105.03"/>
<rect x="255.999" y="394.13" style="fill:#F2EBDA;" width="40.18" height="105.03"/>
<rect x="296.179" y="394.13" style="fill:#E2D9C5;" width="40.18" height="105.03"/>
<rect x="336.359" y="394.13" style="fill:#F2EBDA;" width="40.18" height="105.03"/>
<rect x="376.529" y="394.13" style="fill:#E2D9C5;" width="40.18" height="105.03"/>
<rect x="416.709" y="394.13" style="fill:#F2EBDA;" width="40.18" height="105.03"/>
<path style="fill:#424242;" d="M109.924,394.131H80.649v43.395c0,6.707,5.437,12.144,12.144,12.144h4.988
	c6.707,0,12.144-5.437,12.144-12.144L109.924,394.131L109.924,394.131z"/>
<path style="fill:#333333;" d="M95.287,394.131v43.395c0,4.991-3.014,9.275-7.319,11.142c1.479,0.642,3.109,1.001,4.825,1.001h4.988
	c6.707,0,12.144-5.437,12.144-12.144V394.13H95.287V394.131z"/>
<g>
	<path style="fill:#424242;" d="M190.281,394.131h-29.275v43.395c0,6.707,5.437,12.144,12.144,12.144h4.988
		c6.707,0,12.144-5.437,12.144-12.144v-43.395H190.281z"/>
	<path style="fill:#424242;" d="M270.637,394.131h-29.275v43.395c0,6.707,5.437,12.144,12.144,12.144h4.988
		c6.707,0,12.144-5.437,12.144-12.144v-43.395H270.637z"/>
	<path style="fill:#424242;" d="M350.993,394.131h-29.275v43.395c0,6.707,5.437,12.144,12.144,12.144h4.988
		c6.707,0,12.144-5.437,12.144-12.144v-43.395H350.993z"/>
	<path style="fill:#424242;" d="M431.349,394.131h-29.275v43.395c0,6.707,5.437,12.144,12.144,12.144h4.988
		c6.707,0,12.144-5.437,12.144-12.144v-43.395H431.349z"/>
</g>
<g>
	<path style="fill:#333333;" d="M175.643,394.131v43.395c0,4.991-3.014,9.275-7.319,11.142c1.479,0.642,3.109,1.001,4.825,1.001
		h4.988c6.707,0,12.144-5.437,12.144-12.144V394.13h-14.638V394.131z"/>
	<path style="fill:#333333;" d="M255.999,394.131v43.395c0,4.991-3.014,9.275-7.319,11.142c1.479,0.642,3.109,1.001,4.825,1.001
		h4.988c6.707,0,12.144-5.437,12.144-12.144V394.13h-14.638V394.131z"/>
	<path style="fill:#333333;" d="M336.355,394.131v43.395c0,4.991-3.014,9.275-7.319,11.142c1.479,0.642,3.109,1.001,4.825,1.001
		h4.988c6.707,0,12.144-5.437,12.144-12.144V394.13h-14.638V394.131z"/>
	<path style="fill:#333333;" d="M416.711,394.131v43.395c0,4.991-3.014,9.275-7.319,11.142c1.479,0.642,3.109,1.001,4.825,1.001
		h4.988c6.707,0,12.144-5.437,12.144-12.144V394.13h-14.638V394.131z"/>
	<rect x="6.1" y="366.75" style="fill:#333333;" width="499.8" height="37.691"/>
</g>
<g>
</g>
<g>
</g>
<g>
</g>
<g>
</g>
<g>
</g>
<g>
</g>
<g>
</g>
<g>
</g>
<g>
</g>
<g>
</g>
<g>
</g>
<g>
</g>
<g>
</g>
<g>
</g>
<g>
</g>
</svg>
