<?xml version="1.0" encoding="iso-8859-1"?>
<!-- Generator: Adobe Illustrator 19.0.0, SVG Export Plug-In . SVG Version: 6.00 Build 0)  -->
<svg version="1.1" id="Capa_1" xmlns="http://www.w3.org/2000/svg" xmlns:xlink="http://www.w3.org/1999/xlink" x="0px" y="0px"
	 viewBox="0 0 512 512" style="enable-background:new 0 0 512 512;" xml:space="preserve">
<rect x="209.399" y="-13.982" transform="matrix(-0.7071 -0.7071 0.7071 -0.7071 227.4547 629.8678)" style="fill:#FFDAAA;" width="69.557" height="563.617"/>
<rect x="214.53" y="-26.386" transform="matrix(-0.7071 -0.7071 0.7071 -0.7071 215.0426 599.918)" style="fill:#FFC477;" width="34.477" height="563.617"/>
<path style="fill:#FF9811;" d="M388.016,130.181l-6.753-6.814c-2.797-2.823-2.777-7.378,0.045-10.175l26.405-26.17
	c2.823-2.797,7.378-2.777,10.175,0.045l6.753,6.814c2.797,2.823,2.777,7.378-0.045,10.175l-26.405,26.17
	C395.368,133.024,390.813,133.004,388.016,130.181z"/>
<g>
	<path style="fill:#EE8700;" d="M424.641,93.882l-6.754-6.814c-2.797-2.823-7.353-2.842-10.175-0.045l-13.202,13.084l16.884,17.035
		l13.202-13.084C427.418,101.261,427.438,96.704,424.641,93.882z"/>
	<circle style="fill:#EE8700;" cx="285.185" cy="226.382" r="7.726"/>
	<circle style="fill:#EE8700;" cx="247.769" cy="263.798" r="7.726"/>
	<circle style="fill:#EE8700;" cx="210.353" cy="301.215" r="7.726"/>
	<circle style="fill:#EE8700;" cx="172.937" cy="338.631" r="7.726"/>
	<circle style="fill:#EE8700;" cx="135.52" cy="376.057" r="7.726"/>
	<circle style="fill:#EE8700;" cx="98.104" cy="413.473" r="7.726"/>
</g>
<path style="fill:#FFC477;" d="M75.774,477.628l-41.403-41.403c-6.296-6.296-6.296-16.599,0-22.895l0,0
	c6.296-6.296,16.599-6.296,22.895,0l41.403,41.403c6.296,6.296,6.296,16.599,0,22.895l0,0
	C92.373,483.924,82.07,483.924,75.774,477.628z"/>
<g>
	<path style="fill:#FFB655;" d="M58.962,437.922c6.296-6.296,16.599-6.296,22.895,0L57.266,413.33
		c-6.296-6.296-16.599-6.296-22.895,0c-6.295,6.296-6.296,16.599,0,22.895l24.591,24.591
		C52.667,454.521,52.667,444.218,58.962,437.922z"/>
	<path style="fill:#FFB655;" d="M48.147,505.966L6.034,463.853c-8.045-8.045-8.045-21.209,0-29.255l0,0
		c8.045-8.045,21.209-8.045,29.255,0l42.113,42.113c8.045,8.045,8.045,21.209,0,29.255l0,0
		C69.356,514.011,56.191,514.011,48.147,505.966z"/>
</g>
<path style="fill:#FFA733;" d="M30.625,459.19L30.625,459.19c8.045-8.045,21.209-8.046,29.255,0l-24.591-24.591
	c-8.045-8.045-21.209-8.045-29.255,0l0,0c-8.045,8.045-8.045,21.209,0,29.255l24.591,24.591
	C22.58,480.399,22.58,467.234,30.625,459.19z"/>
<path style="fill:#FFC477;" d="M337.446,125.372l-52.19,37.319c-6.327,4.525-7.079,13.646-1.579,19.146l46.486,46.486
	c5.5,5.5,14.621,4.747,19.146-1.579l37.319-52.19L337.446,125.372z"/>
<path style="fill:#FFB655;" d="M309.847,187.283l52.19-37.319l-24.591-24.591l-52.19,37.319c-6.327,4.525-7.079,13.646-1.579,19.146
	l24.591,24.591C302.767,200.929,303.519,191.807,309.847,187.283z"/>
<path style="fill:#FFC477;" d="M505.676,15.469l-9.145-9.145c-4.823-4.823-11.632-7.078-18.383-6.1
	c-13.998,2.03-39.473,9.671-70.591,36.776c-7.076,6.164-7.463,17.04-0.827,23.677l44.591,44.591
	c6.635,6.635,17.512,6.249,23.677-0.827c27.106-31.118,34.746-56.593,36.776-70.591C512.754,27.1,510.499,20.292,505.676,15.469z"/>
<path style="fill:#FFB655;" d="M432.149,61.592c31.118-27.106,56.593-34.746,70.591-36.776c2.891-0.419,5.782-0.211,8.533,0.503
	c-0.954-3.675-2.839-7.091-5.597-9.85l-9.145-9.145c-4.823-4.823-11.632-7.078-18.383-6.1c-13.998,2.03-39.473,9.671-70.591,36.776
	c-7.076,6.164-7.463,17.04-0.827,23.677l24.591,24.591C424.686,78.633,425.073,67.756,432.149,61.592z"/>
<g>
</g>
<g>
</g>
<g>
</g>
<g>
</g>
<g>
</g>
<g>
</g>
<g>
</g>
<g>
</g>
<g>
</g>
<g>
</g>
<g>
</g>
<g>
</g>
<g>
</g>
<g>
</g>
<g>
</g>
</svg>
