<svg height="512pt" viewBox="0 -27 512.00052 512" width="512pt" xmlns="http://www.w3.org/2000/svg"><path d="m106.90625 65.839844c-.039062-.710938.109375-1.441406.375-2.136719-.835938.585937-1.511719 1.414063-1.882812 2.445313l-105.089844 289.871093c-.96875 2.664063.417968 5.640625 3.082031 6.613281l45.035156 16.457032c2.660157.972656 5.628907-.414063 6.59375-3.078125l59.808594-164.96875zm0 0" fill="#8a8c8e"/><path d="m110.03125 123.09375-3.125-57.253906c-.039062-.710938.109375-1.441406.375-2.136719-.835938.585937-1.511719 1.414063-1.882812 2.445313l-105.089844 289.871093c-.96875 2.664063.417968 5.640625 3.082031 6.613281l18.109375 6.617188c-.136719-.839844-.089844-1.71875.21875-2.570312zm0 0" fill="#6d6e71"/><path d="m511.691406 356.019531-105.089844-289.871093c-.429687-1.1875-1.269531-2.101563-2.289062-2.683594.332031.769531.515625 1.582031.472656 2.375l-7.789062 144.71875 59.984375 165.453125c.964843 2.664062 3.933593 4.050781 6.597656 3.078125l45.035156-16.457032c2.660157-.972656 4.046875-3.949218 3.078125-6.613281zm0 0" fill="#8a8c8e"/><path d="m401.160156 151.828125-3.292968 61.136719 59.113281 163.046875c.964843 2.664062 3.933593 4.050781 6.597656 3.078125l17.636719-6.445313zm0 0" fill="#6d6e71"/><path d="m395.039062 265.523438 10.746094-199.628907c.152344-2.832031-1.925781-5.878906-4.613281-6.769531l-73.90625-24.457031 20.644531 33.578125c1.277344 2.070312 1.164063 5.503906-.25 7.488281l-18.046875 25.398437c-1.875 2.636719-2.140625 6.941407-.609375 9.792969l.304688.570313-2.242188 4.703125-.078125-.027344c-2.4375-.875-5.089843-1.320313-7.882812-1.320313-1.441407 0-2.945313.117188-4.46875.351563-.390625.058594-.734375.265625-.96875.585937-.234375.316407-.332031.707032-.269531 1.097657l2.773437 18.222656c-.414063-.019531-.832031-.027344-1.253906-.027344-2.347657 0-4.816407.308594-7.328125.921875-.871094.210938-1.410156 1.09375-1.195313 1.964844l4.863281 20.015625h-.003906c-2.4375-.546875-4.933594-.828125-7.414062-.828125-4.144532 0-8.191406.761719-12.035156 2.261719-.628907.242187-1.164063.667969-1.542969 1.230469-.378907.566406-.578125 1.222656-.574219 1.898437.089844 10.964844 5.550781 21.179687 14.609375 27.320313 1.695313 1.144531 3.5 2.140624 5.378906 2.957031l-52.847656 83.960937c-.539063.859375-1.214844 1.332032-1.898437 1.332032-.683594 0-1.355469-.472657-1.898438-1.332032l-84.574219-134.371094c-1.320312-2.097656-1.445312-5.714843-.269531-7.898437l12.671875-23.589844c1.53125-2.851562 1.261719-7.15625-.613281-9.796875l-18.046875-25.398437c-1.410157-1.984375-1.523438-5.414063-.25-7.488281l20.179687-32.8125-71.613281 23.695312c-2.6875.890625-4.761719 3.9375-4.609375 6.769531l10.894531 199.628907c.152344 2.832031.136719 7.464843-.035156 10.296874l-10.824219 177.429688c-.171875 2.832031 2.003906 5.144531 4.835938 5.144531h112.171875c2.835937 0 6.5625-1.839843 8.285156-4.089843l21.277344-27.789063c1.722656-2.25 4.542969-2.25 6.269531 0l21.277344 27.789063c1.722656 2.25 5.449218 4.089843 8.285156 4.089843h112.566406c2.835938 0 5.015625-2.316406 4.84375-5.144531l-10.683594-177.429688c-.167968-2.832031-.183593-7.464843-.03125-10.296874zm0 0" fill="#c7c8ca"/><path d="m138.136719 278.257812c.179687-3 .199219-7.910156.035156-10.910156l-11.546875-211.625c-.035156-.667968.058594-1.34375.238281-2.007812l-16.347656 5.410156c-2.6875.890625-4.761719 3.9375-4.609375 6.769531l10.894531 199.628907c.152344 2.832031.136719 7.464843-.035156 10.296874l-10.824219 177.429688c-.171875 2.832031 2.003906 5.144531 4.835938 5.144531h16.367187zm0 0" fill="#a7a9ac"/><path d="m348.761719 67.71875-38.941407-63.328125c-.8125-1.328125-2.257812-2.507813-3.851562-3.3125l-47.609375 53.53125c-1.886719 2.117187-4.972656 2.117187-6.855469 0l-47.394531-53.636719c-1.683594.804688-3.214844 2.03125-4.070313 3.417969l-38.941406 63.328125c-1.484375 2.417969-1.355468 6.28125.289063 8.59375l18.042969 25.398438c1.644531 2.308593 1.890624 6.246093.546874 8.742187l-12.671874 23.589844c-1.339844 2.5-1.203126 6.503906.308593 8.90625l84.574219 134.371093c1.507812 2.398438 3.980469 2.398438 5.488281 0l53.476563-84.964843c-2.199219-.863281-4.308594-1.96875-6.292969-3.316407-8.789063-5.953124-14.085937-15.859374-14.167969-26.5-.003906-.472656.132813-.933593.398438-1.328124.265625-.390626.640625-.6875 1.082031-.859376 3.722656-1.457031 7.648437-2.191406 11.667969-2.191406 2.410156 0 4.832031.269532 7.195312.804688l1.574219.351562-5.242187-21.582031c-.082032-.335937.125-.675781.460937-.757813 2.4375-.59375 4.824219-.894531 7.09375-.894531.402344 0 .804687.007813 1.207031.027344l1.21875.058594-2.960937-19.429688c-.039063-.261719.140625-.507812.398437-.546875 1.480469-.226562 2.933594-.339844 4.320313-.339844 2.679687 0 5.21875.425782 7.546875 1.261719l.929687.335938 2.847657-5.980469-.542969-1.015625c-1.34375-2.496094-1.097657-6.429687.542969-8.742187l18.046874-25.398438c1.640626-2.3125 1.769532-6.175781.285157-8.59375zm0 0" fill="#8a8c8e"/><path d="m306.25 1.214844c-.09375-.050782-.191406-.085938-.285156-.136719l-47.605469 53.53125c-1.886719 2.117187-4.972656 2.117187-6.855469 0l-47.390625-53.632813c-.167969.082032-.335937.152344-.5.238282-.761719.835937-1.128906 2.019531-.878906 3.34375l7.644531 40.621094 34.417969 16.460937.46875-.796875c.761719-1.296875 2.09375-2.074219 3.5625-2.074219h11.867187c1.496094 0 2.878907.835938 3.621094 2.179688l.457032.832031 34.710937-16.601562 7.644531-40.621094c.25-1.324219-.117187-2.507813-.878906-3.34375zm0 0" fill="#fff"/><path d="m264.773438 82.839844-.457032.832031c-.742187 1.34375-2.128906 2.175781-3.621094 2.175781h-11.867187c-1.46875 0-2.800781-.773437-3.5625-2.074218l-.46875-.792969-25.027344 12.097656 34.304688 182.257813c.171875.921874.386719 1.5.613281 1.746093.164062.015625.324219.015625.488281 0 .226563-.246093.4375-.824219.613281-1.746093l34.304688-182.257813zm0 0" fill="#fff"/><path d="m254.074219 277.335938-8.40625-44.664063-56.476563-89.722656c-1.507812-2.398438-1.644531-6.40625-.304687-8.90625l12.671875-23.589844c1.339844-2.496094 1.097656-6.433594-.546875-8.742187l-18.042969-25.398438c-1.644531-2.3125-1.773438-6.175781-.289062-8.59375l24.457031-39.769531-4.40625-23.390625c-.246094-1.324219.117187-2.507813.882812-3.34375-1.484375.800781-2.804687 1.925781-3.574219 3.175781l-38.941406 63.328125c-1.484375 2.414062-1.355468 6.28125.285156 8.59375l18.046876 25.398438c1.640624 2.308593 1.886718 6.246093.546874 8.742187l-12.671874 23.589844c-1.339844 2.5-1.203126 6.503906.304687 8.902343l84.574219 134.371094c.695312 1.101563 1.589844 1.671875 2.5 1.765625-.222656-.246093-.4375-.824219-.609375-1.746093zm0 0" fill="#6d6e71"/><path d="m212.433594 44.886719 21.230468 10.261719-4.589843-24.386719-25.761719-29.15625-.003906-.003907c-.550782.796876-.789063 1.824219-.578125 2.957032l7.445312 39.5625c.726563.144531 1.480469.390625 2.257813.765625zm0 0" fill="#e0e0e0"/><path d="m203.3125 1.605469 48.191406 54.539062c1.882813 2.113281 4.96875 2.113281 6.855469 0l48.320313-54.339843c-.128907-.214844-.285157-.414063-.453126-.601563-1.378906-.738281-2.898437-1.203125-4.253906-1.203125h-94.082031c-1.359375 0-2.878906.464844-4.257813 1.203125-.113281.128906-.226562.261719-.320312.402344zm0 0" fill="#a7a9ac"/><path d="m220.691406 0h-12.800781c-1.359375 0-2.878906.464844-4.257813 1.207031-.113281.125-.226562.257813-.320312.398438l48.191406 54.539062c1.882813 2.113281 4.96875 2.113281 6.855469 0l5.988281-6.734375zm0 0" fill="#8a8c8e"/><path d="m297.429688 44.886719-33.132813 16.011719c.339844.601562.550781 1.289062.550781 2.027343v18.765625c0 .742188-.210937 1.425782-.550781 2.03125l33.132813 16.011719c5.101562 2.464844 9.273437-.15625 9.273437-5.828125v-43.191406c0-5.671875-4.171875-8.292969-9.273437-5.828125zm0 0" fill="#02af8e"/><path d="m244.675781 81.691406v-18.765625c0-.792969.234375-1.527343.621094-2.15625l-32.863281-15.882812c-5.105469-2.464844-9.277344.15625-9.277344 5.828125v43.191406c0 5.671875 4.171875 8.296875 9.277344 5.828125l32.863281-15.882813c-.386719-.632812-.621094-1.367187-.621094-2.160156zm0 0" fill="#02af8e"/><path d="m224.5625 50.75-12.128906-5.863281c-5.105469-2.464844-9.277344.15625-9.277344 5.828125v43.191406c0 5.671875 4.171875 8.296875 9.277344 5.828125l12.128906-5.859375zm0 0" fill="#008e83"/><path d="m265.847656 81.691406c0 2.835938-2.320312 5.15625-5.152344 5.15625h-11.871093c-2.832031 0-5.148438-2.320312-5.148438-5.15625v-18.765625c0-2.835937 2.316407-5.15625 5.148438-5.15625h11.871093c2.832032 0 5.152344 2.320313 5.152344 5.15625zm0 0" fill="#00cca5"/><path d="m265.707031 322.195312c0 5.402344-4.378906 9.785157-9.785156 9.785157s-9.789063-4.382813-9.789063-9.785157c0-5.40625 4.382813-9.789062 9.789063-9.789062s9.785156 4.382812 9.785156 9.789062zm0 0" fill="#6d6e71"/><path d="m265.707031 376.820312c0 5.40625-4.378906 9.789063-9.785156 9.789063s-9.789063-4.382813-9.789063-9.789063c0-5.402343 4.382813-9.785156 9.789063-9.785156s9.785156 4.382813 9.785156 9.785156zm0 0" fill="#6d6e71"/><path d="m254.589844 166.324219c-3.539063-.601563-6.238282-3.675781-6.238282-7.386719 0-2.726562 1.460938-5.109375 3.640626-6.421875l-12.402344-65.90625-19.628906 9.488281 34.113281 181.238282c.039062.207031.082031.390624.121093.5625.011719.042968.023438.082031.03125.121093.042969.160157.085938.3125.132813.441407v.003906c.050781.136718.101563.25.152344.347656.007812.015625.011719.027344.019531.042969.050781.089843.101562.167969.15625.226562.164062.015625.324219.015625.488281 0 .003907 0 .003907-.003906.003907-.003906.050781-.054687.097656-.132813.148437-.222656.007813-.015625.015625-.027344.023437-.046875.050782-.097656.101563-.210938.148438-.34375.003906-.003906.003906-.007813.003906-.011719.046875-.125.089844-.273437.128906-.433594.011719-.039062.019532-.078125.03125-.121093.042969-.171876.085938-.355469.125-.5625l9.847657-52.324219zm0 0" fill="#e0e0e0"/><path d="m392.105469 160.652344c-.371094-.546875-.902344-.984375-1.546875-1.234375-6.847656-2.671875-14.273438-2.964844-21.15625-1.027344l-1.453125 4.964844c-2.8125 9.589843-10.753907 16.746093-20.265625 18.851562v11.234375c10.113281 3.804688 21.4375 2.488282 30.382812-3.574218 9.0625-6.140626 14.523438-16.351563 14.609375-27.320313.007813-.691406-.203125-1.347656-.570312-1.894531zm0 0" fill="#02af8e"/><path d="m334.683594 182.339844c-10.371094-1.910156-18.839844-9.703125-21.40625-20.261719l-.933594-3.851563c-6.707031-1.753906-13.894531-1.402343-20.535156 1.191407-.644532.25-1.175782.6875-1.546875 1.234375-.367188.546875-.578125 1.203125-.570313 1.894531.085938 10.96875 5.546875 21.183594 14.605469 27.320313 8.945313 6.0625 20.269531 7.378906 30.386719 3.574218zm0 0" fill="#02af8e"/><path d="m311.609375 185.484375c-9.058594-6.140625-14.523437-16.351563-14.609375-27.320313 0-.101562.011719-.199218.019531-.296874-1.761719.371093-3.503906.882812-5.210937 1.550781-.644532.25-1.175782.6875-1.546875 1.234375-.367188.546875-.578125 1.203125-.570313 1.894531.085938 10.96875 5.546875 21.183594 14.605469 27.320313 8.945313 6.0625 20.269531 7.378906 30.386719 3.574218v-2.550781c-8.015625 1.078125-16.238282-.773437-23.074219-5.40625zm0 0" fill="#159e97"/><path d="m341.90625 182.855469c-.566406 0-1.132812-.015625-1.703125-.050781h-.5625c-2.042969 0-4.03125-.246094-5.957031-.675782v22.273438c0 4.144531 3.355468 7.5 7.5 7.5 4.140625 0 7.5-3.355469 7.5-7.5v-22.425782c-2.183594.570313-4.457032.878907-6.777344.878907zm0 0" fill="#159e97"/><path d="m340 204.402344v-21.597656h-.359375c-2.042969 0-4.03125-.246094-5.957031-.679688v22.277344c0 4.140625 3.355468 7.5 7.5 7.5 1.128906 0 2.199218-.257813 3.160156-.707032-2.5625-1.191406-4.34375-3.78125-4.34375-6.792968zm0 0" fill="#008e83"/><path d="m333.1875 120.964844c2.839844 2.460937 5.273438 5.820312 7.238281 9.980468l.855469 1.804688.933594-1.765625c2.15625-4.0625 4.746094-7.304687 7.699218-9.628906 1.984376-1.566407 4.148438-2.710938 6.46875-3.460938-1.992187-7.085937-6.605468-13.300781-13.082031-17.203125-.429687-.257812-.914062-.394531-1.398437-.40625-.484375-.011718-.972656.101563-1.414063.339844-6.621093 3.578125-11.507812 9.539062-13.839843 16.484375 2.375.855469 4.5625 2.140625 6.539062 3.855469zm0 0" fill="#e8dd52"/><path d="m316.328125 136.128906c4.460937.25 8.5625 1.695313 12.195313 4.328125 4.507812 3.265625 8.328124 8.316407 11.359374 15.011719l.855469 1.894531.945313-1.851562c3.335937-6.546875 7.390625-11.414063 12.042968-14.464844 3.734376-2.449219 7.878907-3.707031 12.320313-3.757813l3.824219-19.082031c.160156-.800781-.359375-1.582031-1.160156-1.742187-7.515626-1.507813-14.050782-.128906-19.417969 4.101562-3.085938 2.433594-5.742188 5.765625-7.960938 9.949219-2.023437-4.28125-4.523437-7.734375-7.492187-10.308594-5.164063-4.476562-11.625-6.160156-19.203125-5.003906-.808594.121094-1.363281.875-1.238281 1.683594zm0 0" fill="#fff4a4"/><path d="m374.847656 137.574219c-8.089844-2.371094-15.382812-1.484375-21.667968 2.632812-4.824219 3.164063-8.964844 8.140625-12.386719 14.847657-3.101563-6.859376-7.011719-12.023438-11.679688-15.410157-6.089843-4.410156-13.332031-5.636719-21.523437-3.640625-.871094.210938-1.40625 1.09375-1.195313 1.964844l5.914063 24.34375c3.160156 13.019531 14.953125 21.710938 27.8125 21.488281h.019531c12.828125.8125 25.003906-7.316406 28.769531-20.167969l7.042969-24.039062c.25-.863281-.242187-1.765625-1.105469-2.019531zm0 0" fill="#e8dd52"/><g fill="#6d6e71"><path d="m263.351562 116.277344c0 4.144531-3.359374 7.5-7.5 7.5-4.144531 0-7.5-3.355469-7.5-7.5 0-4.140625 3.355469-7.5 7.5-7.5 4.140626 0 7.5 3.359375 7.5 7.5zm0 0"/><path d="m263.351562 158.9375c0 4.144531-3.359374 7.5-7.5 7.5-4.144531 0-7.5-3.355469-7.5-7.5 0-4.140625 3.355469-7.5 7.5-7.5 4.140626 0 7.5 3.359375 7.5 7.5zm0 0"/></g></svg>