<?xml version="1.0" encoding="iso-8859-1"?>
<!-- Generator: Adobe Illustrator 19.0.0, SVG Export Plug-In . SVG Version: 6.00 Build 0)  -->
<svg version="1.1" id="Capa_1" xmlns="http://www.w3.org/2000/svg" xmlns:xlink="http://www.w3.org/1999/xlink" x="0px" y="0px"
	 viewBox="0 0 512 512" style="enable-background:new 0 0 512 512;" xml:space="preserve">
<g>
	<path style="fill:#E8E6E1;" d="M506.895,461.463l-223.069-352.4c-6.072-9.591-16.474-15.317-27.826-15.317
		c-11.352,0-21.754,5.726-27.825,15.317c0,0,0,0-0.001,0L5.105,461.463c-7.405,11.699-6.79,26.977,2.08,38.149
		C13.525,507.598,23.365,512,33.562,512h47.307c8.534,0,15.453-6.918,15.453-15.453l0,0c0-8.534-6.918-15.453-15.453-15.453H32.931
		c-0.327,0-1.195,0-1.771-1.047c-0.577-1.047-0.112-1.781,0.062-2.057l223.069-352.398v0.001c0.147-0.233,0.596-0.941,1.709-0.941
		c1.114,0,1.562,0.708,1.708,0.94L480.777,477.99c0.175,0.276,0.639,1.01,0.063,2.057c-0.576,1.047-1.445,1.047-1.772,1.047H234.366
		c-8.534,0-15.453,6.918-15.453,15.453l0,0c0,8.534,6.918,15.453,15.453,15.453h244.703c12.004,0,23.058-6.532,28.848-17.047
		C513.707,484.438,513.315,471.605,506.895,461.463z"/>
	<path style="fill:#E8E6E1;" d="M219.171,124.652c-0.442,0-0.775,0.113-1.03,0.262L5.105,461.463
		c-3.769,5.955-5.449,12.836-5.031,19.632h32.857c-0.327,0-1.195,0-1.771-1.047c-0.577-1.047-0.112-1.781,0.062-2.057
		l206.363-326.007l-16.706-26.391C220.733,125.36,220.285,124.652,219.171,124.652z"/>
	<path style="fill:#E8E6E1;" d="M80.869,481.094H44.04c8.534,0,15.453,6.918,15.453,15.453S52.574,512,44.04,512h36.829
		c8.534,0,15.453-6.919,15.453-15.453S89.403,481.094,80.869,481.094z"/>
</g>
<g>
	<path style="fill:#CFCDC8;" d="M506.895,461.463l-223.069-352.4c-6.072-9.591-16.474-15.317-27.826-15.317
		c-6.705,0-13.069,2.011-18.414,5.622c3.705,2.503,6.926,5.769,9.411,9.695l10.033,15.85c0.388,0.226,0.59,0.538,0.678,0.679
		L480.777,477.99c0.175,0.276,3.408,6.323,3.408,13.534c0,19.187-29.941,20.475-41.945,20.475h36.829
		c12.004,0,23.058-6.532,28.848-17.047C513.707,484.438,513.315,471.605,506.895,461.463z"/>
	<path style="fill:#CFCDC8;" d="M270.957,337.799l-190.96-190.96c-5.23-5.23-13.71-5.23-18.94,0l0,0c-5.23,5.23-5.23,13.71,0,18.94
		l190.96,190.96L270.957,337.799z"/>
</g>
<g>
	<path style="fill:#595959;" d="M342.035,427.817L342.035,427.817c-6.035,6.035-15.819,6.035-21.853,0l-69.622-69.622l21.853-21.853
		l69.622,69.622C348.07,411.998,348.07,421.782,342.035,427.817z"/>
	<path style="fill:#595959;" d="M256,180.282L256,180.282c-8.534,0-15.453-6.918-15.453-15.453V0h30.905v164.829
		C271.453,173.363,264.534,180.282,256,180.282z"/>
</g>
<g>
</g>
<g>
</g>
<g>
</g>
<g>
</g>
<g>
</g>
<g>
</g>
<g>
</g>
<g>
</g>
<g>
</g>
<g>
</g>
<g>
</g>
<g>
</g>
<g>
</g>
<g>
</g>
<g>
</g>
</svg>
