<?xml version="1.0" encoding="iso-8859-1"?>
<!-- Generator: Adobe Illustrator 19.0.0, SVG Export Plug-In . SVG Version: 6.00 Build 0)  -->
<svg version="1.1" id="Layer_1" xmlns="http://www.w3.org/2000/svg" xmlns:xlink="http://www.w3.org/1999/xlink" x="0px" y="0px"
	 viewBox="0 0 511.987 511.987" style="enable-background:new 0 0 511.987 511.987;" xml:space="preserve">
<path style="fill:#EAAA39;" d="M304.021,305.982L304.021,305.982c-4.156,4.171-10.922,4.171-15.094,0l-30.154-30.155
	c-4.164-4.164-4.164-10.914,0-15.086l0,0c4.164-4.156,10.913-4.156,15.093,0l30.155,30.163
	C308.178,295.06,308.178,301.826,304.021,305.982z"/>
<g>
	<path style="fill:#F6BB42;" d="M140.69,408.979c-4.164,4.172-10.922,4.172-15.085,0c-4.164-4.156-4.164-10.906,0-15.078
		l331.288-331.28c4.156-4.172,10.922-4.172,15.094,0c4.156,4.172,4.156,10.921,0,15.078L140.69,408.979z"/>
	<path style="fill:#F6BB42;" d="M140.69,408.979c-0.953,0.953-9.703,9.453-23.007,13.906c-18.617,6.219-37.21,1.297-52.358-13.844
		c-15.133-15.141-20.07-33.733-13.906-52.373c4.414-13.344,12.875-22.109,13.82-23.078c4.156-4.172,10.906-4.203,15.085-0.047
		c4.172,4.141,4.203,10.859,0.094,15.047c-0.195,0.203-6.18,6.5-8.93,15.358c-3.367,10.812-0.453,20.64,8.922,30.015
		c9.359,9.359,19.148,12.266,29.929,8.875c8.922-2.812,15.242-8.922,15.305-8.984c4.171-4.156,10.898-4.141,15.07,0.031
		C144.878,398.042,144.854,404.823,140.69,408.979z"/>
	<path style="fill:#F6BB42;" d="M243.688,305.982c-4.164,4.171-10.922,4.171-15.086,0l-60.334-60.319
		c-4.164-4.172-4.164-10.921,0-15.093c4.164-4.156,10.922-4.156,15.086,0l60.334,60.334
		C247.851,295.076,247.851,301.826,243.688,305.982z"/>
</g>
<g>
	<path style="fill:#FFCE54;" d="M319.006,155.072c-0.141-0.156-0.266-0.297-0.422-0.438l-2.031-2.031l0,0
		c-11.516-11.515-57.264-57.264-57.834-57.827c-4.164-4.172-10.914-4.172-15.078,0c-4.172,4.156-4.172,10.906-0.008,15.078
		l3.281,3.281c0.336,0.969,3.531,13.625-34.194,63.795c-21.273,28.296-44.538,53.717-44.772,53.983
		c-3.812,4.156-3.726,10.562,0.195,14.609c2.086,2.172,4.875,3.266,7.672,3.266c2.461,0,4.93-0.844,6.93-2.562
		c0.234-0.203,23.617-20.171,50.475-39.843c15.609-11.421,29.289-20.499,40.663-26.968c17.733-10.062,25.265-11.156,27.687-11.156
		c0.203,0,0.359,0.016,0.484,0.016l1.781,1.766c0.016,0.031,0.062,0.062,0.094,0.094s0.047,0.062,0.078,0.094
		c0.016,0.016,0.031,0.031,0.047,0.047c0.406,0.406,0.844,0.781,1.312,1.109c1,0.734,2.125,1.281,3.344,1.625
		c0.938,0.281,1.922,0.406,2.906,0.406c0.094,0,0.172,0,0.25,0c5.781-0.125,10.438-4.859,10.438-10.656
		C322.303,159.728,321.021,157.009,319.006,155.072z"/>
	<path style="fill:#FFCE54;" d="M130.557,268.288L12.474,386.354c-16.632,16.641-16.632,43.703,0,60.343
		c8.062,8.062,18.773,12.5,30.171,12.5c11.39,0,22.109-4.438,30.163-12.5l118.083-118.091l0,0c8.062-8.047,12.5-18.766,12.5-30.155
		c0-11.406-4.438-22.108-12.5-30.163C174.26,251.647,147.19,251.647,130.557,268.288z M182.056,298.451
		c0,5.688-2.219,11.046-6.25,15.077L57.731,431.62c-4.031,4.016-9.39,6.234-15.085,6.234c-5.703,0-11.055-2.219-15.085-6.234
		c-8.32-8.328-8.32-21.859,0-30.172l118.083-118.091c8.32-8.312,21.851-8.312,30.171,0
		C179.838,287.389,182.056,292.748,182.056,298.451z"/>
	<path style="fill:#FFCE54;" d="M183.353,245.663L183.353,245.663l-45.249,45.241c-4.172,4.172-10.921,4.156-15.085,0
		c-4.164-4.172-4.164-10.922,0-15.077l0,0l45.249-45.257c4.164-4.156,10.922-4.156,15.086,0
		C187.517,234.742,187.517,241.491,183.353,245.663z"/>
</g>
<g>
	<path style="fill:#F6BB42;" d="M502.141,107.87L273.866,336.153c-4.18,4.172-10.929,4.172-15.093,0
		c-4.164-4.156-4.164-10.922,0-15.078L487.064,92.792c4.172-4.172,10.922-4.172,15.077,0
		C506.313,96.948,506.313,103.714,502.141,107.87z"/>
	<path style="fill:#F6BB42;" d="M502.141,107.87l-15.077-15.078l-0.094,0.094c0.656-0.688,2.516-3.062,3.297-5.781
		c0.688-2.375,0.844-5.344-3.203-9.406c-4.203-4.188-7.328-3.906-9.828-3.078c-2.969,1-5.25,3.062-5.25,3.078
		c-4.172,4.171-10.938,4.171-15.094,0c-4.156-4.156-4.156-10.906,0-15.078l0,0c9.094-9.094,28.656-16.594,45.249,0
		c9.094,9.078,12.016,20.327,8.234,31.655C507.829,101.932,503.079,106.948,502.141,107.87z"/>
</g>
<path style="fill:#FFCE54;" d="M281.397,343.7L281.397,343.7c-4.156,4.156-10.922,4.156-15.086,0l-15.085-15.094
	c-4.164-4.156-4.164-10.906,0-15.078l0,0c4.172-4.172,10.922-4.172,15.085,0l15.086,15.078
	C285.553,332.778,285.553,339.528,281.397,343.7z"/>
<path style="fill:#F6BB42;" d="M171.752,257.257l-26.108,26.101c5.57-5.562,13.476-7.405,20.593-5.515l16.164-16.148
	C179.033,259.71,175.439,258.241,171.752,257.257z"/>
<g>
</g>
<g>
</g>
<g>
</g>
<g>
</g>
<g>
</g>
<g>
</g>
<g>
</g>
<g>
</g>
<g>
</g>
<g>
</g>
<g>
</g>
<g>
</g>
<g>
</g>
<g>
</g>
<g>
</g>
</svg>
