<?xml version="1.0" encoding="iso-8859-1"?>
<!-- Generator: Adobe Illustrator 19.0.0, SVG Export Plug-In . SVG Version: 6.00 Build 0)  -->
<svg version="1.1" id="Capa_1" xmlns="http://www.w3.org/2000/svg" xmlns:xlink="http://www.w3.org/1999/xlink" x="0px" y="0px"
	 viewBox="0 0 512 512" style="enable-background:new 0 0 512 512;" xml:space="preserve">
<path style="fill:#FFCE55;" d="M442,282.826v132.341c0,53.48-43.296,96.833-96.705,96.833h-58.81
	c-61.504,0-113.496-45.604-121.589-106.654c-16.68-125.847-49.207-326.654-93.882-395.241c-2.654-4.068,0.206-9.465,5.06-9.547
	c47.705-0.803,226.809-0.721,274.514,0.134c4.845,0.082,7.704,5.49,5.05,9.547c-44.487,68.155-79.005,277.436-95.239,392.7
	c-5.815,41.284,26.218,78.163,67.855,78.163l0,0c37.905,0,68.633-30.769,68.633-68.724V282.836
	c0-24.263-19.643-43.932-43.874-43.932l0,0c-19.181,0-34.731,15.57-34.731,34.777v118.552h-30.857V273.67
	c0-36.265,29.36-65.664,65.577-65.664h14.276C408.546,208.006,442,241.504,442,282.826z"/>
<g>
	<path style="fill:#FFBC38;" d="M318.989,0.691c4.845,0.082,7.704,5.49,5.051,9.548c-44.487,68.155-79.005,277.436-95.239,392.7
		c-5.815,41.284,26.218,78.163,67.855,78.163l0,0c5.432,0,10.71-0.651,15.778-1.846c-33.563-7.921-57.085-40.449-52.033-76.317
		c16.235-115.264,50.752-324.545,95.239-392.7c2.654-4.058-0.206-9.465-5.051-9.548c-27.627-0.495-99.324-0.731-164.047-0.686
		C241.615,0.043,295.811,0.276,318.989,0.691z"/>
	<path style="fill:#FFBC38;" d="M367.279,208.006h-14.168c41.267,0,65.038,33.498,65.038,74.82v132.341
		c0,53.48-51.044,96.833-104.453,96.833h31.599C398.704,512,442,468.646,442,415.167V282.826
		C442,241.504,408.546,208.006,367.279,208.006z"/>
</g>
<path style="fill:#FFA440;" d="M303.022,329.26h-48.27c-16.112,0-31.892-4.457-45.635-12.889l-35.807-21.97
	c-9.543-5.855-20.5-8.95-31.689-8.95h-40.557c-7.378,0-13.359-5.996-13.359-13.392s5.981-13.392,13.359-13.392h40.557
	c16.113,0,31.893,4.457,45.636,12.889l35.807,21.97c9.543,5.855,20.5,8.95,31.688,8.95h48.27c7.378,0,13.359,5.996,13.359,13.392
	S310.4,329.26,303.022,329.26z"/>
<path style="fill:#FFBC38;" d="M359.332,442.91h-39.126c-18.075,0-32.781-14.728-32.781-32.832v-96.034
	c0-18.103,14.705-32.831,32.781-32.831h39.126c18.075,0,32.781,14.728,32.781,32.831v96.034
	C392.113,428.181,377.407,442.91,359.332,442.91z M320.206,312.118c-1.061,0-1.924,0.864-1.924,1.926v96.034
	c0,1.062,0.863,1.927,1.924,1.927h39.126c1.061,0,1.924-0.864,1.924-1.927v-96.034c0-1.061-0.863-1.926-1.924-1.926H320.206z"/>
<path style="fill:#FFA440;" d="M359.332,281.213h-30.857c18.075,0,32.781,14.728,32.781,32.831v96.034
	c0,18.104-14.705,32.832-32.781,32.832h30.857c18.075,0,32.78-14.728,32.78-32.832v-96.034
	C392.113,295.941,377.407,281.213,359.332,281.213z"/>
<path style="fill:#FFCE55;" d="M104.674,293.963H80.018v-45.328h24.655c3.409,0,6.173,2.764,6.173,6.173v32.981
	C110.847,291.199,108.083,293.963,104.674,293.963z"/>
<g>
</g>
<g>
</g>
<g>
</g>
<g>
</g>
<g>
</g>
<g>
</g>
<g>
</g>
<g>
</g>
<g>
</g>
<g>
</g>
<g>
</g>
<g>
</g>
<g>
</g>
<g>
</g>
<g>
</g>
</svg>
