<?xml version="1.0" encoding="iso-8859-1"?>
<!-- Generator: Adobe Illustrator 19.0.0, SVG Export Plug-In . SVG Version: 6.00 Build 0)  -->
<svg version="1.1" id="Capa_1" xmlns="http://www.w3.org/2000/svg" xmlns:xlink="http://www.w3.org/1999/xlink" x="0px" y="0px"
	 viewBox="0 0 512.001 512.001" style="enable-background:new 0 0 512.001 512.001;" xml:space="preserve">
<polygon style="fill:#A66856;" points="97.536,98.618 116.28,79.482 87.342,50.545 68.403,69.485 "/>
<path style="fill:#75360D;" d="M468.043,476.622c-0.678,0-1.367-0.093-2.051-0.287c-3.985-1.131-6.298-5.277-5.167-9.263
	l1.437-5.065c3.43-12.084-2.835-28.772-15.591-41.528L56.26,30.07c-2.929-2.93-2.929-7.678,0-10.607
	c2.929-2.928,7.678-2.928,10.606,0l390.41,390.408c16.739,16.739,24.36,38.812,19.415,56.231l-1.438,5.065
	C474.317,474.468,471.312,476.622,468.043,476.622z"/>
<path style="fill:#FFDEA9;" d="M61.637,62.719l413.532,412.75c1.562,1.562,1.562,4.095,0,5.657l-11.826,11.826
	c-1.562,1.562-4.095,1.562-5.657,0L44.155,80.202c-1.562-1.562-1.562-4.095,0-5.657l11.826-11.826
	C57.543,61.157,60.075,61.157,61.637,62.719z"/>
<path style="fill:#A66856;" d="M42.12,467.131c-71.447-73.088-48.456-187.906,42.205-209.692c0.704-0.169,1.437-0.143,2.128,0.072
	c7.05,2.185,48.431,13.907,67.84-5.501c11.936-11.936,15.852-29.483,12.382-47.736c-0.187-0.982-0.019-2.004,0.494-2.861
	c4.734-7.913,4.717-10.123,19.089-25.853c80.775-88.445,245.109,69.847,148.424,152.261c-16.04,13.667-15.18,11.727-23.709,17.042
	c-0.873,0.544-1.923,0.727-2.932,0.534c-18.313-3.506-35.938,0.387-47.908,12.344c-16.257,16.241-17.633,42.866-5.811,67.489
	c0.403,0.839,0.522,1.794,0.302,2.698C232.533,518.743,115.684,542.367,42.12,467.131z"/>
<path style="fill:#8F5040;" d="M287.203,159.629c46.745,37.728,71.764,105.339,18.977,150.334
	c-16.016,13.647-15.182,11.733-23.67,17.018c-0.898,0.559-1.977,0.748-3.017,0.549c-18.296-3.491-35.903,0.405-47.863,12.353
	c-16.248,16.232-17.632,42.837-5.83,67.448c0.415,0.865,0.538,1.85,0.311,2.782c-18.109,74.329-99.706,103.606-169.06,70.491
	c73.495,58.381,176.928,32.207,197.574-52.683c0.219-0.901,0.1-1.854-0.301-2.69c-11.825-24.624-10.449-51.25,5.809-67.492
	c11.971-11.959,29.6-15.851,47.914-12.343c1.006,0.193,2.052,0.01,2.921-0.532c8.535-5.319,7.671-3.375,23.714-17.045
	C397.462,274.307,350.191,188.805,287.203,159.629z"/>
<g>
	<path style="fill:#5C4346;" d="M94.5,502.376c-18.559-7.341-36.478-18.991-52.375-35.247C2.182,426.28-8.242,372.37,6.168,328.979
		c27.258-11.992,59.661-16.271,72.524,21.13c13.793,40.099,9.874,41.904,35.549,72.21C128.137,438.718,115.274,464.484,94.5,502.376
		z"/>
	<path style="fill:#5C4346;" d="M198.935,431.61c-1.282,0-2.581-0.33-3.769-1.024c-5.391-3.153-11.421-11.433-11.921-22.162
		c-0.414-8.88,2.848-22.159,20.735-34.991c17.426-12.503,14.859-20.543,14.816-20.611c-2.212-3.502-1.167-8.134,2.335-10.347
		c3.502-2.21,8.134-1.166,10.347,2.335c0.485,0.769,11.544,19.073-18.754,40.811c-9.813,7.04-14.826,14.672-14.497,22.072
		c0.252,5.686,3.59,9.4,4.511,9.945c3.561,2.103,4.761,6.7,2.666,10.266C204.006,430.282,201.505,431.61,198.935,431.61z"/>
	<path style="fill:#5C4346;" d="M80.551,309.755c-0.065,1.28,0.199,2.594,0.832,3.816c2.876,5.544,10.839,11.986,21.53,13.029
		c8.847,0.863,22.275-1.721,35.997-18.936c13.37-16.77,21.27-13.799,21.336-13.752c3.385,2.387,8.064,1.578,10.452-1.808
		c2.385-3.385,1.577-8.065-1.808-10.452c-0.743-0.524-18.464-12.496-41.708,16.662c-7.528,9.444-15.404,14.063-22.778,13.36
		c-5.665-0.54-9.206-4.062-9.704-5.009c-1.919-3.663-6.45-5.095-10.117-3.183C82.134,304.757,80.681,307.188,80.551,309.755z"/>
	<path style="fill:#5C4346;" d="M192.353,363.454c-1.918,0-3.837-0.731-5.301-2.194l-36.225-36.197
		c-2.93-2.928-2.932-7.677-0.004-10.607c2.927-2.929,7.676-2.931,10.606-0.004l36.225,36.197c2.93,2.928,2.932,7.677,0.004,10.607
		C196.194,362.721,194.273,363.454,192.353,363.454z"/>
</g>
<g>
	<path style="fill:#735458;" d="M43.453,468.478L43.453,468.478c-3.393-3.39-3.66-8.799-0.618-12.507l76.826-89.911
		c1.515-1.773,4.219-1.879,5.868-0.231l20.645,20.629c1.651,1.65,1.545,4.357-0.231,5.872l-89.974,76.765
		C52.258,472.135,46.846,471.868,43.453,468.478z"/>
	<path style="fill:#735458;" d="M455.9,92.601l-75.83,78.57l-10.41,10.78l-18.03,18.69l-10.41,10.79l-18.03,18.68l-10.42,10.79
		l-18.02,18.68l-10.42,10.79l-40.614,42.082c-1.553,1.609-4.123,1.632-5.705,0.053l-38.445-38.392
		c-1.585-1.583-1.561-4.158,0.052-5.712l42.152-40.591l10.8-10.4l18.7-18.01l10.8-10.41l18.7-18.01l10.8-10.4l18.7-18.01l10.8-10.4
		l78.63-75.73L455.9,92.601z"/>
</g>
<g>
	<path style="fill:#5C4346;" d="M457.964,124.442l-27.726-42.461l-42.527-27.675c-6.127-6.117-6.127-16.037,0-22.154l0,0
		c6.125-6.115,16.054-6.115,22.179,0l27.847,42.34l42.406,27.796c6.127,6.117,6.127,16.037,0,22.154l0,0
		C474.018,130.556,464.089,130.556,457.964,124.442z"/>
	<path style="fill:#5C4346;" d="M422.167,160.211l-28.463-41.716l-41.79-28.42c-6.127-6.117-6.127-16.037,0-22.154l0,0
		c6.125-6.115,16.054-6.115,22.179,0l29.01,41.189l41.243,28.947c6.127,6.117,6.127,16.037,0,22.154l0,0
		C438.222,166.326,428.292,166.326,422.167,160.211z"/>
</g>
<path d="M441.121,70.387c-2.985,2.983-5.986,5.949-8.896,9.006c-0.379,0.399,0.205,0.983,0.604,0.604
	c3.059-2.908,6.027-5.906,9.012-8.89C442.306,70.643,441.586,69.924,441.121,70.387z"/>
<path style="fill:#8F5040;" d="M406.589,143.666l-38.103-38.037c-1.752-1.749-1.047-5.194,1.522-7.437l73.32-64.047
	c2.255-1.97,5.158-2.303,6.696-0.767l28.644,28.594c1.532,1.529,1.209,4.41-0.746,6.66l-63.861,73.49
	C411.816,144.704,408.347,145.422,406.589,143.666z"/>
<path style="fill:#A66856;" d="M511.229,42.392l-42.907,54.579c-1.514,1.917-4.656,1.741-6.779-0.371l-21.974-21.933l-23.983-23.952
	c-2.112-2.112-2.287-5.233-0.391-6.747l54.322-43.186c1.679-1.329,4.368-0.927,6.233,0.928l12.816,12.795l0.01,0.01l21.716,21.686
	C512.136,38.045,512.548,40.723,511.229,42.392z"/>
<path style="fill:#8F5040;" d="M511.229,42.392l-42.907,54.579c-1.514,1.917-4.656,1.741-6.779-0.371l-21.974-21.933h0.041
	c2.122,2.112,5.264,2.287,6.779,0.371l42.907-54.579c1.257-1.597,0.927-4.11-0.721-5.944l21.717,21.686
	C512.136,38.045,512.548,40.723,511.229,42.392z"/>
<g>
	<path style="fill:#5C4346;" d="M380.07,171.171l-10.41,10.78c-0.04-0.03-0.07-0.06-0.11-0.1l-39.28-39.28l10.8-10.4L380.07,171.171
		z"/>
	<path style="fill:#5C4346;" d="M351.63,200.641l-10.41,10.79c-0.04-0.03-0.07-0.06-0.1-0.09l-40.26-40.25
		c-0.04-0.04-0.07-0.07-0.09-0.11l10.8-10.4L351.63,200.641z"/>
	<path style="fill:#5C4346;" d="M323.19,230.111l-10.42,10.79c-0.04-0.03-0.07-0.06-0.1-0.09l-41.31-41.31
		c-0.03-0.03-0.06-0.06-0.09-0.1l10.8-10.41L323.19,230.111z"/>
	<path style="fill:#5C4346;" d="M294.75,259.581l-10.42,10.79c-0.04-0.03-0.07-0.06-0.1-0.09l-42.37-42.37
		c-0.03-0.03-0.06-0.06-0.09-0.1l10.8-10.4L294.75,259.581z"/>
</g>
<g>
</g>
<g>
</g>
<g>
</g>
<g>
</g>
<g>
</g>
<g>
</g>
<g>
</g>
<g>
</g>
<g>
</g>
<g>
</g>
<g>
</g>
<g>
</g>
<g>
</g>
<g>
</g>
<g>
</g>
</svg>
