<?xml version="1.0" encoding="iso-8859-1"?>
<!-- Generator: Adobe Illustrator 19.0.0, SVG Export Plug-In . SVG Version: 6.00 Build 0)  -->
<svg version="1.1" id="Capa_1" xmlns="http://www.w3.org/2000/svg" xmlns:xlink="http://www.w3.org/1999/xlink" x="0px" y="0px"
	 viewBox="0 0 512.003 512.003" style="enable-background:new 0 0 512.003 512.003;" xml:space="preserve">
<g>
	
		<rect x="417.045" y="41.611" transform="matrix(-0.7071 -0.7071 0.7071 -0.7071 754.3319 411.3452)" style="fill:#7F7F7F;" width="90.627" height="15.669"/>
	
		<rect x="386.736" y="69.942" transform="matrix(-0.7071 -0.7071 0.7071 -0.7071 685.9463 439.6816)" style="fill:#7F7F7F;" width="94.597" height="15.669"/>
</g>
<path style="fill:#DD8D19;" d="M345.777,189.403c26.201,34.697,30.888,80.369,5.028,106.229
	c-10.928,10.928-20.683,17.882-30.46,22.6c-4.575,2.685-12.881,8.925-17.693,20.666c-1.666,4.049-7.328,4.232-8.92,0.297
	c-0.298-0.709-0.488-1.182-0.586-1.281c-0.914-2.304-2.304-4.132-4.186-5.395c-9.951-6.655-29.951,5.164-44.679,26.402
	c-14.715,21.225-18.601,43.83-8.663,50.473c1.176,0.79,5.021,2.446,8.818,4.005c2.677,1.106,3.012,4.505,1.12,6.397
	c-0.373,0.373-0.834,0.685-1.379,0.912c-10.969,4.607-19.717,13.674-23.6,24.902c-6.459,18.643-15.701,34.887-26.656,45.842
	C156.373,529,91.887,511.24,46.232,465.585C0.565,419.918-17.195,355.432,20.354,317.883c10.955-10.955,27.199-20.197,45.853-26.643
	c5.944-2.063,11.278-5.481,15.668-9.87c3.913-3.913,7.052-8.575,9.222-13.743c1.385-3.301,5.99-3.459,7.31-0.259
	c1.557,3.797,3.227,7.656,4.005,8.818c6.655,9.951,29.261,6.065,50.473-8.663c21.237-14.728,33.058-34.728,26.414-44.666
	c-1.275-1.894-3.103-3.283-5.395-4.186c-0.098-0.098-0.584-0.301-1.293-0.599c-3.935-1.592-3.752-7.254,0.297-8.92
	c11.753-4.801,17.981-13.118,20.679-17.682c4.705-9.79,11.659-19.544,22.587-30.473c25.873-25.873,71.546-21.186,106.255,5.028"/>
<g>
	<polyline style="fill:#A56247;" points="486.217,40.329 255.228,288.111 223.698,256.582 471.481,25.593 	"/>
	<path style="fill:#A56247;" d="M510.124,9.26l-7.573-7.573c-1.714-1.714-4.4-1.979-6.416-0.633l-24.344,16.25
		c-2.667,1.78-3.04,5.554-0.772,7.822l15.668,15.668c2.267,2.267,6.042,1.895,7.822-0.772l16.25-24.344
		C512.103,13.659,511.838,10.974,510.124,9.26z"/>
</g>
<g>
	<circle style="fill:#455256;" cx="495.812" cy="80.09" r="16.191"/>
	<circle style="fill:#455256;" cx="428.928" cy="18.804" r="16.191"/>
	<circle style="fill:#455256;" cx="400.588" cy="47.133" r="16.191"/>
	<circle style="fill:#455256;" cx="467.473" cy="108.419" r="16.191"/>
</g>
<polyline style="fill:#A56247;" points="56.72,475.95 101.552,431.118 159.356,400.684 111.125,352.455 80.691,410.259 
	35.86,455.089 "/>
<g>
	<path style="fill:#455256;" d="M464.174,428.822c-2.005,0-4.01-0.765-5.54-2.294c-3.06-3.061-3.06-8.02,0-11.08l12.761-12.76
		L145.438,76.734c-7.034-7.035-18.483-7.037-25.518,0c-3.061,3.059-8.02,3.059-11.08,0c-3.06-3.061-3.06-8.02,0-11.08
		c13.144-13.142,34.533-13.144,47.679,0l331.496,331.496c3.06,3.061,3.06,8.02,0,11.08l-18.3,18.3
		C468.184,428.058,466.179,428.822,464.174,428.822z"/>
	<path style="fill:#455256;" d="M492.569,463.993c-2.006,0-4.01-0.765-5.54-2.294L98.71,73.38c-3.06-3.061-3.06-8.02,0-11.08
		c3.062-3.06,8.021-3.058,11.08,0L498.108,450.62c3.06,3.061,3.06,8.02,0,11.08C496.578,463.229,494.574,463.993,492.569,463.993z"
		/>
	<path style="fill:#455256;" d="M430.93,402.354c-2.005,0-4.01-0.765-5.539-2.294c-3.061-3.06-3.061-8.02-0.001-11.079l18.299-18.3
		c3.061-3.061,8.021-3.06,11.079-0.001c3.061,3.06,3.061,8.02,0.001,11.079l-18.299,18.3
		C434.94,401.589,432.935,402.354,430.93,402.354z"/>
</g>
<g>
	<path style="fill:#704205;" d="M210.427,386.036c-1.424,0-2.864-0.388-4.158-1.2c-7.761-4.872-10.112-15.15-5.239-22.911
		l25.371-40.422c0.14-0.221,0.181-0.462,0.122-0.717c-0.059-0.255-0.2-0.453-0.421-0.591c-3.664-2.3-4.771-7.136-2.47-10.801
		c2.299-3.663,7.135-4.77,10.801-2.47c3.759,2.36,6.376,6.042,7.365,10.37c0.989,4.329,0.235,8.782-2.126,12.541l-25.371,40.422
		c-0.14,0.221-0.181,0.462-0.122,0.717c0.059,0.255,0.2,0.454,0.422,0.593c3.664,2.3,4.77,7.137,2.468,10.801
		C215.582,384.737,213.032,386.036,210.427,386.036z"/>
	<path style="fill:#704205;" d="M141.076,313.327c-1.243,0-2.495-0.141-3.736-0.424c-4.329-0.989-8.011-3.606-10.371-7.365
		c-2.3-3.665-1.194-8.501,2.47-10.801c3.667-2.299,8.5-1.195,10.801,2.47c0.139,0.221,0.337,0.364,0.591,0.421
		c0.256,0.056,0.496,0.018,0.717-0.121l40.424-25.374c3.759-2.361,8.214-3.116,12.54-2.124c4.328,0.99,8.01,3.606,10.37,7.365
		c2.3,3.665,1.194,8.501-2.47,10.801c-3.666,2.299-8.5,1.195-10.801-2.47c-0.139-0.221-0.337-0.364-0.592-0.421
		c-0.252-0.06-0.494-0.018-0.716,0.121l-40.423,25.373C147.2,312.46,144.166,313.327,141.076,313.327z"/>
</g>
<g>
</g>
<g>
</g>
<g>
</g>
<g>
</g>
<g>
</g>
<g>
</g>
<g>
</g>
<g>
</g>
<g>
</g>
<g>
</g>
<g>
</g>
<g>
</g>
<g>
</g>
<g>
</g>
<g>
</g>
</svg>
