<?xml version="1.0" encoding="iso-8859-1"?>
<!-- Generator: Adobe Illustrator 19.0.0, SVG Export Plug-In . SVG Version: 6.00 Build 0)  -->
<svg version="1.1" id="Capa_1" xmlns="http://www.w3.org/2000/svg" xmlns:xlink="http://www.w3.org/1999/xlink" x="0px" y="0px"
	 viewBox="0 0 512 512" style="enable-background:new 0 0 512 512;" xml:space="preserve">
<path style="fill:#A66856;" d="M494.134,275.542L23.341,338.717C10.985,340.375,0,330.754,0,318.275V140.1
	c0-12.48,10.985-22.1,23.341-20.442l470.793,63.175c10.23,1.373,17.866,10.11,17.866,20.442V255.1
	C512,265.431,504.363,274.169,494.134,275.542z"/>
<path style="fill:#8F5040;" d="M494.134,182.833l-16.397-2.2c2.12,4.25,3.358,9.301,3.358,14.7v67.709
	c0,5.399-1.237,10.45-3.358,14.7l16.397-2.2C504.363,274.169,512,265.431,512,255.1v-51.824
	C512,192.944,504.363,184.206,494.134,182.833z"/>
<path style="fill:#F3B573;" d="M97.14,367.375H43.575c-2.277,0-4.123-1.846-4.123-4.123V95.123c0-2.277,1.846-4.123,4.123-4.123
	H97.14c2.277,0,4.123,1.846,4.123,4.123v268.129C101.263,365.529,99.417,367.375,97.14,367.375z"/>
<path style="fill:#F5A257;" d="M97.14,367.375H70.357V91H97.14c2.277,0,4.123,1.846,4.123,4.123v268.129
	C101.263,365.529,99.417,367.375,97.14,367.375z"/>
<path style="fill:#F3B573;" d="M187.452,354.656h-53.565c-2.277,0-4.123-1.846-4.123-4.123V107.842c0-2.277,1.846-4.123,4.123-4.123
	h53.565c2.277,0,4.123,1.846,4.123,4.123v242.692C191.575,352.81,189.729,354.656,187.452,354.656z"/>
<path style="fill:#F5A257;" d="M187.452,354.656H160.67V103.719h26.783c2.277,0,4.123,1.846,4.123,4.123v242.692
	C191.575,352.81,189.729,354.656,187.452,354.656z"/>
<path style="fill:#F3B573;" d="M277.765,343.108H224.2c-2.277,0-4.123-1.846-4.123-4.123V119.39c0-2.277,1.846-4.123,4.123-4.123
	h53.565c2.277,0,4.123,1.846,4.123,4.123v219.596C281.888,341.262,280.042,343.108,277.765,343.108z"/>
<path style="fill:#F5A257;" d="M277.765,343.108h-26.783V115.267h26.783c2.277,0,4.123,1.846,4.123,4.123v219.596
	C281.888,341.262,280.042,343.108,277.765,343.108z"/>
<path style="fill:#F3B573;" d="M368.077,332.623h-57.688V129.875c0-2.277,1.846-4.123,4.123-4.123h53.565
	c2.277,0,4.123,1.846,4.123,4.123V328.5C372.2,330.777,370.354,332.623,368.077,332.623z"/>
<path style="fill:#F5A257;" d="M368.077,332.623h-26.783V125.752h26.783c2.277,0,4.123,1.846,4.123,4.123V328.5
	C372.2,330.777,370.354,332.623,368.077,332.623z"/>
<path style="fill:#F3B573;" d="M458.39,323.103h-53.565c-2.277,0-4.123-1.846-4.123-4.123V139.395c0-2.277,1.846-4.123,4.123-4.123
	h53.565c2.277,0,4.123,1.846,4.123,4.123V318.98C462.513,321.257,460.667,323.103,458.39,323.103z"/>
<path style="fill:#F5A257;" d="M458.39,323.103h-26.783v-187.83h26.783c2.277,0,4.123,1.846,4.123,4.123V318.98
	C462.513,321.257,460.667,323.103,458.39,323.103z"/>
<g>
	<circle style="fill:#E8E6E1;" cx="71.19" cy="125.75" r="7.5"/>
	<circle style="fill:#E8E6E1;" cx="71.19" cy="332.62" r="7.5"/>
	<circle style="fill:#E8E6E1;" cx="160.67" cy="138.38" r="7.5"/>
	<circle style="fill:#E8E6E1;" cx="160.67" cy="319.42" r="7.5"/>
	<circle style="fill:#E8E6E1;" cx="250.98" cy="150.76" r="7.5"/>
	<circle style="fill:#E8E6E1;" cx="250.98" cy="306.48" r="7.5"/>
	<circle style="fill:#E8E6E1;" cx="341.3" cy="163.65" r="7.5"/>
	<circle style="fill:#E8E6E1;" cx="346" cy="295.51" r="7.5"/>
	<ellipse style="fill:#E8E6E1;" cx="431.98" cy="180.15" rx="7" ry="7.5"/>
	<circle style="fill:#E8E6E1;" cx="431.98" cy="284.71" r="7.5"/>
</g>
<path style="fill:#FFBF7B;" d="M417.751,417.073L417.751,417.073c-5.23,5.235-13.71,5.235-18.94,0l-118.737-118.86l18.94-18.959
	l118.737,118.86C422.981,403.35,422.981,411.838,417.751,417.073z"/>
<circle style="fill:#735458;" cx="277.42" cy="276.6" r="22"/>
<path style="fill:#FFDEA9;" d="M285.005,383.691L285.005,383.691c-5.23-5.236-5.23-13.724,0-18.959l118.737-118.86l18.94,18.959
	l-118.737,118.86C298.714,388.926,290.235,388.926,285.005,383.691z"/>
<circle style="fill:#735458;" cx="425.34" cy="243.21" r="22"/>
<g>
</g>
<g>
</g>
<g>
</g>
<g>
</g>
<g>
</g>
<g>
</g>
<g>
</g>
<g>
</g>
<g>
</g>
<g>
</g>
<g>
</g>
<g>
</g>
<g>
</g>
<g>
</g>
<g>
</g>
</svg>
